<?xml version="1.0" encoding="UTF-8" standalone="no"?>
<!-- Created with Inkscape (http://www.inkscape.org/) -->

<svg
   xmlns:dc="http://purl.org/dc/elements/1.1/"
   xmlns:cc="http://creativecommons.org/ns#"
   xmlns:rdf="http://www.w3.org/1999/02/22-rdf-syntax-ns#"
   xmlns:svg="http://www.w3.org/2000/svg"
   xmlns="http://www.w3.org/2000/svg"
   xmlns:sodipodi="http://sodipodi.sourceforge.net/DTD/sodipodi-0.dtd"
   xmlns:inkscape="http://www.inkscape.org/namespaces/inkscape"
   width="860"
   height="375"
   viewBox="0 0 227.54166 99.218752"
   version="1.1"
   id="svg8"
   inkscape:version="0.92.4 (5da689c313, 2019-01-14)"
   sodipodi:docname="day43-ram.svg">
  <defs
     id="defs2" />
  <sodipodi:namedview
     id="base"
     pagecolor="#ffffff"
     bordercolor="#666666"
     borderopacity="1.0"
     inkscape:pageopacity="0.0"
     inkscape:pageshadow="2"
     inkscape:zoom="0.98994949"
     inkscape:cx="484.13947"
     inkscape:cy="234.9629"
     inkscape:document-units="mm"
     inkscape:current-layer="layer1"
     showgrid="false"
     showborder="true"
     units="px"
     inkscape:window-width="1920"
     inkscape:window-height="1017"
     inkscape:window-x="1358"
     inkscape:window-y="-8"
     inkscape:window-maximized="1" />
  <metadata
     id="metadata5">
    <rdf:RDF>
      <cc:Work
         rdf:about="">
        <dc:format>image/svg+xml</dc:format>
        <dc:type
           rdf:resource="http://purl.org/dc/dcmitype/StillImage" />
        <dc:title></dc:title>
      </cc:Work>
    </rdf:RDF>
  </metadata>
  <g
     inkscape:label="Layer 1"
     inkscape:groupmode="layer"
     id="layer1"
     transform="translate(0,-197.78125)">
    <g
       id="g1531"
       transform="matrix(0.34476011,0,0,0.34476011,-170.90251,49.179427)">
      <g
         id="g1221"
         transform="matrix(1.8333333,0,0,1.8333333,-90.952382,-377.58334)">
	<path
   d="M 677,485.6 V 457 c 0,-3.3 -2.7,-6 -6,-6 H 329 c -3.3,0 -6,2.7 -6,6 v 28.6 c 13.3,0 24,10.7 24,24 0,13.3 -10.7,24 -24,24 V 593 c 0,1.1 0.9,2 2,2 h 204.4 v -23 h 16.5 v 23 H 675 c 1.1,0 2,-0.9 2,-2 v -59.4 c -13.3,0 -24,-10.7 -24,-24 0,-13.3 10.7,-24 24,-24 z M 342.2,572 c -5,0 -9,-4 -9,-9 0,-5 4,-9 9,-9 5,0 9,4 9,9 0,5 -4,9 -9,9 z m 316,-18 c 5,0 9,4 9,9 0,5 -4,9 -9,9 -5,0 -9,-4 -9,-9 0,-5 4,-9 9,-9 z"
   class="st2"
   id="XMLID_135_"
   inkscape:connector-curvature="0"
   style="opacity:0.31000001;fill:#353535;stroke:#353535;stroke-width:6;stroke-linecap:round;stroke-linejoin:round;stroke-miterlimit:10" />

	<path
   d="M 677,478.6 V 450 c 0,-3.3 -2.7,-6 -6,-6 H 329 c -3.3,0 -6,2.7 -6,6 v 28.6 c 13.3,0 24,10.7 24,24 0,13.3 -10.7,24 -24,24 V 586 c 0,1.1 0.9,2 2,2 h 204.4 v -23 h 16.5 v 23 H 675 c 1.1,0 2,-0.9 2,-2 v -59.4 c -13.3,0 -24,-10.7 -24,-24 0,-13.3 10.7,-24 24,-24 z M 342.2,565 c -5,0 -9,-4 -9,-9 0,-5 4,-9 9,-9 5,0 9,4 9,9 0,5 -4,9 -9,9 z m 316,-18 c 5,0 9,4 9,9 0,5 -4,9 -9,9 -5,0 -9,-4 -9,-9 0,-5 4,-9 9,-9 z"
   class="st3"
   id="XMLID_164_"
   inkscape:connector-curvature="0"
   style="fill:#14b0bf" />

	<path
   d="m 677,453 v -5.4 c 0,-2 -2.7,-3.6 -6,-3.6 H 329 c -3.3,0 -6,1.6 -6,3.6 v 5.4 z"
   class="st4"
   id="XMLID_4_"
   inkscape:connector-curvature="0"
   style="fill:#24c1c9" />

	<rect
   height="26"
   width="131"
   class="st5"
   y="562"
   x="546"
   id="XMLID_140_"
   style="fill:#353535" />

	<line
   y2="549.09998"
   x2="638.20001"
   y1="549.09998"
   x1="361.79999"
   class="st6"
   id="XMLID_136_"
   style="fill:none;stroke:#353535;stroke-width:7;stroke-linecap:round;stroke-linejoin:round;stroke-miterlimit:10" />

	<circle
   r="9"
   cy="556"
   cx="658.20001"
   class="st7"
   id="XMLID_138_"
   style="fill:none;stroke:#194254;stroke-width:6;stroke-linecap:round;stroke-linejoin:round;stroke-miterlimit:10" />

	<rect
   height="26"
   width="206.39999"
   class="st5"
   y="562"
   x="323"
   id="XMLID_71_"
   style="fill:#353535" />

	<g
   id="XMLID_139_">
		<g
   id="XMLID_294_">
			<path
   d="m 519.8,588 h -7.2 c -0.5,0 -0.9,-0.4 -0.9,-0.9 V 569 c 0,-1.7 1.3,-3 3,-3 h 3 c 1.7,0 3,1.3 3,3 v 18.1 c 0.1,0.5 -0.3,0.9 -0.9,0.9 z"
   class="st8"
   id="XMLID_296_"
   inkscape:connector-curvature="0"
   style="fill:#fce18d" />

		</g>

		<g
   id="XMLID_291_">
			<path
   d="m 505.8,588 h -7.2 c -0.5,0 -0.9,-0.4 -0.9,-0.9 V 569 c 0,-1.7 1.3,-3 3,-3 h 3 c 1.7,0 3,1.3 3,3 v 18.1 c 0.1,0.5 -0.3,0.9 -0.9,0.9 z"
   class="st8"
   id="XMLID_293_"
   inkscape:connector-curvature="0"
   style="fill:#fce18d" />

		</g>

		<g
   id="XMLID_288_">
			<path
   d="m 491.8,588 h -7.2 c -0.5,0 -0.9,-0.4 -0.9,-0.9 V 569 c 0,-1.7 1.3,-3 3,-3 h 3 c 1.7,0 3,1.3 3,3 v 18.1 c 0.1,0.5 -0.3,0.9 -0.9,0.9 z"
   class="st8"
   id="XMLID_290_"
   inkscape:connector-curvature="0"
   style="fill:#fce18d" />

		</g>

		<g
   id="XMLID_285_">
			<path
   d="m 477.8,588 h -7.2 c -0.5,0 -0.9,-0.4 -0.9,-0.9 V 569 c 0,-1.7 1.3,-3 3,-3 h 3 c 1.7,0 3,1.3 3,3 v 18.1 c 0.1,0.5 -0.3,0.9 -0.9,0.9 z"
   class="st8"
   id="XMLID_287_"
   inkscape:connector-curvature="0"
   style="fill:#fce18d" />

		</g>

		<g
   id="XMLID_282_">
			<path
   d="m 463.8,588 h -7.2 c -0.5,0 -0.9,-0.4 -0.9,-0.9 V 569 c 0,-1.7 1.3,-3 3,-3 h 3 c 1.7,0 3,1.3 3,3 v 18.1 c 0.1,0.5 -0.3,0.9 -0.9,0.9 z"
   class="st8"
   id="XMLID_284_"
   inkscape:connector-curvature="0"
   style="fill:#fce18d" />

		</g>

		<g
   id="XMLID_279_">
			<path
   d="m 449.8,588 h -7.2 c -0.5,0 -0.9,-0.4 -0.9,-0.9 V 569 c 0,-1.7 1.3,-3 3,-3 h 3 c 1.7,0 3,1.3 3,3 v 18.1 c 0.1,0.5 -0.3,0.9 -0.9,0.9 z"
   class="st8"
   id="XMLID_281_"
   inkscape:connector-curvature="0"
   style="fill:#fce18d" />

		</g>

		<g
   id="XMLID_276_">
			<path
   d="m 435.8,588 h -7.2 c -0.5,0 -0.9,-0.4 -0.9,-0.9 V 569 c 0,-1.7 1.3,-3 3,-3 h 3 c 1.7,0 3,1.3 3,3 v 18.1 c 0.1,0.5 -0.3,0.9 -0.9,0.9 z"
   class="st8"
   id="XMLID_278_"
   inkscape:connector-curvature="0"
   style="fill:#fce18d" />

		</g>

		<g
   id="XMLID_272_">
			<path
   d="m 421.8,588 h -7.2 c -0.5,0 -0.9,-0.4 -0.9,-0.9 V 569 c 0,-1.7 1.3,-3 3,-3 h 3 c 1.7,0 3,1.3 3,3 v 18.1 c 0.1,0.5 -0.3,0.9 -0.9,0.9 z"
   class="st8"
   id="XMLID_274_"
   inkscape:connector-curvature="0"
   style="fill:#fce18d" />

		</g>

		<g
   id="XMLID_269_">
			<path
   d="m 407.8,588 h -7.2 c -0.5,0 -0.9,-0.4 -0.9,-0.9 V 569 c 0,-1.7 1.3,-3 3,-3 h 3 c 1.7,0 3,1.3 3,3 v 18.1 c 0.1,0.5 -0.3,0.9 -0.9,0.9 z"
   class="st8"
   id="XMLID_271_"
   inkscape:connector-curvature="0"
   style="fill:#fce18d" />

		</g>

		<g
   id="XMLID_266_">
			<path
   d="m 393.8,588 h -7.2 c -0.5,0 -0.9,-0.4 -0.9,-0.9 V 569 c 0,-1.7 1.3,-3 3,-3 h 3 c 1.7,0 3,1.3 3,3 v 18.1 c 0.1,0.5 -0.3,0.9 -0.9,0.9 z"
   class="st8"
   id="XMLID_268_"
   inkscape:connector-curvature="0"
   style="fill:#fce18d" />

		</g>

		<g
   id="XMLID_263_">
			<path
   d="m 379.8,588 h -7.2 c -0.5,0 -0.9,-0.4 -0.9,-0.9 V 569 c 0,-1.7 1.3,-3 3,-3 h 3 c 1.7,0 3,1.3 3,3 v 18.1 c 0.1,0.5 -0.3,0.9 -0.9,0.9 z"
   class="st8"
   id="XMLID_265_"
   inkscape:connector-curvature="0"
   style="fill:#fce18d" />

		</g>

		<g
   id="XMLID_260_">
			<path
   d="m 365.8,588 h -7.2 c -0.5,0 -0.9,-0.4 -0.9,-0.9 V 569 c 0,-1.7 1.3,-3 3,-3 h 3 c 1.7,0 3,1.3 3,3 v 18.1 c 0.1,0.5 -0.3,0.9 -0.9,0.9 z"
   class="st8"
   id="XMLID_262_"
   inkscape:connector-curvature="0"
   style="fill:#fce18d" />

		</g>

	</g>

	<g
   id="XMLID_141_">
		<g
   id="XMLID_249_">
			<path
   d="m 647.6,588 h -9 v -19 c 0,-1.7 1.3,-3 3,-3 h 3 c 1.7,0 3,1.3 3,3 z"
   class="st8"
   id="XMLID_251_"
   inkscape:connector-curvature="0"
   style="fill:#fce18d" />

		</g>

		<g
   id="XMLID_241_">
			<path
   d="m 633.6,588 h -9 v -19 c 0,-1.7 1.3,-3 3,-3 h 3 c 1.7,0 3,1.3 3,3 z"
   class="st8"
   id="XMLID_248_"
   inkscape:connector-curvature="0"
   style="fill:#fce18d" />

		</g>

		<g
   id="XMLID_238_">
			<path
   d="m 619.6,588 h -9 v -19 c 0,-1.7 1.3,-3 3,-3 h 3 c 1.7,0 3,1.3 3,3 z"
   class="st8"
   id="XMLID_240_"
   inkscape:connector-curvature="0"
   style="fill:#fce18d" />

		</g>

		<g
   id="XMLID_234_">
			<path
   d="m 605.6,588 h -9 v -19 c 0,-1.7 1.3,-3 3,-3 h 3 c 1.7,0 3,1.3 3,3 z"
   class="st8"
   id="XMLID_236_"
   inkscape:connector-curvature="0"
   style="fill:#fce18d" />

		</g>

		<g
   id="XMLID_231_">
			<path
   d="m 591.6,588 h -9 v -19 c 0,-1.7 1.3,-3 3,-3 h 3 c 1.7,0 3,1.3 3,3 z"
   class="st8"
   id="XMLID_233_"
   inkscape:connector-curvature="0"
   style="fill:#fce18d" />

		</g>

		<g
   id="XMLID_228_">
			<path
   d="m 577.6,588 h -9 v -19 c 0,-1.7 1.3,-3 3,-3 h 3 c 1.7,0 3,1.3 3,3 z"
   class="st8"
   id="XMLID_230_"
   inkscape:connector-curvature="0"
   style="fill:#fce18d" />

		</g>

		<g
   id="XMLID_225_">
			<path
   d="m 563.6,588 h -9 v -19 c 0,-1.7 1.3,-3 3,-3 h 3 c 1.7,0 3,1.3 3,3 z"
   class="st8"
   id="XMLID_227_"
   inkscape:connector-curvature="0"
   style="fill:#fce18d" />

		</g>

	</g>

	<path
   d="m 653,502.6 c 0,-12 8.8,-22 20.3,-23.7 2.1,-0.3 3.7,-2 3.7,-4.1 v -20.5 c 0,-5.6 -4.6,-10.2 -10.2,-10.2 H 333.2 c -5.6,0 -10.2,4.6 -10.2,10.2 v 20.5 c 0,2.1 1.6,3.8 3.7,4.1 11.5,1.8 20.3,11.7 20.3,23.7 0,12 -8.8,22 -20.3,23.7 -2.1,0.3 -3.7,2 -3.7,4.1 v 51.4 c 0,3.4 2.8,6.2 6.2,6.2 h 196 c 2.3,0 4.2,-1.9 4.2,-4.2 V 565 h 16.5 v 18.8 c 0,2.3 1.9,4.2 4.2,4.2 h 120.7 c 3.4,0 6.2,-2.8 6.2,-6.2 v -51.4 c 0,-2.1 -1.6,-3.8 -3.7,-4.1 C 661.8,524.5 653,514.6 653,502.6 Z"
   class="st7"
   id="XMLID_103_"
   inkscape:connector-curvature="0"
   style="fill:none;stroke:#194254;stroke-width:6;stroke-linecap:round;stroke-linejoin:round;stroke-miterlimit:10" />

	<circle
   r="9"
   cy="556"
   cx="342.20001"
   class="st7"
   id="XMLID_39_"
   style="fill:none;stroke:#194254;stroke-width:6;stroke-linecap:round;stroke-linejoin:round;stroke-miterlimit:10" />

	<g
   id="g1105">
		<path
   d="m 405.8,535.6 h -34 c -2.2,0 -4,-1.8 -4,-4 v -50 c 0,-2.2 1.8,-4 4,-4 h 34 c 2.2,0 4,1.8 4,4 v 50 c 0,2.2 -1.8,4 -4,4 z"
   class="st9"
   id="XMLID_137_"
   inkscape:connector-curvature="0"
   style="opacity:0.2;fill:#2c5871" />

		<g
   id="XMLID_8_">
			<g
   id="g1082">
				<g
   id="XMLID_348_">
					<line
   y2="526.59998"
   x2="367.79999"
   y1="526.59998"
   x1="361.79999"
   class="st10"
   id="XMLID_349_"
   style="fill:none;stroke:#eae9da;stroke-width:4;stroke-linecap:round;stroke-linejoin:round;stroke-miterlimit:10" />

				</g>

				<g
   id="XMLID_346_">
					<line
   y2="518.59998"
   x2="367.79999"
   y1="518.59998"
   x1="361.79999"
   class="st10"
   id="XMLID_347_"
   style="fill:none;stroke:#eae9da;stroke-width:4;stroke-linecap:round;stroke-linejoin:round;stroke-miterlimit:10" />

				</g>

				<g
   id="XMLID_344_">
					<line
   y2="510.60001"
   x2="367.79999"
   y1="510.60001"
   x1="361.79999"
   class="st10"
   id="XMLID_345_"
   style="fill:none;stroke:#eae9da;stroke-width:4;stroke-linecap:round;stroke-linejoin:round;stroke-miterlimit:10" />

				</g>

				<g
   id="XMLID_342_">
					<line
   y2="502.60001"
   x2="367.79999"
   y1="502.60001"
   x1="361.79999"
   class="st10"
   id="XMLID_343_"
   style="fill:none;stroke:#eae9da;stroke-width:4;stroke-linecap:round;stroke-linejoin:round;stroke-miterlimit:10" />

				</g>

				<g
   id="XMLID_340_">
					<line
   y2="494.60001"
   x2="367.79999"
   y1="494.60001"
   x1="361.79999"
   class="st10"
   id="XMLID_341_"
   style="fill:none;stroke:#eae9da;stroke-width:4;stroke-linecap:round;stroke-linejoin:round;stroke-miterlimit:10" />

				</g>

				<g
   id="XMLID_338_">
					<line
   y2="486.60001"
   x2="367.79999"
   y1="486.60001"
   x1="361.79999"
   class="st10"
   id="XMLID_339_"
   style="fill:none;stroke:#eae9da;stroke-width:4;stroke-linecap:round;stroke-linejoin:round;stroke-miterlimit:10" />

				</g>

				<g
   id="XMLID_336_">
					<line
   y2="478.60001"
   x2="367.79999"
   y1="478.60001"
   x1="361.79999"
   class="st10"
   id="XMLID_337_"
   style="fill:none;stroke:#eae9da;stroke-width:4;stroke-linecap:round;stroke-linejoin:round;stroke-miterlimit:10" />

				</g>

			</g>

		</g>

		<g
   id="XMLID_17_">
			<g
   id="XMLID_36_">
				<line
   y2="526.59998"
   x2="415.79999"
   y1="526.59998"
   x1="409.79999"
   class="st10"
   id="XMLID_37_"
   style="fill:none;stroke:#eae9da;stroke-width:4;stroke-linecap:round;stroke-linejoin:round;stroke-miterlimit:10" />

			</g>

			<g
   id="XMLID_34_">
				<line
   y2="518.59998"
   x2="415.79999"
   y1="518.59998"
   x1="409.79999"
   class="st10"
   id="XMLID_35_"
   style="fill:none;stroke:#eae9da;stroke-width:4;stroke-linecap:round;stroke-linejoin:round;stroke-miterlimit:10" />

			</g>

			<g
   id="XMLID_32_">
				<line
   y2="510.60001"
   x2="415.79999"
   y1="510.60001"
   x1="409.79999"
   class="st10"
   id="XMLID_33_"
   style="fill:none;stroke:#eae9da;stroke-width:4;stroke-linecap:round;stroke-linejoin:round;stroke-miterlimit:10" />

			</g>

			<g
   id="XMLID_30_">
				<line
   y2="502.60001"
   x2="415.79999"
   y1="502.60001"
   x1="409.79999"
   class="st10"
   id="XMLID_31_"
   style="fill:none;stroke:#eae9da;stroke-width:4;stroke-linecap:round;stroke-linejoin:round;stroke-miterlimit:10" />

			</g>

			<g
   id="XMLID_28_">
				<line
   y2="494.60001"
   x2="415.79999"
   y1="494.60001"
   x1="409.79999"
   class="st10"
   id="XMLID_29_"
   style="fill:none;stroke:#eae9da;stroke-width:4;stroke-linecap:round;stroke-linejoin:round;stroke-miterlimit:10" />

			</g>

			<g
   id="XMLID_26_">
				<line
   y2="486.60001"
   x2="415.79999"
   y1="486.60001"
   x1="409.79999"
   class="st10"
   id="XMLID_27_"
   style="fill:none;stroke:#eae9da;stroke-width:4;stroke-linecap:round;stroke-linejoin:round;stroke-miterlimit:10" />

			</g>

			<g
   id="XMLID_24_">
				<line
   y2="478.60001"
   x2="415.79999"
   y1="478.60001"
   x1="409.79999"
   class="st10"
   id="XMLID_25_"
   style="fill:none;stroke:#eae9da;stroke-width:4;stroke-linecap:round;stroke-linejoin:round;stroke-miterlimit:10" />

			</g>

		</g>

		<path
   d="m 405.8,531.6 h -34 c -2.2,0 -4,-1.8 -4,-4 v -50 c 0,-2.2 1.8,-4 4,-4 h 34 c 2.2,0 4,1.8 4,4 v 50 c 0,2.2 -1.8,4 -4,4 z"
   class="st11"
   id="XMLID_5_"
   inkscape:connector-curvature="0"
   style="fill:#2c5871" />

		<path
   d="m 371.8,525.9 v -46.6 c 0,-1 0.8,-1.7 1.7,-1.7 h 30.6 c 1,0 1.7,0.8 1.7,1.7 v 46.6 c 0,1 -0.8,1.7 -1.7,1.7 h -30.6 c -0.9,0 -1.7,-0.8 -1.7,-1.7 z"
   class="st12"
   id="XMLID_144_"
   inkscape:connector-curvature="0"
   style="fill:#3d6d82" />

		<polyline
   points="378.5,488.7 378.5,502.6 378.5,516   "
   class="st13"
   id="XMLID_143_"
   style="fill:none;stroke:#eae9da;stroke-width:2;stroke-linecap:round;stroke-linejoin:round;stroke-miterlimit:10" />

		<line
   y2="510.10001"
   x2="382.89999"
   y1="494.60001"
   x1="382.89999"
   class="st14"
   id="XMLID_166_"
   style="fill:none;stroke:#eae9da;stroke-linecap:round;stroke-linejoin:round;stroke-miterlimit:10" />

		<line
   y2="514.29999"
   x2="400.29999"
   y1="490.29999"
   x1="400.29999"
   class="st14"
   id="XMLID_146_"
   style="fill:none;stroke:#eae9da;stroke-linecap:round;stroke-linejoin:round;stroke-miterlimit:10" />

	</g>

	<g
   id="g1143">
		<path
   d="m 479.9,535.6 h -34 c -2.2,0 -4,-1.8 -4,-4 v -50 c 0,-2.2 1.8,-4 4,-4 h 34 c 2.2,0 4,1.8 4,4 v 50 c 0,2.2 -1.7,4 -4,4 z"
   class="st9"
   id="XMLID_178_"
   inkscape:connector-curvature="0"
   style="opacity:0.2;fill:#2c5871" />

		<g
   id="XMLID_55_">
			<g
   id="XMLID_68_">
				<line
   y2="526.59998"
   x2="441.89999"
   y1="526.59998"
   x1="435.89999"
   class="st10"
   id="XMLID_69_"
   style="fill:none;stroke:#eae9da;stroke-width:4;stroke-linecap:round;stroke-linejoin:round;stroke-miterlimit:10" />

			</g>

			<g
   id="XMLID_66_">
				<line
   y2="518.59998"
   x2="441.89999"
   y1="518.59998"
   x1="435.89999"
   class="st10"
   id="XMLID_67_"
   style="fill:none;stroke:#eae9da;stroke-width:4;stroke-linecap:round;stroke-linejoin:round;stroke-miterlimit:10" />

			</g>

			<g
   id="XMLID_64_">
				<line
   y2="510.60001"
   x2="441.89999"
   y1="510.60001"
   x1="435.89999"
   class="st10"
   id="XMLID_65_"
   style="fill:none;stroke:#eae9da;stroke-width:4;stroke-linecap:round;stroke-linejoin:round;stroke-miterlimit:10" />

			</g>

			<g
   id="XMLID_62_">
				<line
   y2="502.60001"
   x2="441.89999"
   y1="502.60001"
   x1="435.89999"
   class="st10"
   id="XMLID_63_"
   style="fill:none;stroke:#eae9da;stroke-width:4;stroke-linecap:round;stroke-linejoin:round;stroke-miterlimit:10" />

			</g>

			<g
   id="XMLID_60_">
				<line
   y2="494.60001"
   x2="441.89999"
   y1="494.60001"
   x1="435.89999"
   class="st10"
   id="XMLID_61_"
   style="fill:none;stroke:#eae9da;stroke-width:4;stroke-linecap:round;stroke-linejoin:round;stroke-miterlimit:10" />

			</g>

			<g
   id="XMLID_58_">
				<line
   y2="486.60001"
   x2="441.89999"
   y1="486.60001"
   x1="435.89999"
   class="st10"
   id="XMLID_59_"
   style="fill:none;stroke:#eae9da;stroke-width:4;stroke-linecap:round;stroke-linejoin:round;stroke-miterlimit:10" />

			</g>

			<g
   id="XMLID_56_">
				<line
   y2="478.60001"
   x2="441.89999"
   y1="478.60001"
   x1="435.89999"
   class="st10"
   id="XMLID_57_"
   style="fill:none;stroke:#eae9da;stroke-width:4;stroke-linecap:round;stroke-linejoin:round;stroke-miterlimit:10" />

			</g>

		</g>

		<g
   id="XMLID_40_">
			<g
   id="XMLID_53_">
				<line
   y2="526.59998"
   x2="489.89999"
   y1="526.59998"
   x1="483.89999"
   class="st10"
   id="XMLID_54_"
   style="fill:none;stroke:#eae9da;stroke-width:4;stroke-linecap:round;stroke-linejoin:round;stroke-miterlimit:10" />

			</g>

			<g
   id="XMLID_51_">
				<line
   y2="518.59998"
   x2="489.89999"
   y1="518.59998"
   x1="483.89999"
   class="st10"
   id="XMLID_52_"
   style="fill:none;stroke:#eae9da;stroke-width:4;stroke-linecap:round;stroke-linejoin:round;stroke-miterlimit:10" />

			</g>

			<g
   id="XMLID_49_">
				<line
   y2="510.60001"
   x2="489.89999"
   y1="510.60001"
   x1="483.89999"
   class="st10"
   id="XMLID_50_"
   style="fill:none;stroke:#eae9da;stroke-width:4;stroke-linecap:round;stroke-linejoin:round;stroke-miterlimit:10" />

			</g>

			<g
   id="XMLID_47_">
				<line
   y2="502.60001"
   x2="489.89999"
   y1="502.60001"
   x1="483.89999"
   class="st10"
   id="XMLID_48_"
   style="fill:none;stroke:#eae9da;stroke-width:4;stroke-linecap:round;stroke-linejoin:round;stroke-miterlimit:10" />

			</g>

			<g
   id="XMLID_45_">
				<line
   y2="494.60001"
   x2="489.89999"
   y1="494.60001"
   x1="483.89999"
   class="st10"
   id="XMLID_46_"
   style="fill:none;stroke:#eae9da;stroke-width:4;stroke-linecap:round;stroke-linejoin:round;stroke-miterlimit:10" />

			</g>

			<g
   id="XMLID_43_">
				<line
   y2="486.60001"
   x2="489.89999"
   y1="486.60001"
   x1="483.89999"
   class="st10"
   id="XMLID_44_"
   style="fill:none;stroke:#eae9da;stroke-width:4;stroke-linecap:round;stroke-linejoin:round;stroke-miterlimit:10" />

			</g>

			<g
   id="XMLID_41_">
				<line
   y2="478.60001"
   x2="489.89999"
   y1="478.60001"
   x1="483.89999"
   class="st10"
   id="XMLID_42_"
   style="fill:none;stroke:#eae9da;stroke-width:4;stroke-linecap:round;stroke-linejoin:round;stroke-miterlimit:10" />

			</g>

		</g>

		<path
   d="m 479.9,531.6 h -34 c -2.2,0 -4,-1.8 -4,-4 v -50 c 0,-2.2 1.8,-4 4,-4 h 34 c 2.2,0 4,1.8 4,4 v 50 c 0,2.2 -1.7,4 -4,4 z"
   class="st11"
   id="XMLID_70_"
   inkscape:connector-curvature="0"
   style="fill:#2c5871" />

		<path
   d="m 445.9,525.9 v -46.6 c 0,-1 0.8,-1.7 1.7,-1.7 h 30.6 c 1,0 1.7,0.8 1.7,1.7 v 46.6 c 0,1 -0.8,1.7 -1.7,1.7 h -30.6 c -0.9,0 -1.7,-0.8 -1.7,-1.7 z"
   class="st12"
   id="XMLID_148_"
   inkscape:connector-curvature="0"
   style="fill:#3d6d82" />

		<polyline
   points="452.6,488.7 452.6,502.6 452.6,516   "
   class="st13"
   id="XMLID_186_"
   style="fill:none;stroke:#eae9da;stroke-width:2;stroke-linecap:round;stroke-linejoin:round;stroke-miterlimit:10" />

		<line
   y2="510.10001"
   x2="457.10001"
   y1="494.60001"
   x1="457.10001"
   class="st14"
   id="XMLID_177_"
   style="fill:none;stroke:#eae9da;stroke-linecap:round;stroke-linejoin:round;stroke-miterlimit:10" />

		<line
   y2="514.29999"
   x2="474.39999"
   y1="490.29999"
   x1="474.39999"
   class="st14"
   id="XMLID_6_"
   style="fill:none;stroke:#eae9da;stroke-linecap:round;stroke-linejoin:round;stroke-miterlimit:10" />

	</g>

	<g
   id="g1181">
		<path
   d="m 554.1,535.6 h -34 c -2.2,0 -4,-1.8 -4,-4 v -50 c 0,-2.2 1.8,-4 4,-4 h 34 c 2.2,0 4,1.8 4,4 v 50 c 0,2.2 -1.8,4 -4,4 z"
   class="st9"
   id="XMLID_175_"
   inkscape:connector-curvature="0"
   style="opacity:0.2;fill:#2c5871" />

		<g
   id="XMLID_87_">
			<g
   id="XMLID_100_">
				<line
   y2="526.59998"
   x2="516.09998"
   y1="526.59998"
   x1="510.10001"
   class="st10"
   id="XMLID_101_"
   style="fill:none;stroke:#eae9da;stroke-width:4;stroke-linecap:round;stroke-linejoin:round;stroke-miterlimit:10" />

			</g>

			<g
   id="XMLID_98_">
				<line
   y2="518.59998"
   x2="516.09998"
   y1="518.59998"
   x1="510.10001"
   class="st10"
   id="XMLID_99_"
   style="fill:none;stroke:#eae9da;stroke-width:4;stroke-linecap:round;stroke-linejoin:round;stroke-miterlimit:10" />

			</g>

			<g
   id="XMLID_96_">
				<line
   y2="510.60001"
   x2="516.09998"
   y1="510.60001"
   x1="510.10001"
   class="st10"
   id="XMLID_97_"
   style="fill:none;stroke:#eae9da;stroke-width:4;stroke-linecap:round;stroke-linejoin:round;stroke-miterlimit:10" />

			</g>

			<g
   id="XMLID_94_">
				<line
   y2="502.60001"
   x2="516.09998"
   y1="502.60001"
   x1="510.10001"
   class="st10"
   id="XMLID_95_"
   style="fill:none;stroke:#eae9da;stroke-width:4;stroke-linecap:round;stroke-linejoin:round;stroke-miterlimit:10" />

			</g>

			<g
   id="XMLID_92_">
				<line
   y2="494.60001"
   x2="516.09998"
   y1="494.60001"
   x1="510.10001"
   class="st10"
   id="XMLID_93_"
   style="fill:none;stroke:#eae9da;stroke-width:4;stroke-linecap:round;stroke-linejoin:round;stroke-miterlimit:10" />

			</g>

			<g
   id="XMLID_90_">
				<line
   y2="486.60001"
   x2="516.09998"
   y1="486.60001"
   x1="510.10001"
   class="st10"
   id="XMLID_91_"
   style="fill:none;stroke:#eae9da;stroke-width:4;stroke-linecap:round;stroke-linejoin:round;stroke-miterlimit:10" />

			</g>

			<g
   id="XMLID_88_">
				<line
   y2="478.60001"
   x2="516.09998"
   y1="478.60001"
   x1="510.10001"
   class="st10"
   id="XMLID_89_"
   style="fill:none;stroke:#eae9da;stroke-width:4;stroke-linecap:round;stroke-linejoin:round;stroke-miterlimit:10" />

			</g>

		</g>

		<g
   id="XMLID_72_">
			<g
   id="XMLID_85_">
				<line
   y2="526.59998"
   x2="564.09998"
   y1="526.59998"
   x1="558.09998"
   class="st10"
   id="XMLID_86_"
   style="fill:none;stroke:#eae9da;stroke-width:4;stroke-linecap:round;stroke-linejoin:round;stroke-miterlimit:10" />

			</g>

			<g
   id="XMLID_83_">
				<line
   y2="518.59998"
   x2="564.09998"
   y1="518.59998"
   x1="558.09998"
   class="st10"
   id="XMLID_84_"
   style="fill:none;stroke:#eae9da;stroke-width:4;stroke-linecap:round;stroke-linejoin:round;stroke-miterlimit:10" />

			</g>

			<g
   id="XMLID_81_">
				<line
   y2="510.60001"
   x2="564.09998"
   y1="510.60001"
   x1="558.09998"
   class="st10"
   id="XMLID_82_"
   style="fill:none;stroke:#eae9da;stroke-width:4;stroke-linecap:round;stroke-linejoin:round;stroke-miterlimit:10" />

			</g>

			<g
   id="XMLID_79_">
				<line
   y2="502.60001"
   x2="564.09998"
   y1="502.60001"
   x1="558.09998"
   class="st10"
   id="XMLID_80_"
   style="fill:none;stroke:#eae9da;stroke-width:4;stroke-linecap:round;stroke-linejoin:round;stroke-miterlimit:10" />

			</g>

			<g
   id="XMLID_77_">
				<line
   y2="494.60001"
   x2="564.09998"
   y1="494.60001"
   x1="558.09998"
   class="st10"
   id="XMLID_78_"
   style="fill:none;stroke:#eae9da;stroke-width:4;stroke-linecap:round;stroke-linejoin:round;stroke-miterlimit:10" />

			</g>

			<g
   id="XMLID_75_">
				<line
   y2="486.60001"
   x2="564.09998"
   y1="486.60001"
   x1="558.09998"
   class="st10"
   id="XMLID_76_"
   style="fill:none;stroke:#eae9da;stroke-width:4;stroke-linecap:round;stroke-linejoin:round;stroke-miterlimit:10" />

			</g>

			<g
   id="XMLID_73_">
				<line
   y2="478.60001"
   x2="564.09998"
   y1="478.60001"
   x1="558.09998"
   class="st10"
   id="XMLID_74_"
   style="fill:none;stroke:#eae9da;stroke-width:4;stroke-linecap:round;stroke-linejoin:round;stroke-miterlimit:10" />

			</g>

		</g>

		<path
   d="m 554.1,531.6 h -34 c -2.2,0 -4,-1.8 -4,-4 v -50 c 0,-2.2 1.8,-4 4,-4 h 34 c 2.2,0 4,1.8 4,4 v 50 c 0,2.2 -1.8,4 -4,4 z"
   class="st11"
   id="XMLID_102_"
   inkscape:connector-curvature="0"
   style="fill:#2c5871" />

		<path
   d="m 520.1,525.9 v -46.6 c 0,-1 0.8,-1.7 1.7,-1.7 h 30.6 c 1,0 1.7,0.8 1.7,1.7 v 46.6 c 0,1 -0.8,1.7 -1.7,1.7 h -30.6 c -1,0 -1.7,-0.8 -1.7,-1.7 z"
   class="st12"
   id="XMLID_147_"
   inkscape:connector-curvature="0"
   style="fill:#3d6d82" />

		<polyline
   points="526.8,488.7 526.8,502.6 526.8,516   "
   class="st13"
   id="XMLID_200_"
   style="fill:none;stroke:#eae9da;stroke-width:2;stroke-linecap:round;stroke-linejoin:round;stroke-miterlimit:10" />

		<line
   y2="510.10001"
   x2="531.20001"
   y1="494.60001"
   x1="531.20001"
   class="st14"
   id="XMLID_198_"
   style="fill:none;stroke:#eae9da;stroke-linecap:round;stroke-linejoin:round;stroke-miterlimit:10" />

		<line
   y2="514.29999"
   x2="548.59998"
   y1="490.29999"
   x1="548.59998"
   class="st14"
   id="XMLID_3_"
   style="fill:none;stroke:#eae9da;stroke-linecap:round;stroke-linejoin:round;stroke-miterlimit:10" />

	</g>

	<g
   id="g1219">
		<path
   d="m 628.2,535.6 h -34 c -2.2,0 -4,-1.8 -4,-4 v -50 c 0,-2.2 1.8,-4 4,-4 h 34 c 2.2,0 4,1.8 4,4 v 50 c 0,2.2 -1.8,4 -4,4 z"
   class="st9"
   id="XMLID_151_"
   inkscape:connector-curvature="0"
   style="opacity:0.2;fill:#2c5871" />

		<g
   id="XMLID_119_">
			<g
   id="XMLID_132_">
				<line
   y2="526.59998"
   x2="590.20001"
   y1="526.59998"
   x1="584.20001"
   class="st10"
   id="XMLID_133_"
   style="fill:none;stroke:#eae9da;stroke-width:4;stroke-linecap:round;stroke-linejoin:round;stroke-miterlimit:10" />

			</g>

			<g
   id="XMLID_130_">
				<line
   y2="518.59998"
   x2="590.20001"
   y1="518.59998"
   x1="584.20001"
   class="st10"
   id="XMLID_131_"
   style="fill:none;stroke:#eae9da;stroke-width:4;stroke-linecap:round;stroke-linejoin:round;stroke-miterlimit:10" />

			</g>

			<g
   id="XMLID_128_">
				<line
   y2="510.60001"
   x2="590.20001"
   y1="510.60001"
   x1="584.20001"
   class="st10"
   id="XMLID_129_"
   style="fill:none;stroke:#eae9da;stroke-width:4;stroke-linecap:round;stroke-linejoin:round;stroke-miterlimit:10" />

			</g>

			<g
   id="XMLID_126_">
				<line
   y2="502.60001"
   x2="590.20001"
   y1="502.60001"
   x1="584.20001"
   class="st10"
   id="XMLID_127_"
   style="fill:none;stroke:#eae9da;stroke-width:4;stroke-linecap:round;stroke-linejoin:round;stroke-miterlimit:10" />

			</g>

			<g
   id="XMLID_124_">
				<line
   y2="494.60001"
   x2="590.20001"
   y1="494.60001"
   x1="584.20001"
   class="st10"
   id="XMLID_125_"
   style="fill:none;stroke:#eae9da;stroke-width:4;stroke-linecap:round;stroke-linejoin:round;stroke-miterlimit:10" />

			</g>

			<g
   id="XMLID_122_">
				<line
   y2="486.60001"
   x2="590.20001"
   y1="486.60001"
   x1="584.20001"
   class="st10"
   id="XMLID_123_"
   style="fill:none;stroke:#eae9da;stroke-width:4;stroke-linecap:round;stroke-linejoin:round;stroke-miterlimit:10" />

			</g>

			<g
   id="XMLID_120_">
				<line
   y2="478.60001"
   x2="590.20001"
   y1="478.60001"
   x1="584.20001"
   class="st10"
   id="XMLID_121_"
   style="fill:none;stroke:#eae9da;stroke-width:4;stroke-linecap:round;stroke-linejoin:round;stroke-miterlimit:10" />

			</g>

		</g>

		<g
   id="XMLID_104_">
			<g
   id="XMLID_117_">
				<line
   y2="526.59998"
   x2="638.20001"
   y1="526.59998"
   x1="632.20001"
   class="st10"
   id="XMLID_118_"
   style="fill:none;stroke:#eae9da;stroke-width:4;stroke-linecap:round;stroke-linejoin:round;stroke-miterlimit:10" />

			</g>

			<g
   id="XMLID_115_">
				<line
   y2="518.59998"
   x2="638.20001"
   y1="518.59998"
   x1="632.20001"
   class="st10"
   id="XMLID_116_"
   style="fill:none;stroke:#eae9da;stroke-width:4;stroke-linecap:round;stroke-linejoin:round;stroke-miterlimit:10" />

			</g>

			<g
   id="XMLID_113_">
				<line
   y2="510.60001"
   x2="638.20001"
   y1="510.60001"
   x1="632.20001"
   class="st10"
   id="XMLID_114_"
   style="fill:none;stroke:#eae9da;stroke-width:4;stroke-linecap:round;stroke-linejoin:round;stroke-miterlimit:10" />

			</g>

			<g
   id="XMLID_111_">
				<line
   y2="502.60001"
   x2="638.20001"
   y1="502.60001"
   x1="632.20001"
   class="st10"
   id="XMLID_112_"
   style="fill:none;stroke:#eae9da;stroke-width:4;stroke-linecap:round;stroke-linejoin:round;stroke-miterlimit:10" />

			</g>

			<g
   id="XMLID_109_">
				<line
   y2="494.60001"
   x2="638.20001"
   y1="494.60001"
   x1="632.20001"
   class="st10"
   id="XMLID_110_"
   style="fill:none;stroke:#eae9da;stroke-width:4;stroke-linecap:round;stroke-linejoin:round;stroke-miterlimit:10" />

			</g>

			<g
   id="XMLID_107_">
				<line
   y2="486.60001"
   x2="638.20001"
   y1="486.60001"
   x1="632.20001"
   class="st10"
   id="XMLID_108_"
   style="fill:none;stroke:#eae9da;stroke-width:4;stroke-linecap:round;stroke-linejoin:round;stroke-miterlimit:10" />

			</g>

			<g
   id="XMLID_105_">
				<line
   y2="478.60001"
   x2="638.20001"
   y1="478.60001"
   x1="632.20001"
   class="st10"
   id="XMLID_106_"
   style="fill:none;stroke:#eae9da;stroke-width:4;stroke-linecap:round;stroke-linejoin:round;stroke-miterlimit:10" />

			</g>

		</g>

		<path
   d="m 628.2,531.6 h -34 c -2.2,0 -4,-1.8 -4,-4 v -50 c 0,-2.2 1.8,-4 4,-4 h 34 c 2.2,0 4,1.8 4,4 v 50 c 0,2.2 -1.8,4 -4,4 z"
   class="st11"
   id="XMLID_134_"
   inkscape:connector-curvature="0"
   style="fill:#2c5871" />

		<path
   d="m 594.2,525.9 v -46.6 c 0,-1 0.8,-1.7 1.7,-1.7 h 30.6 c 1,0 1.7,0.8 1.7,1.7 v 46.6 c 0,1 -0.8,1.7 -1.7,1.7 h -30.6 c -1,0 -1.7,-0.8 -1.7,-1.7 z"
   class="st12"
   id="XMLID_145_"
   inkscape:connector-curvature="0"
   style="fill:#3d6d82" />

		<polyline
   points="600.9,488.7 600.9,502.6 600.9,516   "
   class="st13"
   id="XMLID_203_"
   style="fill:none;stroke:#eae9da;stroke-width:2;stroke-linecap:round;stroke-linejoin:round;stroke-miterlimit:10" />

		<line
   y2="510.10001"
   x2="605.29999"
   y1="494.60001"
   x1="605.29999"
   class="st14"
   id="XMLID_202_"
   style="fill:none;stroke:#eae9da;stroke-linecap:round;stroke-linejoin:round;stroke-miterlimit:10" />

		<line
   y2="514.29999"
   x2="622.70001"
   y1="490.29999"
   x1="622.70001"
   class="st14"
   id="XMLID_2_"
   style="fill:none;stroke:#eae9da;stroke-linecap:round;stroke-linejoin:round;stroke-miterlimit:10" />

	</g>

</g>
    </g>
  </g>
  <style
     id="style815"
     type="text/css">
	.st0{fill:#6B5465;}
	.st1{fill:#EEF2F4;}
	.st2{opacity:0.31;fill:#353535;stroke:#353535;stroke-width:6;stroke-linecap:round;stroke-linejoin:round;stroke-miterlimit:10;}
	.st3{fill:#14B0BF;}
	.st4{fill:#24C1C9;}
	.st5{fill:#353535;}
	.st6{fill:none;stroke:#353535;stroke-width:7;stroke-linecap:round;stroke-linejoin:round;stroke-miterlimit:10;}
	.st7{fill:none;stroke:#194254;stroke-width:6;stroke-linecap:round;stroke-linejoin:round;stroke-miterlimit:10;}
	.st8{fill:#FCE18D;}
	.st9{opacity:0.2;fill:#2C5871;}
	.st10{fill:none;stroke:#EAE9DA;stroke-width:4;stroke-linecap:round;stroke-linejoin:round;stroke-miterlimit:10;}
	.st11{fill:#2C5871;}
	.st12{fill:#3D6D82;}
	.st13{fill:none;stroke:#EAE9DA;stroke-width:2;stroke-linecap:round;stroke-linejoin:round;stroke-miterlimit:10;}
	.st14{fill:none;stroke:#EAE9DA;stroke-linecap:round;stroke-linejoin:round;stroke-miterlimit:10;}
</style>
</svg>
