<?xml version="1.0" encoding="UTF-8" standalone="no"?>
<!-- Created with Inkscape (http://www.inkscape.org/) -->

<svg
   xmlns:dc="http://purl.org/dc/elements/1.1/"
   xmlns:cc="http://creativecommons.org/ns#"
   xmlns:rdf="http://www.w3.org/1999/02/22-rdf-syntax-ns#"
   xmlns:svg="http://www.w3.org/2000/svg"
   xmlns="http://www.w3.org/2000/svg"
   xmlns:sodipodi="http://sodipodi.sourceforge.net/DTD/sodipodi-0.dtd"
   xmlns:inkscape="http://www.inkscape.org/namespaces/inkscape"
   width="750"
   height="400"
   viewBox="0 0 198.4375 105.83334"
   version="1.1"
   id="svg1982"
   inkscape:version="0.92.4 (5da689c313, 2019-01-14)"
   sodipodi:docname="feature-intuitive-api.svg">
  <defs
     id="defs1976" />
  <sodipodi:namedview
     id="base"
     pagecolor="#ffffff"
     bordercolor="#666666"
     borderopacity="1.0"
     inkscape:pageopacity="0.0"
     inkscape:pageshadow="2"
     inkscape:zoom="0.98994949"
     inkscape:cx="323.44723"
     inkscape:cy="219.44594"
     inkscape:document-units="px"
     inkscape:current-layer="XMLID_160_"
     showgrid="false"
     units="px"
     inkscape:window-width="1920"
     inkscape:window-height="1017"
     inkscape:window-x="1358"
     inkscape:window-y="-8"
     inkscape:window-maximized="1" />
  <metadata
     id="metadata1979">
    <rdf:RDF>
      <cc:Work
         rdf:about="">
        <dc:format>image/svg+xml</dc:format>
        <dc:type
           rdf:resource="http://purl.org/dc/dcmitype/StillImage" />
        <dc:title></dc:title>
      </cc:Work>
    </rdf:RDF>
  </metadata>
  <g
     inkscape:label="Layer 1"
     inkscape:groupmode="layer"
     id="layer1"
     transform="translate(0,-191.16665)">
    <g
       id="g2593"
       transform="matrix(0.26458333,0,0,0.26458333,36.663692,-5.3809508)">
      <g
         id="XMLID_34_"
         transform="matrix(1.0026633,0,0,1.0026633,-299.19808,474.56224)">
	<path
   d="M 789.5,666.3 H 169.2 c -5,0 -9,-4 -9,-9 v 0 c 0,-5 4,-9 9,-9 h 620.3 c 5,0 9,4 9,9 v 0 c 0,5 -4,9 -9,9 z"
   class="st2"
   id="XMLID_223_"
   inkscape:connector-curvature="0"
   style="fill:#c9c9c9" />

	<g
   id="XMLID_19_">
		<g
   id="XMLID_163_"
   transform="matrix(1.2736385,0,0,1.2736385,-71.856946,-169.89565)">
			<path
   d="m 285.9,573.3 c -9.6,0 -17.3,-7.8 -17.3,-17.3 0,-9.5 7.8,-17.3 17.3,-17.3 h 98 v 34.7 h -98 z"
   class="st3"
   id="XMLID_178_"
   inkscape:connector-curvature="0"
   style="fill:#cecece" />

			<path
   d="M 389.6,579.3 H 285.9 c -12.9,0 -23.3,-10.5 -23.3,-23.3 v 0 c 0,-12.9 10.5,-23.3 23.3,-23.3 h 103.7 z"
   class="st4"
   id="XMLID_162_"
   inkscape:connector-curvature="0"
   style="fill:#ffffff" />

			<line
   y2="550.59998"
   x2="383.89999"
   y1="550.59998"
   x1="279.5"
   class="st5"
   id="XMLID_164_"
   style="fill:none;stroke:#1f3969;stroke-width:4;stroke-linecap:round;stroke-linejoin:round;stroke-miterlimit:10" />

			<line
   y2="561.20001"
   x2="383.89999"
   y1="561.20001"
   x1="279.5"
   class="st5"
   id="XMLID_173_"
   style="fill:none;stroke:#1f3969;stroke-width:4;stroke-linecap:round;stroke-linejoin:round;stroke-miterlimit:10" />

			<path
   d="m 285.9,573.3 c -9.6,0 -17.3,-7.8 -17.3,-17.3 0,-9.5 7.8,-17.3 17.3,-17.3 h 98 v 34.7 h -98 z"
   class="st5"
   id="XMLID_179_"
   inkscape:connector-curvature="0"
   style="fill:none;stroke:#1f3969;stroke-width:4;stroke-linecap:round;stroke-linejoin:round;stroke-miterlimit:10" />

			<path
   d="m 285.9,573.3 c -9.6,0 -17.3,-7.8 -17.3,-17.3 0,-9.5 7.8,-17.3 17.3,-17.3 h 99.7 l 4,-6 H 285.9 c -12.9,0 -23.3,10.5 -23.3,23.3 v 0 c 0,12.9 10.5,23.3 23.3,23.3 h 103.7 l -4,-6 z"
   class="st6"
   id="XMLID_161_"
   inkscape:connector-curvature="0"
   style="fill:#ff3e3e" />

			<path
   d="m 285.9,573.3 c -9.6,0 -17.3,-7.8 -17.3,-17.3 0,-9.5 7.8,-17.3 17.3,-17.3 h 99.7 l 4,-6 H 285.9 c -12.9,0 -23.3,10.5 -23.3,23.3 v 0 c 0,12.9 10.5,23.3 23.3,23.3 h 103.7 l -4,-6 z"
   class="st5"
   id="XMLID_182_"
   inkscape:connector-curvature="0"
   style="fill:none;stroke:#1f3969;stroke-width:4;stroke-linecap:round;stroke-linejoin:round;stroke-miterlimit:10" />

			<rect
   height="46.700001"
   width="18.4"
   class="st7"
   y="532.59998"
   x="348.89999"
   id="XMLID_224_"
   style="opacity:0.28000004;fill:#1f3969;stroke:#1f3969;stroke-width:4;stroke-linecap:round;stroke-linejoin:round;stroke-miterlimit:10" />

		</g>

		<g
   id="XMLID_160_">
			<path
   d="M 410.72464,616.95814 H 168.86071 c -4.71247,0 -8.66073,-3.82089 -8.66073,-8.66074 v -31.84095 c 0,-4.71246 3.82094,-8.66075 8.66073,-8.66075 h 241.86393 c 4.71246,0 8.66073,3.82092 8.66073,8.66075 v 31.84095 c 0,4.83985 -3.8209,8.66074 -8.66073,8.66074 z"
   class="st8"
   id="XMLID_157_"
   inkscape:connector-curvature="0"
   style="fill:#50b56f;stroke-width:1.27363837" />

			
			<path
   d="M 380.4646,623.45832 H 169.95075 c -4.10165,0 -7.53814,-3.32563 -7.53814,-7.53815 v -27.71376 c 0,-4.10164 3.32567,-7.53816 7.53814,-7.53816 H 380.4646 c 4.10164,0 7.53814,3.32566 7.53814,7.53816 v 27.71376 c 0,4.21252 -3.32565,7.53815 -7.53814,7.53815 z"
   class="st5"
   id="XMLID_146_"
   inkscape:connector-curvature="0"
   style="fill:none;stroke:#1f3969;stroke-width:4.4342041;stroke-linecap:round;stroke-linejoin:round;stroke-miterlimit:10" />

		<text
   xml:space="preserve"
   style="font-style:normal;font-weight:normal;font-size:23.71143341px;line-height:1.25;font-family:sans-serif;letter-spacing:0px;word-spacing:0px;fill:#ffffff;fill-opacity:1;stroke:none;stroke-width:1.27025533"
   x="232.92226"
   y="600.9967"
   id="text2597"><tspan
     sodipodi:role="line"
     id="tspan2595"
     x="232.92226"
     y="600.9967"
     style="font-size:23.71143341px;fill:#ffffff;stroke-width:1.27025533">ARDUINO</tspan></text>
</g>

		<path
   d="M 410.72464,567.92307 H 372.5155 v 19.10459 c 0,11.97219 9.67966,21.77919 21.77921,21.77919 h 25.09066 c 0,-0.12735 0,-0.2547 0,-0.38208 v -31.84096 c 0,-4.83982 -3.8209,-8.66074 -8.66073,-8.66074 z"
   class="st7"
   id="XMLID_246_"
   inkscape:connector-curvature="0"
   style="opacity:0.28000004;fill:#1f3969;stroke:#1f3969;stroke-width:5.09455347;stroke-linecap:round;stroke-linejoin:round;stroke-miterlimit:10" />

		<path
   d="M 478.86431,626.89252 H 198.66386 c 1.65573,4.07566 2.54728,9.17019 2.54728,14.51946 0,5.34928 -0.89155,10.31648 -2.54728,14.51949 h 280.07308 c -1.65574,-4.07563 -2.54729,-9.17021 -2.54729,-14.51949 0.12738,-5.4766 1.01892,-10.4438 2.67466,-14.51946 z"
   class="st3"
   id="XMLID_35_"
   inkscape:connector-curvature="0"
   style="fill:#cecece;stroke-width:1.27363837" />

		<rect
   height="7.6418304"
   width="295.35678"
   class="st9"
   y="619.12329"
   x="191.1494"
   id="XMLID_156_"
   style="fill:#5f5aff;stroke-width:1.27363837" />

		<rect
   height="7.6418304"
   width="295.35678"
   class="st5"
   y="619.12329"
   x="191.1494"
   id="XMLID_32_"
   style="fill:none;stroke:#1f3969;stroke-width:5.09455347;stroke-linecap:round;stroke-linejoin:round;stroke-miterlimit:10" />

		<rect
   height="7.6418304"
   width="295.35678"
   class="st10"
   y="655.80408"
   x="191.1494"
   id="XMLID_147_"
   style="fill:#f6f9fd;stroke-width:1.27363837" />

		<rect
   height="7.6418304"
   width="295.35678"
   class="st9"
   y="655.80408"
   x="191.1494"
   id="XMLID_39_"
   style="fill:#5f5aff;stroke-width:1.27363837" />

		<rect
   height="7.6418304"
   width="295.35678"
   class="st5"
   y="655.80408"
   x="191.1494"
   id="XMLID_37_"
   style="fill:none;stroke:#1f3969;stroke-width:5.09455347;stroke-linecap:round;stroke-linejoin:round;stroke-miterlimit:10" />

		<path
   d="m 633.22928,636.31747 -3.82093,-42.92163 h -62.91774 l -3.8209,42.92163 c -0.89154,9.93438 -6.87766,19.48668 -16.30258,27.12848 v 0.12738 h 103.16471 v -0.12738 c -9.42494,-7.6418 -15.41103,-17.1941 -16.30256,-27.12848 z"
   class="st11"
   id="XMLID_69_"
   inkscape:connector-curvature="0"
   style="fill:#bfcfe2;stroke-width:1.27363837" />

		<polygon
   points="550.6,599.3 501.2,599.3 499.4,619.5 552.4,619.5 "
   class="st7"
   id="XMLID_33_"
   style="opacity:0.28000004;fill:#1f3969;stroke:#1f3969;stroke-width:4;stroke-linecap:round;stroke-linejoin:round;stroke-miterlimit:10"
   transform="matrix(1.2736385,0,0,1.2736385,-71.856946,-169.89565)" />

		<path
   d="m 633.22928,636.31747 -3.82093,-42.92163 h -62.91774 l -3.8209,42.92163 c -0.89154,9.93438 -6.87766,19.48668 -16.30258,27.12848 v 0.12738 h 103.16471 v -0.12738 c -9.42494,-7.6418 -15.41103,-17.1941 -16.30256,-27.12848 z"
   class="st5"
   id="XMLID_10_"
   inkscape:connector-curvature="0"
   style="fill:none;stroke:#1f3969;stroke-width:5.09455347;stroke-linecap:round;stroke-linejoin:round;stroke-miterlimit:10" />

		<path
   d="M 799.18435,599.76403 H 396.71461 c -8.406,0 -15.28366,-6.87764 -15.28366,-15.28366 V 322.11086 c 0,-8.40601 6.87766,-15.28365 15.28366,-15.28365 h 402.46974 c 8.40603,0 15.28366,6.87764 15.28366,15.28365 v 262.36951 c 0,8.53337 -6.87763,15.28366 -15.28366,15.28366 z"
   class="st4"
   id="XMLID_13_"
   inkscape:connector-curvature="0"
   style="fill:#ffffff;stroke-width:1.27363837" />

		<path
   d="M 799.18435,599.76403 H 396.71461 c -8.406,0 -15.28366,-6.87764 -15.28366,-15.28366 V 322.11086 c 0,-8.40601 6.87766,-15.28365 15.28366,-15.28365 h 402.46974 c 8.40603,0 15.28366,6.87764 15.28366,15.28365 v 262.36951 c 0,8.53337 -6.87763,15.28366 -15.28366,15.28366 z"
   class="st11"
   id="XMLID_63_"
   inkscape:connector-curvature="0"
   style="fill:#bfcfe2;stroke-width:1.27363837" />

		<path
   d="M 799.18435,599.76403 H 396.71461 c -8.406,0 -15.28366,-6.87764 -15.28366,-15.28366 V 322.11086 c 0,-8.40601 6.87766,-15.28365 15.28366,-15.28365 h 402.46974 c 8.40603,0 15.28366,6.87764 15.28366,15.28365 v 262.36951 c 0,8.53337 -6.87763,15.28366 -15.28366,15.28366 z"
   class="st5"
   id="XMLID_4_"
   inkscape:connector-curvature="0"
   style="fill:none;stroke:#1f3969;stroke-width:5.09455347;stroke-linecap:round;stroke-linejoin:round;stroke-miterlimit:10" />

		
			<rect
   height="389.73334"
   width="222.37727"
   class="st10"
   transform="rotate(90)"
   y="-792.88696"
   x="328.51483"
   id="XMLID_68_"
   style="fill:#f6f9fd;stroke-width:1.27363837" />

		<path
   d="m 417.09283,306.82721 v 176.52627 c 0,5.60401 4.58511,10.18911 10.1891,10.18911 h 240.84503 c 5.60401,0 10.18911,-4.5851 10.18911,-10.18911 V 306.82721 Z"
   class="st7"
   id="XMLID_197_"
   inkscape:connector-curvature="0"
   style="opacity:0.28000004;fill:#1f3969;stroke:#1f3969;stroke-width:5.09455347;stroke-linecap:round;stroke-linejoin:round;stroke-miterlimit:10" />

		
			<rect
   height="389.73334"
   width="222.37727"
   class="st5"
   transform="rotate(90)"
   y="-792.88696"
   x="328.51483"
   id="XMLID_11_"
   style="fill:none;stroke:#1f3969;stroke-width:5.09455347;stroke-linecap:round;stroke-linejoin:round;stroke-miterlimit:10" />

		<line
   y2="575.18286"
   x2="615.14362"
   y1="575.18286"
   x1="580.88275"
   class="st5"
   id="XMLID_9_"
   style="fill:none;stroke:#1f3969;stroke-width:5.09455347;stroke-linecap:round;stroke-linejoin:round;stroke-miterlimit:10" />

		<path
   d="M 679.5897,479.53256 H 438.74469 c -5.60402,0 -10.18911,-4.5851 -10.18911,-10.1891 V 280.59025 c 0,-5.60399 4.58509,-10.18911 10.18911,-10.18911 H 679.5897 c 5.60403,0 10.18913,4.58512 10.18913,10.18911 v 188.88057 c 0,5.604 -4.5851,10.06174 -10.18913,10.06174 z"
   class="st1"
   id="XMLID_15_"
   inkscape:connector-curvature="0"
   style="fill:#2d425e;stroke-width:1.27363837" />

		<path
   d="M 689.77883,295.10973 H 428.55558 v -14.64685 c 0,-5.604 4.58509,-10.18909 10.18911,-10.18909 H 679.5897 c 5.60403,0 10.18913,4.58509 10.18913,10.18909 z"
   class="st5"
   id="XMLID_17_"
   inkscape:connector-curvature="0"
   style="fill:none;stroke:#1f3969;stroke-width:5.09455347;stroke-linecap:round;stroke-linejoin:round;stroke-miterlimit:10" />

		<path
   d="M 689.77883,299.94954 H 428.55558 v -19.48666 c 0,-5.604 4.58509,-10.18909 10.18911,-10.18909 H 679.5897 c 5.60403,0 10.18913,4.58509 10.18913,10.18909 z"
   class="st12"
   id="XMLID_23_"
   inkscape:connector-curvature="0"
   style="fill:#d0ddf0;stroke-width:1.27363837" />

		<path
   d="M 689.77883,299.94954 H 428.55558 v -19.48666 c 0,-5.604 4.58509,-10.18909 10.18911,-10.18909 H 679.5897 c 5.60403,0 10.18913,4.58509 10.18913,10.18909 z"
   class="st5"
   id="XMLID_18_"
   inkscape:connector-curvature="0"
   style="fill:none;stroke:#1f3969;stroke-width:5.09455347;stroke-linecap:round;stroke-linejoin:round;stroke-miterlimit:10" />

		<path
   d="M 689.77883,299.94954 H 428.55558 v -19.48666 c 0,-5.604 4.58509,-10.18909 10.18911,-10.18909 H 679.5897 c 5.60403,0 10.18913,4.58509 10.18913,10.18909 z"
   class="st5"
   id="XMLID_20_"
   inkscape:connector-curvature="0"
   style="fill:none;stroke:#1f3969;stroke-width:5.09455347;stroke-linecap:round;stroke-linejoin:round;stroke-miterlimit:10" />

		<path
   d="M 679.5897,479.53256 H 438.74469 c -5.60402,0 -10.18911,-4.5851 -10.18911,-10.1891 V 280.59025 c 0,-5.60399 4.58509,-10.18911 10.18911,-10.18911 H 679.5897 c 5.60403,0 10.18913,4.58512 10.18913,10.18911 v 188.88057 c 0,5.604 -4.5851,10.06174 -10.18913,10.06174 z"
   class="st5"
   id="XMLID_12_"
   inkscape:connector-curvature="0"
   style="fill:none;stroke:#1f3969;stroke-width:5.09455347;stroke-linecap:round;stroke-linejoin:round;stroke-miterlimit:10" />

		<g
   id="XMLID_72_"
   transform="matrix(1.2736385,0,0,1.2736385,-71.856946,-169.89565)">
			<path
   d="m 688.7,545.3 h -116 c -4.4,0 -8,-3.6 -8,-8 V 414.4 c 0,-4.4 3.6,-8 8,-8 h 116 c 4.4,0 8,3.6 8,8 v 122.9 c 0,4.5 -3.6,8 -8,8 z"
   class="st7"
   id="XMLID_7_"
   inkscape:connector-curvature="0"
   style="opacity:0.28000004;fill:#1f3969;stroke:#1f3969;stroke-width:4;stroke-linecap:round;stroke-linejoin:round;stroke-miterlimit:10" />

			<path
   d="m 696.7,538.3 h -116 c -4.4,0 -8,-3.6 -8,-8 V 407.4 c 0,-4.4 3.6,-8 8,-8 h 116 c 4.4,0 8,3.6 8,8 v 122.9 c 0,4.5 -3.6,8 -8,8 z"
   class="st13"
   id="XMLID_16_"
   inkscape:connector-curvature="0"
   style="fill:#2aa1ff" />

			<path
   d="m 696.7,538.3 h -116 c -4.4,0 -8,-3.6 -8,-8 V 407.4 c 0,-4.4 3.6,-8 8,-8 h 116 c 4.4,0 8,3.6 8,8 v 122.9 c 0,4.5 -3.6,8 -8,8 z"
   class="st5"
   id="XMLID_14_"
   inkscape:connector-curvature="0"
   style="fill:none;stroke:#1f3969;stroke-width:4;stroke-linecap:round;stroke-linejoin:round;stroke-miterlimit:10" />

			<path
   d="m 679.4,437.5 h -81.6 c -2.9,0 -5.2,-2.3 -5.2,-5.2 v -7.8 c 0,-2.9 2.3,-5.2 5.2,-5.2 h 81.6 c 2.9,0 5.2,2.3 5.2,5.2 v 7.8 c 0,2.9 -2.3,5.2 -5.2,5.2 z"
   class="st14"
   id="XMLID_75_"
   inkscape:connector-curvature="0"
   style="opacity:0.34000017;fill:none;stroke:#ffffff;stroke-width:2;stroke-linecap:round;stroke-linejoin:round;stroke-miterlimit:10" />

			<g
   class="st15"
   id="XMLID_143_"
   style="opacity:0.34000017">
				<path
   d="M 643.6,466.8 H 598 c -2.9,0 -5.2,-2.3 -5.2,-5.2 v -7.8 c 0,-2.9 2.3,-5.2 5.2,-5.2 h 45.6 c 2.9,0 5.2,2.3 5.2,5.2 v 7.8 c -0.1,2.9 -2.4,5.2 -5.2,5.2 z"
   class="st16"
   id="XMLID_78_"
   inkscape:connector-curvature="0"
   style="fill:none;stroke:#ffffff;stroke-width:2;stroke-linecap:round;stroke-linejoin:round;stroke-miterlimit:10" />

				<path
   d="m 679.5,466.8 h -17.7 c -2.9,0 -5.2,-2.3 -5.2,-5.2 v -7.8 c 0,-2.9 2.3,-5.2 5.2,-5.2 h 17.7 c 2.9,0 5.2,2.3 5.2,5.2 v 7.8 c 0,2.9 -2.3,5.2 -5.2,5.2 z"
   class="st16"
   id="XMLID_79_"
   inkscape:connector-curvature="0"
   style="fill:none;stroke:#ffffff;stroke-width:2;stroke-linecap:round;stroke-linejoin:round;stroke-miterlimit:10" />

			</g>

			<g
   id="XMLID_76_">
				<line
   y2="497.20001"
   x2="684.59998"
   y1="497.20001"
   x1="592.70001"
   class="st16"
   id="XMLID_135_"
   style="fill:none;stroke:#ffffff;stroke-width:2;stroke-linecap:round;stroke-linejoin:round;stroke-miterlimit:10" />

				<line
   y2="508"
   x2="684.59998"
   y1="508"
   x1="592.70001"
   class="st16"
   id="XMLID_136_"
   style="fill:none;stroke:#ffffff;stroke-width:2;stroke-linecap:round;stroke-linejoin:round;stroke-miterlimit:10" />

				<line
   y2="518.79999"
   x2="648.70001"
   y1="518.79999"
   x1="592.70001"
   class="st16"
   id="XMLID_138_"
   style="fill:none;stroke:#ffffff;stroke-width:2;stroke-linecap:round;stroke-linejoin:round;stroke-miterlimit:10" />

			</g>

		</g>

		<circle
   r="5.0945535"
   cy="285.17535"
   cx="454.15576"
   class="st17"
   id="XMLID_24_"
   style="fill:#1f3969;stroke-width:1.27363837" />

		<circle
   r="5.0945535"
   cy="285.17535"
   cx="471.85931"
   class="st17"
   id="XMLID_28_"
   style="fill:#1f3969;stroke-width:1.27363837" />

		<circle
   r="5.0945535"
   cy="285.17535"
   cx="489.56287"
   class="st17"
   id="XMLID_38_"
   style="fill:#1f3969;stroke-width:1.27363837" />

		<g
   id="XMLID_61_"
   transform="matrix(1.2736385,0,0,1.2736385,-71.856946,-169.89565)">
			<line
   y2="387.39999"
   x2="523.70001"
   y1="387.39999"
   x1="510.70001"
   class="st18"
   id="XMLID_54_"
   style="fill:none;stroke:#ffffff;stroke-width:4;stroke-linecap:round;stroke-linejoin:round;stroke-miterlimit:10" />

			<line
   y2="387.39999"
   x2="501.10001"
   y1="387.39999"
   x1="444.79999"
   class="st19"
   id="XMLID_66_"
   style="fill:none;stroke:#7bffa0;stroke-width:4;stroke-linecap:round;stroke-linejoin:round;stroke-miterlimit:10" />

			<line
   y2="387.39999"
   x2="436.79999"
   y1="387.39999"
   x1="417"
   class="st20"
   id="XMLID_29_"
   style="fill:none;stroke:#9169ff;stroke-width:4;stroke-linecap:round;stroke-linejoin:round;stroke-miterlimit:10" />

		</g>

		<g
   id="XMLID_42_"
   transform="matrix(1.2736385,0,0,1.2736385,-71.856946,-169.89565)">
			<line
   y2="485.89999"
   x2="485.79999"
   y1="485.89999"
   x1="442.79999"
   class="st20"
   id="XMLID_62_"
   style="fill:none;stroke:#9169ff;stroke-width:4;stroke-linecap:round;stroke-linejoin:round;stroke-miterlimit:10" />

			<line
   y2="485.89999"
   x2="430.89999"
   y1="485.89999"
   x1="417"
   class="st19"
   id="XMLID_30_"
   style="fill:none;stroke:#7bffa0;stroke-width:4;stroke-linecap:round;stroke-linejoin:round;stroke-miterlimit:10" />

		</g>

		<g
   id="XMLID_27_"
   transform="matrix(1.2736385,0,0,1.2736385,-71.856946,-169.89565)">
			<line
   y2="399.70001"
   x2="509.20001"
   y1="399.70001"
   x1="501.10001"
   class="st18"
   id="XMLID_60_"
   style="fill:none;stroke:#ffffff;stroke-width:4;stroke-linecap:round;stroke-linejoin:round;stroke-miterlimit:10" />

			<line
   y2="399.70001"
   x2="491.5"
   y1="399.70001"
   x1="464.29999"
   class="st20"
   id="XMLID_45_"
   style="fill:none;stroke:#9169ff;stroke-width:4;stroke-linecap:round;stroke-linejoin:round;stroke-miterlimit:10" />

			<line
   y2="399.70001"
   x2="454.60001"
   y1="399.70001"
   x1="426.89999"
   class="st21"
   id="XMLID_47_"
   style="fill:none;stroke:#ffc47d;stroke-width:4;stroke-linecap:round;stroke-linejoin:round;stroke-miterlimit:10" />

		</g>

		<g
   id="XMLID_49_"
   transform="matrix(1.2736385,0,0,1.2736385,-71.856946,-169.89565)">
			<line
   y2="412"
   x2="493.70001"
   y1="412"
   x1="469.79999"
   class="st18"
   id="XMLID_59_"
   style="fill:none;stroke:#ffffff;stroke-width:4;stroke-linecap:round;stroke-linejoin:round;stroke-miterlimit:10" />

			<line
   y2="412"
   x2="462.29999"
   y1="412"
   x1="439.79999"
   class="st22"
   id="XMLID_50_"
   style="fill:none;stroke:#ff5757;stroke-width:4;stroke-linecap:round;stroke-linejoin:round;stroke-miterlimit:10" />

		</g>

		<g
   id="XMLID_65_"
   transform="matrix(1.2736385,0,0,1.2736385,-71.856946,-169.89565)">
			<line
   y2="424.29999"
   x2="477.89999"
   y1="424.29999"
   x1="473"
   class="st18"
   id="XMLID_58_"
   style="fill:none;stroke:#ffffff;stroke-width:4;stroke-linecap:round;stroke-linejoin:round;stroke-miterlimit:10" />

			<line
   y2="424.29999"
   x2="464.29999"
   y1="424.29999"
   x1="453.20001"
   class="st20"
   id="XMLID_70_"
   style="fill:none;stroke:#9169ff;stroke-width:4;stroke-linecap:round;stroke-linejoin:round;stroke-miterlimit:10" />

			<line
   y2="424.29999"
   x2="444.79999"
   y1="424.29999"
   x1="426.89999"
   class="st19"
   id="XMLID_67_"
   style="fill:none;stroke:#7bffa0;stroke-width:4;stroke-linecap:round;stroke-linejoin:round;stroke-miterlimit:10" />

		</g>

		<g
   id="XMLID_73_"
   transform="matrix(1.2736385,0,0,1.2736385,-71.856946,-169.89565)">
			<line
   y2="436.70001"
   x2="497.20001"
   y1="436.70001"
   x1="465.29999"
   class="st21"
   id="XMLID_77_"
   style="fill:none;stroke:#ffc47d;stroke-width:4;stroke-linecap:round;stroke-linejoin:round;stroke-miterlimit:10" />

			<line
   y2="436.70001"
   x2="455.5"
   y1="436.70001"
   x1="426.89999"
   class="st22"
   id="XMLID_74_"
   style="fill:none;stroke:#ff5757;stroke-width:4;stroke-linecap:round;stroke-linejoin:round;stroke-miterlimit:10" />

		</g>

		<g
   id="XMLID_80_"
   transform="matrix(1.2736385,0,0,1.2736385,-71.856946,-169.89565)">
			<line
   y2="449"
   x2="519.5"
   y1="449"
   x1="502.20001"
   class="st20"
   id="XMLID_64_"
   style="fill:none;stroke:#9169ff;stroke-width:4;stroke-linecap:round;stroke-linejoin:round;stroke-miterlimit:10" />

			<line
   y2="449"
   x2="493"
   y1="449"
   x1="465.29999"
   class="st22"
   id="XMLID_84_"
   style="fill:none;stroke:#ff5757;stroke-width:4;stroke-linecap:round;stroke-linejoin:round;stroke-miterlimit:10" />

			<line
   y2="449"
   x2="455.5"
   y1="449"
   x1="439.79999"
   class="st19"
   id="XMLID_81_"
   style="fill:none;stroke:#7bffa0;stroke-width:4;stroke-linecap:round;stroke-linejoin:round;stroke-miterlimit:10" />

		</g>

		<g
   id="XMLID_87_"
   transform="matrix(1.2736385,0,0,1.2736385,-71.856946,-169.89565)">
			<line
   y2="461.29999"
   x2="493"
   y1="461.29999"
   x1="477.89999"
   class="st18"
   id="XMLID_95_"
   style="fill:none;stroke:#ffffff;stroke-width:4;stroke-linecap:round;stroke-linejoin:round;stroke-miterlimit:10" />

			<line
   y2="461.29999"
   x2="467.5"
   y1="461.29999"
   x1="439.79999"
   class="st20"
   id="XMLID_90_"
   style="fill:none;stroke:#9169ff;stroke-width:4;stroke-linecap:round;stroke-linejoin:round;stroke-miterlimit:10" />

		</g>

		<g
   id="XMLID_98_"
   transform="matrix(1.2736385,0,0,1.2736385,-71.856946,-169.89565)">
			<line
   y2="473.60001"
   x2="534.5"
   y1="473.60001"
   x1="517.20001"
   class="st18"
   id="XMLID_71_"
   style="fill:none;stroke:#ffffff;stroke-width:4;stroke-linecap:round;stroke-linejoin:round;stroke-miterlimit:10" />

			<line
   y2="473.60001"
   x2="507.79999"
   y1="473.60001"
   x1="464.29999"
   class="st21"
   id="XMLID_102_"
   style="fill:none;stroke:#ffc47d;stroke-width:4;stroke-linecap:round;stroke-linejoin:round;stroke-miterlimit:10" />

			<line
   y2="473.60001"
   x2="454.60001"
   y1="473.60001"
   x1="426.89999"
   class="st18"
   id="XMLID_99_"
   style="fill:none;stroke:#ffffff;stroke-width:4;stroke-linecap:round;stroke-linejoin:round;stroke-miterlimit:10" />

		</g>

		<line
   y2="635.6806"
   x2="476.31702"
   y1="635.6806"
   x1="201.84796"
   class="st5"
   id="XMLID_145_"
   style="fill:none;stroke:#1f3969;stroke-width:5.09455347;stroke-linecap:round;stroke-linejoin:round;stroke-miterlimit:10" />

		<line
   y2="645.86963"
   x2="476.31702"
   y1="645.86963"
   x1="201.84796"
   class="st5"
   id="XMLID_151_"
   style="fill:none;stroke:#1f3969;stroke-width:5.09455347;stroke-linecap:round;stroke-linejoin:round;stroke-miterlimit:10" />

		<path
   d="M 478.86431,626.89252 H 198.66386 c 1.65573,4.07566 2.54728,9.17019 2.54728,14.51946 0,5.34928 -0.89155,10.31648 -2.54728,14.51949 h 280.07308 c -1.65574,-4.07563 -2.54729,-9.17021 -2.54729,-14.51949 0.12738,-5.4766 1.01892,-10.4438 2.67466,-14.51946 z"
   class="st5"
   id="XMLID_158_"
   inkscape:connector-curvature="0"
   style="fill:none;stroke:#1f3969;stroke-width:5.09455347;stroke-linecap:round;stroke-linejoin:round;stroke-miterlimit:10" />

	</g>

	<g
   id="XMLID_222_"
   transform="matrix(1.2736385,0,0,1.2736385,-71.856946,-169.89565)">
		<g
   id="XMLID_174_">
			
				<rect
   height="72.599998"
   width="9.8000002"
   class="st23"
   transform="matrix(0.9932,-0.1166,0.1166,0.9932,-62.746,88.7942)"
   y="544.40002"
   x="722.79999"
   id="XMLID_177_"
   style="fill:#ffa364" />

			
				<rect
   height="7.4000001"
   width="9.8000002"
   class="st13"
   transform="matrix(0.9932,-0.1166,0.1166,0.9932,-58.9937,88.1297)"
   y="544.70001"
   x="719"
   id="XMLID_31_"
   style="fill:#2aa1ff" />

			
				<rect
   height="7.4000001"
   width="9.8000002"
   class="st5"
   transform="matrix(0.9932,-0.1166,0.1166,0.9932,-58.9937,88.1297)"
   y="544.70001"
   x="719"
   id="XMLID_217_"
   style="fill:none;stroke:#1f3969;stroke-width:4;stroke-linecap:round;stroke-linejoin:round;stroke-miterlimit:10" />

			
				<rect
   height="72.599998"
   width="9.8000002"
   class="st5"
   transform="matrix(0.9932,-0.1166,0.1166,0.9932,-62.746,88.7942)"
   y="544.40002"
   x="722.79999"
   id="XMLID_22_"
   style="fill:none;stroke:#1f3969;stroke-width:4;stroke-linecap:round;stroke-linejoin:round;stroke-miterlimit:10" />

		</g>

		<g
   id="XMLID_189_">
			
				<rect
   height="72.599998"
   width="9.8000002"
   class="st24"
   transform="matrix(0.9941,0.1081,-0.1081,0.9941,68.6015,-77.1711)"
   y="558.09998"
   x="741.40002"
   id="XMLID_218_"
   style="fill:#ff5252" />

			
				<rect
   height="72.599998"
   width="9.8000002"
   class="st5"
   transform="matrix(0.9941,0.1081,-0.1081,0.9941,68.6015,-77.1711)"
   y="558.09998"
   x="741.40002"
   id="XMLID_214_"
   style="fill:none;stroke:#1f3969;stroke-width:4;stroke-linecap:round;stroke-linejoin:round;stroke-miterlimit:10" />

			
				<rect
   height="7.4000001"
   width="9.8000002"
   class="st1"
   transform="matrix(0.9941,0.1081,-0.1081,0.9941,65.1167,-77.742)"
   y="558.29999"
   x="745"
   id="XMLID_220_"
   style="fill:#2d425e" />

			
				<rect
   height="7.4000001"
   width="9.8000002"
   class="st5"
   transform="matrix(0.9941,0.1081,-0.1081,0.9941,65.1167,-77.742)"
   y="558.29999"
   x="745"
   id="XMLID_211_"
   style="fill:none;stroke:#1f3969;stroke-width:4;stroke-linecap:round;stroke-linejoin:round;stroke-miterlimit:10" />

		</g>

		<polygon
   points="715.4,594.4 767.5,594.4 761.1,654.6 721.8,654.6 "
   class="st25"
   id="XMLID_26_"
   style="fill:#6567c3" />

		<polygon
   points="715.4,594.4 715.5,595.5 755.2,595.5 748.9,654.6 761.1,654.6 767.5,594.4 "
   class="st25"
   id="XMLID_233_"
   style="fill:#6567c3" />

		<polygon
   points="715.4,594.4 767.5,594.4 761.1,654.6 721.8,654.6 "
   class="st5"
   id="XMLID_21_"
   style="fill:none;stroke:#1f3969;stroke-width:4;stroke-linecap:round;stroke-linejoin:round;stroke-miterlimit:10" />

	</g>

</g>
    </g>
  </g>
  <style
     id="style1995"
     type="text/css">
	.st0{fill:#EAECEF;}
	.st1{fill:#2D425E;}
	.st2{fill:#C9C9C9;}
	.st3{fill:#CECECE;}
	.st4{fill:#FFFFFF;}
	.st5{fill:none;stroke:#1F3969;stroke-width:4;stroke-linecap:round;stroke-linejoin:round;stroke-miterlimit:10;}
	.st6{fill:#FF3E3E;}
	.st7{opacity:0.28;fill:#1F3969;stroke:#1F3969;stroke-width:4;stroke-linecap:round;stroke-linejoin:round;stroke-miterlimit:10;}
	.st8{fill:#50B56F;}
	.st9{fill:#5F5AFF;}
	.st10{fill:#F6F9FD;}
	.st11{fill:#BFCFE2;}
	.st12{fill:#D0DDF0;}
	.st13{fill:#2AA1FF;}
	.st14{opacity:0.34;fill:none;stroke:#FFFFFF;stroke-width:2;stroke-linecap:round;stroke-linejoin:round;stroke-miterlimit:10;}
	.st15{opacity:0.34;}
	.st16{fill:none;stroke:#FFFFFF;stroke-width:2;stroke-linecap:round;stroke-linejoin:round;stroke-miterlimit:10;}
	.st17{fill:#1F3969;}
	.st18{fill:none;stroke:#FFFFFF;stroke-width:4;stroke-linecap:round;stroke-linejoin:round;stroke-miterlimit:10;}
	.st19{fill:none;stroke:#7BFFA0;stroke-width:4;stroke-linecap:round;stroke-linejoin:round;stroke-miterlimit:10;}
	.st20{fill:none;stroke:#9169FF;stroke-width:4;stroke-linecap:round;stroke-linejoin:round;stroke-miterlimit:10;}
	.st21{fill:none;stroke:#FFC47D;stroke-width:4;stroke-linecap:round;stroke-linejoin:round;stroke-miterlimit:10;}
	.st22{fill:none;stroke:#FF5757;stroke-width:4;stroke-linecap:round;stroke-linejoin:round;stroke-miterlimit:10;}
	.st23{fill:#FFA364;}
	.st24{fill:#FF5252;}
	.st25{fill:#6567C3;}
</style>
</svg>
