<?xml version="1.0" encoding="UTF-8" standalone="no"?>
<!DOCTYPE svg PUBLIC "-//W3C//DTD SVG 1.1//EN" "http://www.w3.org/Graphics/SVG/1.1/DTD/svg11.dtd">
<svg width="100%" height="100%" viewBox="0 0 1000 1000" version="1.1" xmlns="http://www.w3.org/2000/svg" xmlns:xlink="http://www.w3.org/1999/xlink" xml:space="preserve" xmlns:serif="http://www.serif.com/" style="fill-rule:evenodd;clip-rule:evenodd;stroke-linecap:round;stroke-linejoin:round;stroke-miterlimit:10;">
    <g>
        <g id="XMLID_24_" transform="matrix(1.54951,0,0,1.54951,-300.826,-288.447)">
            <path d="M322.4,547L289.9,547C296.6,537 296.6,524 289.9,513L322.4,513C315.7,524 315.7,537 322.4,547Z" style="fill:rgb(16,45,59);fill-rule:nonzero;"/>
        </g>
        <g id="XMLID_19_" transform="matrix(1.54951,0,0,1.54951,-300.826,-288.447)">
            <path d="M664,679L388,679L388,283L664,283C673.9,283 682,290.8 682,300.7L682,660.7C682,670.7 673.9,679 664,679Z" style="fill:rgb(76,91,96);fill-rule:nonzero;"/>
        </g>
        <g id="XMLID_54_" transform="matrix(1.54951,0,0,1.54951,-300.826,-288.447)">
            <rect x="617" y="283" width="24" height="396" style="fill:rgb(62,75,79);"/>
        </g>
        <g id="XMLID_50_" transform="matrix(1.54951,0,0,1.54951,-300.826,-288.447)">
            <rect x="388" y="283" width="17" height="396" style="fill:rgb(204,221,229);fill-opacity:0.3;"/>
        </g>
        <g transform="matrix(1.54951,0,0,1.54951,-300.826,-288.447)">
            <g id="XMLID_57_">
                <g>
                    <clipPath id="_clip1">
                        <path d="M664,679L388,679L388,283L664,283C673.9,283 682,290.8 682,300.7L682,660.7C682,670.7 673.9,679 664,679Z"/>
                    </clipPath>
                    <g clip-path="url(#_clip1)">
                        <g opacity="0.11">
                            <g>
                                <g>
                                    <path d="M359.4,983.6C359,983.6 358.6,983.5 358.3,983.2C357.7,982.6 357.7,981.7 358.3,981.1L702.7,636.8C703.3,636.2 704.2,636.2 704.8,636.8C705.4,637.4 705.4,638.3 704.8,638.9L360.5,983.2C360.2,983.5 359.8,983.6 359.4,983.6Z" style="fill:rgb(16,45,59);fill-rule:nonzero;"/>
                                </g>
                            </g>
                            <g>
                                <g>
                                    <path d="M359.4,969.6C359,969.6 358.6,969.5 358.3,969.2C357.7,968.6 357.7,967.7 358.3,967.1L702.7,622.8C703.3,622.2 704.2,622.2 704.8,622.8C705.4,623.4 705.4,624.3 704.8,624.9L360.5,969.2C360.2,969.5 359.8,969.6 359.4,969.6Z" style="fill:rgb(16,45,59);fill-rule:nonzero;"/>
                                </g>
                            </g>
                            <g>
                                <g>
                                    <path d="M359.4,955.6C359,955.6 358.6,955.5 358.3,955.2C357.7,954.6 357.7,953.7 358.3,953.1L702.7,608.8C703.3,608.2 704.2,608.2 704.8,608.8C705.4,609.4 705.4,610.3 704.8,610.9L360.5,955.2C360.2,955.5 359.8,955.6 359.4,955.6Z" style="fill:rgb(16,45,59);fill-rule:nonzero;"/>
                                </g>
                            </g>
                            <g>
                                <g>
                                    <path d="M359.4,941.6C359,941.6 358.6,941.5 358.3,941.2C357.7,940.6 357.7,939.7 358.3,939.1L702.7,594.8C703.3,594.2 704.2,594.2 704.8,594.8C705.4,595.4 705.4,596.3 704.8,596.9L360.5,941.2C360.2,941.5 359.8,941.6 359.4,941.6Z" style="fill:rgb(16,45,59);fill-rule:nonzero;"/>
                                </g>
                            </g>
                            <g>
                                <g>
                                    <path d="M359.4,927.6C359,927.6 358.6,927.5 358.3,927.2C357.7,926.6 357.7,925.7 358.3,925.1L702.7,580.8C703.3,580.2 704.2,580.2 704.8,580.8C705.4,581.4 705.4,582.3 704.8,582.9L360.5,927.2C360.2,927.5 359.8,927.6 359.4,927.6Z" style="fill:rgb(16,45,59);fill-rule:nonzero;"/>
                                </g>
                            </g>
                            <g>
                                <g>
                                    <path d="M359.4,913.6C359,913.6 358.6,913.5 358.3,913.2C357.7,912.6 357.7,911.7 358.3,911.1L702.7,566.8C703.3,566.2 704.2,566.2 704.8,566.8C705.4,567.4 705.4,568.3 704.8,568.9L360.5,913.2C360.2,913.5 359.8,913.6 359.4,913.6Z" style="fill:rgb(16,45,59);fill-rule:nonzero;"/>
                                </g>
                            </g>
                            <g>
                                <g>
                                    <path d="M359.4,899.6C359,899.6 358.6,899.5 358.3,899.2C357.7,898.6 357.7,897.7 358.3,897.1L702.7,552.8C703.3,552.2 704.2,552.2 704.8,552.8C705.4,553.4 705.4,554.3 704.8,554.9L360.5,899.2C360.2,899.5 359.8,899.6 359.4,899.6Z" style="fill:rgb(16,45,59);fill-rule:nonzero;"/>
                                </g>
                            </g>
                            <g>
                                <g>
                                    <path d="M359.4,885.6C359,885.6 358.6,885.5 358.3,885.2C357.7,884.6 357.7,883.7 358.3,883.1L702.7,538.8C703.3,538.2 704.2,538.2 704.8,538.8C705.4,539.4 705.4,540.3 704.8,540.9L360.5,885.2C360.2,885.5 359.8,885.6 359.4,885.6Z" style="fill:rgb(16,45,59);fill-rule:nonzero;"/>
                                </g>
                            </g>
                            <g>
                                <g>
                                    <path d="M359.4,871.6C359,871.6 358.6,871.5 358.3,871.2C357.7,870.6 357.7,869.7 358.3,869.1L702.7,524.8C703.3,524.2 704.2,524.2 704.8,524.8C705.4,525.4 705.4,526.3 704.8,526.9L360.5,871.2C360.2,871.5 359.8,871.6 359.4,871.6Z" style="fill:rgb(16,45,59);fill-rule:nonzero;"/>
                                </g>
                            </g>
                            <g>
                                <g>
                                    <path d="M359.4,857.6C359,857.6 358.6,857.5 358.3,857.2C357.7,856.6 357.7,855.7 358.3,855.1L702.7,510.8C703.3,510.2 704.2,510.2 704.8,510.8C705.4,511.4 705.4,512.3 704.8,512.9L360.5,857.2C360.2,857.5 359.8,857.6 359.4,857.6Z" style="fill:rgb(16,45,59);fill-rule:nonzero;"/>
                                </g>
                            </g>
                            <g>
                                <g>
                                    <path d="M359.4,843.6C359,843.6 358.6,843.5 358.3,843.2C357.7,842.6 357.7,841.7 358.3,841.1L702.7,496.8C703.3,496.2 704.2,496.2 704.8,496.8C705.4,497.4 705.4,498.3 704.8,498.9L360.5,843.2C360.2,843.5 359.8,843.6 359.4,843.6Z" style="fill:rgb(16,45,59);fill-rule:nonzero;"/>
                                </g>
                            </g>
                            <g>
                                <g>
                                    <path d="M359.4,829.6C359,829.6 358.6,829.5 358.3,829.2C357.7,828.6 357.7,827.7 358.3,827.1L702.7,482.8C703.3,482.2 704.2,482.2 704.8,482.8C705.4,483.4 705.4,484.3 704.8,484.9L360.5,829.2C360.2,829.5 359.8,829.6 359.4,829.6Z" style="fill:rgb(16,45,59);fill-rule:nonzero;"/>
                                </g>
                            </g>
                            <g>
                                <g>
                                    <path d="M359.4,815.6C359,815.6 358.6,815.5 358.3,815.2C357.7,814.6 357.7,813.7 358.3,813.1L702.7,468.8C703.3,468.2 704.2,468.2 704.8,468.8C705.4,469.4 705.4,470.3 704.8,470.9L360.5,815.2C360.2,815.5 359.8,815.6 359.4,815.6Z" style="fill:rgb(16,45,59);fill-rule:nonzero;"/>
                                </g>
                            </g>
                            <g>
                                <g>
                                    <path d="M359.4,801.6C359,801.6 358.6,801.5 358.3,801.2C357.7,800.6 357.7,799.7 358.3,799.1L702.7,454.8C703.3,454.2 704.2,454.2 704.8,454.8C705.4,455.4 705.4,456.3 704.8,456.9L360.5,801.2C360.2,801.5 359.8,801.6 359.4,801.6Z" style="fill:rgb(16,45,59);fill-rule:nonzero;"/>
                                </g>
                            </g>
                            <g>
                                <g>
                                    <path d="M359.4,787.6C359,787.6 358.6,787.5 358.3,787.2C357.7,786.6 357.7,785.7 358.3,785.1L702.7,440.8C703.3,440.2 704.2,440.2 704.8,440.8C705.4,441.4 705.4,442.3 704.8,442.9L360.5,787.2C360.2,787.5 359.8,787.6 359.4,787.6Z" style="fill:rgb(16,45,59);fill-rule:nonzero;"/>
                                </g>
                            </g>
                            <g>
                                <g>
                                    <path d="M359.4,773.6C359,773.6 358.6,773.5 358.3,773.2C357.7,772.6 357.7,771.7 358.3,771.1L702.7,426.8C703.3,426.2 704.2,426.2 704.8,426.8C705.4,427.4 705.4,428.3 704.8,428.9L360.5,773.2C360.2,773.5 359.8,773.6 359.4,773.6Z" style="fill:rgb(16,45,59);fill-rule:nonzero;"/>
                                </g>
                            </g>
                            <g>
                                <g>
                                    <path d="M359.4,759.6C359,759.6 358.6,759.5 358.3,759.2C357.7,758.6 357.7,757.7 358.3,757.1L702.7,412.8C703.3,412.2 704.2,412.2 704.8,412.8C705.4,413.4 705.4,414.3 704.8,414.9L360.5,759.2C360.2,759.5 359.8,759.6 359.4,759.6Z" style="fill:rgb(16,45,59);fill-rule:nonzero;"/>
                                </g>
                            </g>
                            <g>
                                <g>
                                    <path d="M359.4,745.6C359,745.6 358.6,745.5 358.3,745.2C357.7,744.6 357.7,743.7 358.3,743.1L702.7,398.8C703.3,398.2 704.2,398.2 704.8,398.8C705.4,399.4 705.4,400.3 704.8,400.9L360.5,745.2C360.2,745.5 359.8,745.6 359.4,745.6Z" style="fill:rgb(16,45,59);fill-rule:nonzero;"/>
                                </g>
                            </g>
                            <g>
                                <g>
                                    <path d="M359.4,731.6C359,731.6 358.6,731.5 358.3,731.2C357.7,730.6 357.7,729.7 358.3,729.1L702.7,384.8C703.3,384.2 704.2,384.2 704.8,384.8C705.4,385.4 705.4,386.3 704.8,386.9L360.5,731.2C360.2,731.5 359.8,731.6 359.4,731.6Z" style="fill:rgb(16,45,59);fill-rule:nonzero;"/>
                                </g>
                            </g>
                            <g>
                                <g>
                                    <path d="M359.4,717.6C359,717.6 358.6,717.5 358.3,717.2C357.7,716.6 357.7,715.7 358.3,715.1L702.7,370.8C703.3,370.2 704.2,370.2 704.8,370.8C705.4,371.4 705.4,372.3 704.8,372.9L360.5,717.2C360.2,717.5 359.8,717.6 359.4,717.6Z" style="fill:rgb(16,45,59);fill-rule:nonzero;"/>
                                </g>
                            </g>
                            <g>
                                <g>
                                    <path d="M359.4,703.6C359,703.6 358.6,703.5 358.3,703.2C357.7,702.6 357.7,701.7 358.3,701.1L702.7,356.8C703.3,356.2 704.2,356.2 704.8,356.8C705.4,357.4 705.4,358.3 704.8,358.9L360.5,703.2C360.2,703.5 359.8,703.6 359.4,703.6Z" style="fill:rgb(16,45,59);fill-rule:nonzero;"/>
                                </g>
                            </g>
                            <g>
                                <g>
                                    <path d="M359.4,689.6C359,689.6 358.6,689.5 358.3,689.2C357.7,688.6 357.7,687.7 358.3,687.1L702.7,342.8C703.3,342.2 704.2,342.2 704.8,342.8C705.4,343.4 705.4,344.3 704.8,344.9L360.5,689.2C360.2,689.5 359.8,689.6 359.4,689.6Z" style="fill:rgb(16,45,59);fill-rule:nonzero;"/>
                                </g>
                            </g>
                            <g>
                                <g>
                                    <path d="M359.4,675.6C359,675.6 358.6,675.5 358.3,675.2C357.7,674.6 357.7,673.7 358.3,673.1L702.7,328.8C703.3,328.2 704.2,328.2 704.8,328.8C705.4,329.4 705.4,330.3 704.8,330.9L360.5,675.2C360.2,675.5 359.8,675.6 359.4,675.6Z" style="fill:rgb(16,45,59);fill-rule:nonzero;"/>
                                </g>
                            </g>
                            <g>
                                <g>
                                    <path d="M359.4,661.6C359,661.6 358.6,661.5 358.3,661.2C357.7,660.6 357.7,659.7 358.3,659.1L702.7,314.8C703.3,314.2 704.2,314.2 704.8,314.8C705.4,315.4 705.4,316.3 704.8,316.9L360.5,661.2C360.2,661.5 359.8,661.6 359.4,661.6Z" style="fill:rgb(16,45,59);fill-rule:nonzero;"/>
                                </g>
                            </g>
                            <g>
                                <g>
                                    <path d="M359.4,647.6C359,647.6 358.6,647.5 358.3,647.2C357.7,646.6 357.7,645.7 358.3,645.1L702.7,300.8C703.3,300.2 704.2,300.2 704.8,300.8C705.4,301.4 705.4,302.3 704.8,302.9L360.5,647.2C360.2,647.5 359.8,647.6 359.4,647.6Z" style="fill:rgb(16,45,59);fill-rule:nonzero;"/>
                                </g>
                            </g>
                            <g>
                                <g>
                                    <path d="M359.4,633.6C359,633.6 358.6,633.5 358.3,633.2C357.7,632.6 357.7,631.7 358.3,631.1L702.7,286.8C703.3,286.2 704.2,286.2 704.8,286.8C705.4,287.4 705.4,288.3 704.8,288.9L360.5,633.2C360.2,633.5 359.8,633.6 359.4,633.6Z" style="fill:rgb(16,45,59);fill-rule:nonzero;"/>
                                </g>
                            </g>
                            <g>
                                <g>
                                    <path d="M359.4,619.6C359,619.6 358.6,619.5 358.3,619.2C357.7,618.6 357.7,617.7 358.3,617.1L702.7,272.8C703.3,272.2 704.2,272.2 704.8,272.8C705.4,273.4 705.4,274.3 704.8,274.9L360.5,619.2C360.2,619.5 359.8,619.6 359.4,619.6Z" style="fill:rgb(16,45,59);fill-rule:nonzero;"/>
                                </g>
                            </g>
                            <g>
                                <g>
                                    <path d="M359.4,605.6C359,605.6 358.6,605.5 358.3,605.2C357.7,604.6 357.7,603.7 358.3,603.1L702.7,258.8C703.3,258.2 704.2,258.2 704.8,258.8C705.4,259.4 705.4,260.3 704.8,260.9L360.5,605.2C360.2,605.5 359.8,605.6 359.4,605.6Z" style="fill:rgb(16,45,59);fill-rule:nonzero;"/>
                                </g>
                            </g>
                            <g>
                                <g>
                                    <path d="M359.4,591.6C359,591.6 358.6,591.5 358.3,591.2C357.7,590.6 357.7,589.7 358.3,589.1L702.7,244.8C703.3,244.2 704.2,244.2 704.8,244.8C705.4,245.4 705.4,246.3 704.8,246.9L360.5,591.2C360.2,591.5 359.8,591.6 359.4,591.6Z" style="fill:rgb(16,45,59);fill-rule:nonzero;"/>
                                </g>
                            </g>
                            <g>
                                <g>
                                    <path d="M359.4,577.6C359,577.6 358.6,577.5 358.3,577.2C357.7,576.6 357.7,575.7 358.3,575.1L702.7,230.8C703.3,230.2 704.2,230.2 704.8,230.8C705.4,231.4 705.4,232.3 704.8,232.9L360.5,577.2C360.2,577.5 359.8,577.6 359.4,577.6Z" style="fill:rgb(16,45,59);fill-rule:nonzero;"/>
                                </g>
                            </g>
                            <g>
                                <g>
                                    <path d="M359.4,563.6C359,563.6 358.6,563.5 358.3,563.2C357.7,562.6 357.7,561.7 358.3,561.1L702.7,216.8C703.3,216.2 704.2,216.2 704.8,216.8C705.4,217.4 705.4,218.3 704.8,218.9L360.5,563.2C360.2,563.5 359.8,563.6 359.4,563.6Z" style="fill:rgb(16,45,59);fill-rule:nonzero;"/>
                                </g>
                            </g>
                            <g>
                                <g>
                                    <path d="M359.4,549.6C359,549.6 358.6,549.5 358.3,549.2C357.7,548.6 357.7,547.7 358.3,547.1L702.7,202.8C703.3,202.2 704.2,202.2 704.8,202.8C705.4,203.4 705.4,204.3 704.8,204.9L360.5,549.2C360.2,549.5 359.8,549.6 359.4,549.6Z" style="fill:rgb(16,45,59);fill-rule:nonzero;"/>
                                </g>
                            </g>
                            <g>
                                <g>
                                    <path d="M359.4,535.6C359,535.6 358.6,535.5 358.3,535.2C357.7,534.6 357.7,533.7 358.3,533.1L702.7,188.8C703.3,188.2 704.2,188.2 704.8,188.8C705.4,189.4 705.4,190.3 704.8,190.9L360.5,535.2C360.2,535.5 359.8,535.6 359.4,535.6Z" style="fill:rgb(16,45,59);fill-rule:nonzero;"/>
                                </g>
                            </g>
                            <g>
                                <g>
                                    <path d="M359.4,521.6C359,521.6 358.6,521.5 358.3,521.2C357.7,520.6 357.7,519.7 358.3,519.1L702.7,174.8C703.3,174.2 704.2,174.2 704.8,174.8C705.4,175.4 705.4,176.3 704.8,176.9L360.5,521.2C360.2,521.5 359.8,521.6 359.4,521.6Z" style="fill:rgb(16,45,59);fill-rule:nonzero;"/>
                                </g>
                            </g>
                            <g>
                                <g>
                                    <path d="M359.4,507.6C359,507.6 358.6,507.5 358.3,507.2C357.7,506.6 357.7,505.7 358.3,505.1L702.7,160.8C703.3,160.2 704.2,160.2 704.8,160.8C705.4,161.4 705.4,162.3 704.8,162.9L360.5,507.2C360.2,507.5 359.8,507.6 359.4,507.6Z" style="fill:rgb(16,45,59);fill-rule:nonzero;"/>
                                </g>
                            </g>
                            <g>
                                <g>
                                    <path d="M359.4,493.6C359,493.6 358.6,493.5 358.3,493.2C357.7,492.6 357.7,491.7 358.3,491.1L702.7,146.8C703.3,146.2 704.2,146.2 704.8,146.8C705.4,147.4 705.4,148.3 704.8,148.9L360.5,493.2C360.2,493.5 359.8,493.6 359.4,493.6Z" style="fill:rgb(16,45,59);fill-rule:nonzero;"/>
                                </g>
                            </g>
                            <g>
                                <g>
                                    <path d="M359.4,479.6C359,479.6 358.6,479.5 358.3,479.2C357.7,478.6 357.7,477.7 358.3,477.1L702.7,132.8C703.3,132.2 704.2,132.2 704.8,132.8C705.4,133.4 705.4,134.3 704.8,134.9L360.5,479.2C360.2,479.5 359.8,479.6 359.4,479.6Z" style="fill:rgb(16,45,59);fill-rule:nonzero;"/>
                                </g>
                            </g>
                            <g>
                                <g>
                                    <path d="M359.4,465.6C359,465.6 358.6,465.5 358.3,465.2C357.7,464.6 357.7,463.7 358.3,463.1L702.7,118.7C703.3,118.1 704.2,118.1 704.8,118.7C705.4,119.3 705.4,120.2 704.8,120.8L360.5,465.2C360.2,465.5 359.8,465.6 359.4,465.6Z" style="fill:rgb(16,45,59);fill-rule:nonzero;"/>
                                </g>
                            </g>
                            <g>
                                <g>
                                    <path d="M359.4,451.6C359,451.6 358.6,451.5 358.3,451.2C357.7,450.6 357.7,449.7 358.3,449.1L702.7,104.7C703.3,104.1 704.2,104.1 704.8,104.7C705.4,105.3 705.4,106.2 704.8,106.8L360.5,451.2C360.2,451.5 359.8,451.6 359.4,451.6Z" style="fill:rgb(16,45,59);fill-rule:nonzero;"/>
                                </g>
                            </g>
                            <g>
                                <g>
                                    <path d="M359.4,437.6C359,437.6 358.6,437.5 358.3,437.2C357.7,436.6 357.7,435.7 358.3,435.1L702.7,90.6C703.3,90 704.2,90 704.8,90.6C705.4,91.2 705.4,92.1 704.8,92.7L360.5,437.2C360.2,437.5 359.8,437.6 359.4,437.6Z" style="fill:rgb(16,45,59);fill-rule:nonzero;"/>
                                </g>
                            </g>
                            <g>
                                <g>
                                    <path d="M359.4,423.6C359,423.6 358.6,423.5 358.3,423.2C357.7,422.6 357.7,421.7 358.3,421.1L702.7,76.6C703.3,76 704.2,76 704.8,76.6C705.4,77.2 705.4,78.1 704.8,78.7L360.5,423.2C360.2,423.5 359.8,423.6 359.4,423.6Z" style="fill:rgb(16,45,59);fill-rule:nonzero;"/>
                                </g>
                            </g>
                            <g>
                                <g>
                                    <path d="M359.4,409.6C359,409.6 358.6,409.5 358.3,409.2C357.7,408.6 357.7,407.7 358.3,407.1L702.7,62.6C703.3,62 704.2,62 704.8,62.6C705.4,63.2 705.4,64.1 704.8,64.7L360.5,409.2C360.2,409.5 359.8,409.6 359.4,409.6Z" style="fill:rgb(16,45,59);fill-rule:nonzero;"/>
                                </g>
                            </g>
                            <g>
                                <g>
                                    <path d="M359.4,395.6C359,395.6 358.6,395.5 358.3,395.2C357.7,394.6 357.7,393.7 358.3,393.1L702.7,48.6C703.3,48 704.2,48 704.8,48.6C705.4,49.2 705.4,50.1 704.8,50.7L360.5,395.2C360.2,395.5 359.8,395.6 359.4,395.6Z" style="fill:rgb(16,45,59);fill-rule:nonzero;"/>
                                </g>
                            </g>
                            <g>
                                <g>
                                    <path d="M359.4,381.6C359,381.6 358.6,381.5 358.3,381.2C357.7,380.6 357.7,379.7 358.3,379.1L702.7,34.6C703.3,34 704.2,34 704.8,34.6C705.4,35.2 705.4,36.1 704.8,36.7L360.5,381.2C360.2,381.5 359.8,381.6 359.4,381.6Z" style="fill:rgb(16,45,59);fill-rule:nonzero;"/>
                                </g>
                            </g>
                            <g>
                                <g>
                                    <path d="M359.4,367.6C359,367.6 358.6,367.5 358.3,367.2C357.7,366.6 357.7,365.7 358.3,365.1L702.7,20.6C703.3,20 704.2,20 704.8,20.6C705.4,21.2 705.4,22.1 704.8,22.7L360.5,367.2C360.2,367.5 359.8,367.6 359.4,367.6Z" style="fill:rgb(16,45,59);fill-rule:nonzero;"/>
                                </g>
                            </g>
                            <g>
                                <g>
                                    <path d="M359.4,353.6C359,353.6 358.6,353.5 358.3,353.2C357.7,352.6 357.7,351.7 358.3,351.1L702.7,6.6C703.3,6 704.2,6 704.8,6.6C705.4,7.2 705.4,8.1 704.8,8.7L360.5,353.2C360.2,353.5 359.8,353.6 359.4,353.6Z" style="fill:rgb(16,45,59);fill-rule:nonzero;"/>
                                </g>
                            </g>
                            <g>
                                <g>
                                    <path d="M359.4,339.6C359,339.6 358.6,339.5 358.3,339.2C357.7,338.6 357.7,337.7 358.3,337.1L671.1,24.1C671.7,23.5 672.6,23.5 673.2,24.1C673.8,24.7 673.8,25.6 673.2,26.2L360.5,339.2C360.2,339.5 359.8,339.6 359.4,339.6Z" style="fill:rgb(16,45,59);fill-rule:nonzero;"/>
                                </g>
                            </g>
                            <g>
                                <g>
                                    <path d="M359.4,325.6C359,325.6 358.6,325.5 358.3,325.2C357.7,324.6 357.7,323.7 358.3,323.1L651.7,29.6C652.3,29 653.2,29 653.8,29.6C654.4,30.2 654.4,31.1 653.8,31.7L360.5,325.2C360.2,325.5 359.8,325.6 359.4,325.6Z" style="fill:rgb(16,45,59);fill-rule:nonzero;"/>
                                </g>
                            </g>
                        </g>
                    </g>
                </g>
            </g>
        </g>
        <g id="XMLID_1_" transform="matrix(1.54951,0,0,1.54951,-300.826,-288.447)">
            <path d="M664,679L388,679L388,283L664,283C673.9,283 682,290.8 682,300.7L682,660.7C682,670.7 673.9,679 664,679Z" style="fill:none;fill-rule:nonzero;stroke:rgb(16,45,59);stroke-width:8px;"/>
        </g>
        <g id="XMLID_21_" transform="matrix(1.54951,0,0,1.54951,-300.826,-288.447)">
            <rect x="388" y="283" width="34" height="396" style="fill:none;stroke:rgb(16,45,59);stroke-width:8px;"/>
        </g>
        <g id="XMLID_31_" transform="matrix(1.54951,0,0,1.54951,-300.826,-288.447)">
            <rect x="388" y="397" width="294" height="112" style="fill:rgb(255,152,82);"/>
        </g>
        <g transform="matrix(1,0,0,1,-13.281,113.315)">
            <text x="374.393px" y="312.295px" style="font-family:'Arial-BoldMT', 'Arial', sans-serif;font-weight:700;font-size:48px;fill:white;">EasyButton</text>
        </g>
        <g id="XMLID_53_" transform="matrix(1.54951,0,0,1.54951,-300.826,-288.447)">
            <path d="M422,397L422,509" style="fill:none;fill-rule:nonzero;stroke:rgb(216,86,57);stroke-opacity:0.6;stroke-width:8px;stroke-linecap:butt;stroke-linejoin:miter;"/>
        </g>
        <g id="XMLID_51_" transform="matrix(1.54951,0,0,1.54951,-300.826,-288.447)">
            <rect x="388" y="397" width="17" height="112" style="fill:rgb(253,186,93);"/>
        </g>
        <g id="XMLID_56_" transform="matrix(1.54951,0,0,1.54951,-300.826,-288.447)">
            <rect x="624" y="397" width="17" height="112" style="fill:rgb(216,86,57);fill-opacity:0.61;"/>
        </g>
        <g id="XMLID_3_" transform="matrix(1.54951,0,0,1.54951,-300.826,-288.447)">
            <rect x="388" y="397" width="294" height="112" style="fill:none;stroke:rgb(16,45,59);stroke-width:8px;"/>
        </g>
        <g id="XMLID_4_" transform="matrix(1.54951,0,0,1.54951,-300.826,-288.447)">
            <path d="M624.2,687L611.9,687C608.7,687 606.1,684.4 606.1,681.2L606.1,280.8C606.1,277.6 608.7,275 611.9,275L624.2,275C627.4,275 630,277.6 630,280.8L630,681.1C630,684.4 627.4,687 624.2,687Z" style="fill:rgb(183,200,206);fill-rule:nonzero;"/>
        </g>
        <g id="XMLID_2_" transform="matrix(1.54951,0,0,1.54951,-300.826,-288.447)">
            <path d="M624.2,687L611.9,687C608.7,687 606.1,684.4 606.1,681.2L606.1,280.8C606.1,277.6 608.7,275 611.9,275L624.2,275C627.4,275 630,277.6 630,280.8L630,681.1C630,684.4 627.4,687 624.2,687Z" style="fill:none;fill-rule:nonzero;stroke:rgb(16,45,59);stroke-width:8px;"/>
        </g>
        <g id="XMLID_20_" transform="matrix(1.54951,0,0,1.54951,-300.826,-288.447)">
            <path d="M449,724.7L419,708L419,679L449,679L449,724.7Z" style="fill:rgb(59,206,255);fill-rule:nonzero;"/>
        </g>
        <g id="XMLID_60_" transform="matrix(1.54951,0,0,1.54951,-300.826,-288.447)">
            <rect x="419" y="679" width="30" height="11.3" style="fill:rgb(36,56,125);fill-opacity:0.62;"/>
        </g>
        <g id="XMLID_5_" transform="matrix(1.54951,0,0,1.54951,-300.826,-288.447)">
            <path d="M449,724.7L419,708L419,679L449,679L449,724.7Z" style="fill:none;fill-rule:nonzero;stroke:rgb(16,45,59);stroke-width:8px;"/>
        </g>
        <g id="XMLID_22_" transform="matrix(1.54951,0,0,1.54951,-300.826,-288.447)">
            <rect x="290" y="362" width="32" height="151" style="fill:rgb(82,96,102);"/>
        </g>
        <g id="XMLID_32_" transform="matrix(1.54951,0,0,1.54951,-300.826,-288.447)">
            <rect x="290" y="362" width="32" height="151" style="fill:rgb(82,96,102);"/>
        </g>
        <g id="XMLID_33_" transform="matrix(1.54951,0,0,1.54951,-300.826,-288.447)">
            <rect x="290" y="362" width="10" height="151" style="fill:rgb(82,96,102);fill-opacity:0.64;"/>
        </g>
        <g id="XMLID_35_" transform="matrix(1.54951,0,0,1.54951,-300.826,-288.447)">
            <rect x="313" y="362" width="9" height="151" style="fill:rgb(82,96,102);fill-opacity:0.3;"/>
        </g>
        <g id="XMLID_6_" transform="matrix(1.54951,0,0,1.54951,-300.826,-288.447)">
            <rect x="290" y="362" width="32" height="151" style="fill:none;stroke:rgb(16,45,59);stroke-width:8px;"/>
        </g>
        <g id="XMLID_23_" transform="matrix(1.54951,0,0,1.54951,-300.826,-288.447)">
            <path d="M322.4,615L289.9,615C287.8,593 287.8,570 289.9,547L322.4,547C324.5,570 324.5,593 322.4,615Z" style="fill:rgb(66,112,138);fill-rule:nonzero;"/>
        </g>
        <g id="XMLID_25_" transform="matrix(1.54951,0,0,1.54951,-300.826,-288.447)">
            <path d="M322.4,615L289.9,615C287.8,593 287.8,570 289.9,547L322.4,547C324.5,570 324.5,593 322.4,615Z" style="fill:rgb(82,96,102);fill-rule:nonzero;"/>
        </g>
        <g id="XMLID_59_" transform="matrix(1.54951,0,0,1.54951,-300.826,-288.447)">
            <path d="M322.4,547L314.6,547C316.7,570 316.7,593 314.6,615L322.4,615C324.5,593 324.5,570 322.4,547Z" style="fill:rgb(82,96,102);fill-opacity:0.3;fill-rule:nonzero;"/>
        </g>
        <g id="XMLID_37_" transform="matrix(1.54951,0,0,1.54951,-300.826,-288.447)">
            <path d="M301.4,614L296.7,614C294.6,592.3 294.6,569.7 296.6,547L301.4,547C299.4,569.7 299.4,592.3 301.4,614Z" style="fill:rgb(204,221,229);fill-opacity:0.73;fill-rule:nonzero;"/>
        </g>
        <g id="XMLID_10_" transform="matrix(1.54951,0,0,1.54951,-300.826,-288.447)">
            <path d="M322.4,615L289.9,615C287.8,593 287.8,570 289.9,547L322.4,547C324.5,570 324.5,593 322.4,615Z" style="fill:none;fill-rule:nonzero;stroke:rgb(16,45,59);stroke-width:8px;"/>
        </g>
        <g id="XMLID_8_" transform="matrix(1.54951,0,0,1.54951,-300.826,-288.447)">
            <rect x="288" y="571" width="36" height="21" style="fill:none;stroke:rgb(16,45,59);stroke-width:8px;"/>
        </g>
        <g id="XMLID_9_" transform="matrix(1.54951,0,0,1.54951,-300.826,-288.447)">
            <path d="M322.4,547L289.9,547C296.6,537 296.6,524 289.9,513L322.4,513C315.7,524 315.7,537 322.4,547Z" style="fill:none;fill-rule:nonzero;stroke:rgb(16,45,59);stroke-width:8px;"/>
        </g>
        <g id="XMLID_26_" transform="matrix(1.54951,0,0,1.54951,-300.826,-288.447)">
            <path d="M310.3,662C315.7,646 322.2,631 322.4,615L289.9,615C290.1,631 296.6,646 302,662L310.3,662Z" style="fill:rgb(204,221,229);fill-rule:nonzero;"/>
        </g>
        <g id="XMLID_39_" transform="matrix(1.54951,0,0,1.54951,-300.826,-288.447)">
            <path d="M322.4,615L322.4,616L301,616C301.1,631.7 303.9,646.7 307.2,662L302,662C296.6,646 290.1,631 289.9,615L322.4,615Z" style="fill:white;fill-rule:nonzero;"/>
        </g>
        <g id="XMLID_14_" transform="matrix(1.54951,0,0,1.54951,-300.826,-288.447)">
            <path d="M310.3,662C315.7,646 322.2,631 322.4,615L289.9,615C290.1,631 296.6,646 302,662L310.3,662Z" style="fill:none;fill-rule:nonzero;stroke:rgb(16,45,59);stroke-width:8px;"/>
        </g>
        <g id="XMLID_11_" transform="matrix(1.54951,0,0,1.54951,-300.826,-288.447)">
            <rect x="302" y="662" width="8" height="6" style="fill:none;stroke:rgb(16,45,59);stroke-width:8px;"/>
        </g>
        <g id="XMLID_13_" transform="matrix(1.54951,0,0,1.54951,-300.826,-288.447)">
            <path d="M306,669L306,682" style="fill:none;fill-rule:nonzero;stroke:rgb(16,45,59);stroke-width:8px;"/>
        </g>
        <g id="XMLID_12_" transform="matrix(1.54951,0,0,1.54951,-300.826,-288.447)">
            <rect x="294" y="340" width="24" height="22" style="fill:none;stroke:rgb(16,45,59);stroke-width:8px;"/>
        </g>
        <g id="XMLID_29_" transform="matrix(1.54951,0,0,1.54951,-300.826,-288.447)">
            <rect x="294" y="340" width="24" height="22" style="fill:rgb(16,45,59);"/>
        </g>
        <g id="XMLID_30_" transform="matrix(1.54951,0,0,1.54951,-300.826,-288.447)">
            <path d="M315,340L297,340L297,314.3C297,310.8 300.2,308 303.7,308L308.7,308C312.2,308 315,310.8 315,314.3L315,340Z" style="fill:rgb(204,221,229);fill-rule:nonzero;"/>
        </g>
        <g id="XMLID_16_" transform="matrix(1.54951,0,0,1.54951,-300.826,-288.447)">
            <path d="M315,340L297,340L297,314.3C297,310.8 300.2,308 303.7,308L308.7,308C312.2,308 315,310.8 315,314.3L315,340Z" style="fill:none;fill-rule:nonzero;stroke:rgb(16,45,59);stroke-width:8px;"/>
        </g>
        <g id="XMLID_27_" transform="matrix(1.54951,0,0,1.54951,-300.826,-288.447)">
            <rect x="302" y="376" width="31" height="18" style="fill:rgb(204,221,229);"/>
        </g>
        <g id="XMLID_15_" transform="matrix(1.54951,0,0,1.54951,-300.826,-288.447)">
            <rect x="302" y="376" width="31" height="18" style="fill:none;stroke:rgb(16,45,59);stroke-width:8px;"/>
        </g>
        <g id="XMLID_28_" transform="matrix(1.54951,0,0,1.54951,-300.826,-288.447)">
            <path d="M333,455.3L322,440.8L322,394L333,394L333,455.3Z" style="fill:rgb(204,221,229);fill-rule:nonzero;"/>
        </g>
        <g id="XMLID_17_" transform="matrix(1.54951,0,0,1.54951,-300.826,-288.447)">
            <path d="M333,455.3L322,440.8L322,394L333,394L333,455.3Z" style="fill:none;fill-rule:nonzero;stroke:rgb(16,45,59);stroke-width:8px;"/>
        </g>
    </g>
</svg>
