<?xml version="1.0" encoding="UTF-8" standalone="no"?>
<!DOCTYPE svg PUBLIC "-//W3C//DTD SVG 1.1//EN" "http://www.w3.org/Graphics/SVG/1.1/DTD/svg11.dtd">
<svg width="100%" height="100%" viewBox="0 0 1000 1000" version="1.1" xmlns="http://www.w3.org/2000/svg" xmlns:xlink="http://www.w3.org/1999/xlink" xml:space="preserve" xmlns:serif="http://www.serif.com/" style="fill-rule:evenodd;clip-rule:evenodd;stroke-linejoin:round;stroke-miterlimit:2;">
    <g id="Layer_1">
        <g>
            <g>
                <g>
                    <path d="M63.2,959.2C63.2,961.7 62,962.9 60.6,962.9C59.5,962.9 58.7,962.4 58.5,961.5C58.1,962 57.5,962.3 56.7,962.3C55.2,962.3 54.1,961.1 54.1,959.5C54.1,957.9 55.2,956.7 56.7,956.7C57.4,956.7 57.9,957 58.3,957.4L58.3,956.9L59.9,956.9L59.9,960.8C59.9,961.6 60.2,962.2 60.9,962.2C61.8,962.2 62.6,961.3 62.6,959.2C62.6,956.2 60.3,953.9 57.2,953.9C54.1,953.9 51.6,956.3 51.6,959.6C51.6,962.9 54.1,965.3 57.5,965.3C58.6,965.3 59.6,965.1 60.4,964.9L60.4,965.5C59.6,965.8 58.7,965.9 57.5,965.9C53.8,965.9 51,963.3 51,959.7C51,956.3 53.7,953.5 57.2,953.5C61.1,953.3 63.2,956.4 63.2,959.2ZM58.3,959.5C58.3,958.7 57.7,958.1 57,958.1C56.2,958.1 55.7,958.6 55.7,959.5C55.7,960.3 56.3,960.8 57,960.8C57.8,960.9 58.3,960.3 58.3,959.5Z" style="fill:rgb(238,242,244);fill-rule:nonzero;"/>
                </g>
                <g>
                    <path d="M69.4,955.1L69.4,957.1C68.2,957 66.8,957.6 66.8,959.5L66.8,963.8L64.9,963.8L64.9,955.2L66.8,955.2L66.8,956.6C67.3,955.5 68.3,955.1 69.4,955.1Z" style="fill:rgb(238,242,244);fill-rule:nonzero;"/>
                </g>
                <g>
                    <path d="M74.6,962.3C75.6,962.3 76.4,961.8 76.8,961.2L78.3,962.1C77.5,963.3 76.2,964 74.5,964C71.7,964 69.8,962.1 69.8,959.5C69.8,957 71.6,955 74.3,955C76.9,955 78.6,957.1 78.6,959.5C78.6,959.8 78.6,960 78.5,960.3L71.7,960.3C72.1,961.6 73.2,962.3 74.6,962.3ZM76.9,958.8C76.6,957.3 75.6,956.7 74.4,956.7C73,956.7 72.1,957.5 71.8,958.8L76.9,958.8Z" style="fill:rgb(238,242,244);fill-rule:nonzero;"/>
                </g>
                <g>
                    <path d="M88.9,955.2L88.9,963.8L87,963.8L87,962.6C86.3,963.5 85.3,964.1 84,964.1C81.7,964.1 79.7,962.1 79.7,959.6C79.7,957 81.6,955.1 84,955.1C85.3,955.1 86.3,955.6 87,956.5L87,955.3L88.9,955.3L88.9,955.2ZM87.1,959.5C87.1,957.9 85.9,956.8 84.4,956.8C82.9,956.8 81.7,957.9 81.7,959.5C81.7,961.1 82.9,962.2 84.4,962.2C85.9,962.3 87.1,961.1 87.1,959.5Z" style="fill:rgb(238,242,244);fill-rule:nonzero;"/>
                </g>
                <g>
                    <rect x="91.1" y="951.3" width="1.9" height="12.5" style="fill:rgb(238,242,244);fill-rule:nonzero;"/>
                </g>
                <g>
                    <path d="M102.9,955.2L99.6,963.8L97.5,963.8L94.2,955.2L96.2,955.2L98.6,961.7L101,955.2L102.9,955.2Z" style="fill:rgb(238,242,244);fill-rule:nonzero;"/>
                </g>
                <g>
                    <path d="M104.2,955.2L106.1,955.2L106.1,964.1C106.1,966.5 104.9,967.6 102.6,967.4L102.6,965.6C103.7,965.7 104.3,965.3 104.3,964.1L104.3,955.2L104.2,955.2ZM104,952.8C104,952.1 104.5,951.6 105.2,951.6C105.9,951.6 106.4,952.1 106.4,952.8C106.4,953.4 105.9,954 105.2,954C104.5,954 104,953.4 104,952.8Z" style="fill:rgb(238,242,244);fill-rule:nonzero;"/>
                </g>
                <g>
                    <path d="M116,955.2L112.7,964C111.9,966.2 110.5,967.3 108.5,967.2L108.5,965.5C109.7,965.6 110.4,965 110.8,963.8L110.9,963.6L107.3,955.2L109.3,955.2L111.9,961.4L114.1,955.2L116,955.2Z" style="fill:rgb(238,242,244);fill-rule:nonzero;"/>
                </g>
            </g>
            <g>
                <path d="M211.9,938.7C211.9,940.8 210.4,942.5 208.3,942.5L205.3,942.5L205.3,934.9L208.3,934.9C210.4,934.9 211.9,936.6 211.9,938.7ZM210.9,938.7C210.9,937.1 209.8,935.8 208.3,935.8L206.3,935.8L206.3,941.5L208.3,941.5C209.8,941.6 210.9,940.3 210.9,938.7Z" style="fill:rgb(238,242,244);fill-rule:nonzero;"/>
                <path d="M219.5,940.8L216.1,940.8L215.5,942.5L214.4,942.5L217.2,934.9L218.3,934.9L221.1,942.5L220,942.5L219.5,940.8ZM219.2,939.9L217.8,936.1L216.4,939.9L219.2,939.9Z" style="fill:rgb(238,242,244);fill-rule:nonzero;"/>
                <path d="M226.4,939.4L226.4,942.5L225.4,942.5L225.4,939.4L222.7,934.9L223.8,934.9L225.9,938.5L228,934.9L229.1,934.9L226.4,939.4Z" style="fill:rgb(238,242,244);fill-rule:nonzero;"/>
                <path d="M239.5,934.9L239.5,942.5L238.5,942.5L238.5,936L236.9,936.5L236.6,935.6L238.6,934.9L239.5,934.9Z" style="fill:rgb(238,242,244);fill-rule:nonzero;"/>
                <path d="M245.7,934.9L245.7,942.5L244.7,942.5L244.7,936L243.1,936.5L242.8,935.6L244.8,934.9L245.7,934.9Z" style="fill:rgb(238,242,244);fill-rule:nonzero;"/>
            </g>
            <g>
                <path d="M58.9,938.7C58.9,940.8 57.4,942.5 55.3,942.5L52.3,942.5L52.3,934.9L55.3,934.9C57.4,934.9 58.9,936.6 58.9,938.7ZM57.9,938.7C57.9,937.1 56.8,935.8 55.3,935.8L53.3,935.8L53.3,941.5L55.3,941.5C56.8,941.6 57.9,940.3 57.9,938.7Z" style="fill:rgb(238,242,244);fill-rule:nonzero;"/>
                <path d="M67,941.6L67,942.6L62.4,942.6L62.4,935L66.9,935L66.9,936L63.4,936L63.4,938.3L66.6,938.3L66.6,939.2L63.4,939.2L63.4,941.6L67,941.6Z" style="fill:rgb(238,242,244);fill-rule:nonzero;"/>
                <path d="M70,940.8L70.9,940.3C71.2,941.1 71.8,941.7 72.9,941.7C74,941.7 74.5,941.2 74.5,940.5C74.5,939.7 73.8,939.5 72.7,939.1C71.5,938.7 70.3,938.3 70.3,936.9C70.3,935.5 71.4,934.7 72.7,934.7C74,934.7 74.9,935.4 75.3,936.4L74.5,936.9C74.2,936.2 73.7,935.7 72.8,935.7C72,935.7 71.4,936.1 71.4,936.8C71.4,937.5 71.9,937.8 73,938.1C74.3,938.5 75.6,938.9 75.6,940.4C75.6,941.7 74.5,942.6 73,942.6C71.5,942.7 70.4,941.9 70,940.8Z" style="fill:rgb(238,242,244);fill-rule:nonzero;"/>
                <rect x="79" y="934.9" width="1" height="7.6" style="fill:rgb(238,242,244);fill-rule:nonzero;"/>
                <path d="M91.3,939.2C91.3,941.1 89.9,942.7 87.6,942.7C85.2,942.7 83.6,940.9 83.6,938.7C83.6,936.5 85.3,934.7 87.6,934.7C89,934.7 90.3,935.5 90.9,936.5L90,937C89.6,936.2 88.6,935.6 87.6,935.6C85.8,935.6 84.6,936.9 84.6,938.6C84.6,940.3 85.8,941.6 87.6,941.6C89.2,941.6 90.1,940.7 90.3,939.6L87.5,939.6L87.5,938.7L91.3,938.7L91.3,939.2Z" style="fill:rgb(238,242,244);fill-rule:nonzero;"/>
                <path d="M100.6,934.9L100.6,942.5L99.8,942.5L95.9,936.8L95.9,942.5L94.9,942.5L94.9,934.9L95.7,934.9L99.6,940.6L99.6,934.9L100.6,934.9Z" style="fill:rgb(238,242,244);fill-rule:nonzero;"/>
                <path d="M109.1,941.6L109.1,942.6L104.5,942.6L104.5,935L109,935L109,936L105.5,936L105.5,938.3L108.7,938.3L108.7,939.2L105.5,939.2L105.5,941.6L109.1,941.6Z" style="fill:rgb(238,242,244);fill-rule:nonzero;"/>
                <path d="M119.2,938.7C119.2,940.8 117.7,942.5 115.6,942.5L112.6,942.5L112.6,934.9L115.6,934.9C117.6,934.9 119.2,936.6 119.2,938.7ZM118.2,938.7C118.2,937.1 117.1,935.8 115.6,935.8L113.6,935.8L113.6,941.5L115.6,941.5C117.1,941.6 118.2,940.3 118.2,938.7Z" style="fill:rgb(238,242,244);fill-rule:nonzero;"/>
                <path d="M133.2,940.4C133.2,941.6 132.2,942.6 131,942.6L127.7,942.6L127.7,935L130.7,935C131.9,935 132.8,935.9 132.8,937.1C132.8,937.8 132.5,938.3 132,938.7C132.7,938.9 133.2,939.5 133.2,940.4ZM128.7,935.7L128.7,938.1L130.7,938.1C131.3,938.1 131.8,937.6 131.8,936.9C131.8,936.3 131.3,935.7 130.7,935.7L128.7,935.7ZM132.2,940.3C132.2,939.6 131.7,939.1 131,939.1L128.7,939.1L128.7,941.6L131,941.6C131.7,941.6 132.2,941 132.2,940.3Z" style="fill:rgb(238,242,244);fill-rule:nonzero;"/>
                <path d="M139.4,939.4L139.4,942.5L138.4,942.5L138.4,939.4L135.7,934.9L136.8,934.9L138.9,938.5L141,934.9L142.1,934.9L139.4,939.4Z" style="fill:rgb(238,242,244);fill-rule:nonzero;"/>
            </g>
            <g>
                <path d="M214.5,960.8C214.5,962.9 212.8,964.3 210.8,964.3L205.5,964.3L205.5,951.9L210.4,951.9C212.4,951.9 214,953.4 214,955.3C214,956.4 213.5,957.3 212.7,957.8C213.8,958.4 214.5,959.4 214.5,960.8ZM207.5,953.8L207.5,957.1L210.4,957.1C211.3,957.1 212,956.4 212,955.5C212,954.6 211.3,953.9 210.4,953.9L207.5,953.9L207.5,953.8ZM212.4,960.6C212.4,959.6 211.7,958.9 210.7,958.9L207.4,958.9L207.4,962.4L210.7,962.4C211.7,962.4 212.4,961.6 212.4,960.6Z" style="fill:rgb(238,242,244);fill-rule:nonzero;"/>
                <rect x="216.1" y="951.4" width="1.9" height="12.9" style="fill:rgb(238,242,244);fill-rule:nonzero;"/>
                <path d="M229.2,955.3L229.2,964.3L227.3,964.3L227.3,963C226.6,963.9 225.6,964.5 224.2,964.5C221.8,964.5 219.8,962.5 219.8,959.8C219.8,957.2 221.8,955.1 224.2,955.1C225.6,955.1 226.6,955.7 227.3,956.6L227.3,955.3L229.2,955.3ZM227.3,959.9C227.3,958.3 226.1,957.1 224.5,957.1C222.9,957.1 221.7,958.3 221.7,959.9C221.7,961.5 222.9,962.7 224.5,962.7C226.1,962.7 227.3,961.5 227.3,959.9Z" style="fill:rgb(238,242,244);fill-rule:nonzero;"/>
                <path d="M230.9,959.9C230.9,957.3 232.9,955.2 235.6,955.2C237.3,955.2 238.8,956.1 239.5,957.5L237.9,958.5C237.5,957.7 236.6,957.1 235.6,957.1C234,957.1 232.9,958.3 232.9,959.9C232.9,961.5 234.1,962.7 235.6,962.7C236.7,962.7 237.5,962.2 238,961.3L239.6,962.2C238.9,963.6 237.4,964.5 235.6,964.5C232.9,964.5 230.9,962.5 230.9,959.9Z" style="fill:rgb(238,242,244);fill-rule:nonzero;"/>
                <path d="M246.5,964.3L242.9,960.2L242.9,964.3L241,964.3L241,951.9L242.9,951.9L242.9,959.4L246.3,955.5L248.6,955.5L244.7,959.8L248.7,964.3L246.5,964.3Z" style="fill:rgb(238,242,244);fill-rule:nonzero;"/>
                <path d="M259.5,959.9C259.5,962.5 257.5,964.6 255.1,964.6C253.7,964.6 252.7,964 252,963.1L252,964.4L250.1,964.4L250.1,952L252,952L252,956.8C252.7,955.9 253.7,955.3 255.1,955.3C257.5,955.2 259.5,957.2 259.5,959.9ZM257.6,959.9C257.6,958.3 256.4,957.1 254.8,957.1C253.2,957.1 252,958.3 252,959.9C252,961.5 253.2,962.7 254.8,962.7C256.4,962.7 257.6,961.5 257.6,959.9Z" style="fill:rgb(238,242,244);fill-rule:nonzero;"/>
                <path d="M260.7,959.9C260.7,957.3 262.8,955.2 265.4,955.2C268,955.2 270.1,957.2 270.1,959.9C270.1,962.5 268,964.6 265.4,964.6C262.8,964.5 260.7,962.5 260.7,959.9ZM268.2,959.9C268.2,958.3 267,957.1 265.4,957.1C263.8,957.1 262.6,958.3 262.6,959.9C262.6,961.5 263.8,962.7 265.4,962.7C267,962.7 268.2,961.5 268.2,959.9Z" style="fill:rgb(238,242,244);fill-rule:nonzero;"/>
                <path d="M280.7,955.3L280.7,964.3L278.8,964.3L278.8,963C278.1,963.9 277.1,964.5 275.7,964.5C273.3,964.5 271.3,962.5 271.3,959.8C271.3,957.2 273.3,955.1 275.7,955.1C277.1,955.1 278.1,955.7 278.8,956.6L278.8,955.3L280.7,955.3ZM278.8,959.9C278.8,958.3 277.6,957.1 276,957.1C274.4,957.1 273.2,958.3 273.2,959.9C273.2,961.5 274.4,962.7 276,962.7C277.6,962.7 278.8,961.5 278.8,959.9Z" style="fill:rgb(238,242,244);fill-rule:nonzero;"/>
                <path d="M287.6,955.3L287.6,957.4C286.3,957.3 284.9,957.9 284.9,959.9L284.9,964.4L283,964.4L283,955.5L284.9,955.5L284.9,957C285.4,955.7 286.5,955.3 287.6,955.3Z" style="fill:rgb(238,242,244);fill-rule:nonzero;"/>
                <path d="M297.5,951.8L297.5,964.3L295.6,964.3L295.6,963C294.9,963.9 293.9,964.5 292.5,964.5C290.1,964.5 288.1,962.5 288.1,959.8C288.1,957.2 290.1,955.1 292.5,955.1C293.9,955.1 294.9,955.7 295.6,956.6L295.6,951.8L297.5,951.8ZM295.6,959.9C295.6,958.3 294.4,957.1 292.8,957.1C291.2,957.1 290,958.3 290,959.9C290,961.5 291.2,962.7 292.8,962.7C294.4,962.7 295.6,961.5 295.6,959.9Z" style="fill:rgb(238,242,244);fill-rule:nonzero;"/>
            </g>
            <g>
                <path d="M841.3,942.5L840.3,942.5L840.3,934.9L841.4,934.9L843.8,938.9L846.2,934.9L847.3,934.9L847.3,942.5L846.3,942.5L846.3,936.5L843.8,940.7L843.7,940.7L841.2,936.6L841.2,942.5L841.3,942.5ZM858.8,938.7C858.8,940.9 857.1,942.7 854.8,942.7C852.6,942.7 850.9,940.9 850.9,938.7C850.9,936.5 852.6,934.7 854.8,934.7C857.1,934.7 858.8,936.5 858.8,938.7ZM857.8,938.7C857.8,937 856.5,935.7 854.9,935.7C853.2,935.7 852,937 852,938.7C852,940.4 853.3,941.7 854.9,941.7C856.6,941.7 857.8,940.4 857.8,938.7ZM866.2,939.5L868,942.6L866.9,942.6L865.2,939.7L863.4,939.7L863.4,942.6L862.4,942.6L862.4,935L865.4,935C866.7,935 867.8,936.1 867.8,937.4C867.8,938.2 867.1,939.1 866.2,939.5ZM865.4,938.7C866.2,938.7 866.8,938.1 866.8,937.3C866.8,936.5 866.2,935.9 865.4,935.9L863.4,935.9L863.4,938.7L865.4,938.7ZM876,941.6L872.4,941.6L872.4,939.2L875.6,939.2L875.6,938.3L872.4,938.3L872.4,936L875.9,936L875.9,935L871.4,935L871.4,942.6L876,942.6L876,941.6ZM844.2,962.2L841.7,955.5L839.6,955.5L843.1,964.4L845.3,964.4L848.8,955.5L846.7,955.5L844.2,962.2ZM850,964.3L851.9,964.3L851.9,955.4L850,955.4L850,964.3ZM851,951.7C850.3,951.7 849.8,952.2 849.8,952.9C849.8,953.6 850.3,954.1 851,954.1C851.7,954.1 852.2,953.5 852.2,952.9C852.2,952.2 851.6,951.7 851,951.7ZM855.2,951.7C854.5,951.7 854,952.2 854,952.9C854,953.6 854.5,954.1 855.2,954.1C855.9,954.1 856.4,953.5 856.4,952.9C856.5,952.2 855.9,951.7 855.2,951.7ZM854.3,964.7C854.3,965.9 853.8,966.4 852.6,966.3L852.6,968.1C855,968.3 856.2,967.1 856.2,964.7L856.2,955.5L854.3,955.5L854.3,964.7ZM865.4,955.4L867.3,955.4L867.3,964.3L865.4,964.3L865.4,963C864.7,963.9 863.7,964.5 862.3,964.5C859.9,964.5 857.9,962.5 857.9,959.8C857.9,957.2 859.9,955.1 862.3,955.1C863.7,955.1 864.7,955.7 865.4,956.6L865.4,955.4ZM865.4,959.9C865.4,958.3 864.2,957.1 862.6,957.1C861,957.1 859.8,958.3 859.8,959.9C859.8,961.5 861,962.7 862.6,962.7C864.2,962.7 865.4,961.5 865.4,959.9ZM873.3,961.9L870.7,955.5L868.6,955.5L872.4,964.2L872.3,964.4C871.9,965.6 871.2,966.2 869.9,966.1L869.9,967.9C871.9,968 873.4,966.9 874.2,964.6L877.6,955.5L875.6,955.5L873.3,961.9ZM882.3,962.2L879.8,955.5L877.7,955.5L881.2,964.4L883.4,964.4L886.9,955.5L884.8,955.5L882.3,962.2ZM896.4,959.9C896.4,960.2 896.4,960.4 896.3,960.7L889.3,960.7C889.6,962.1 890.7,962.8 892.1,962.8C893.2,962.8 894,962.3 894.4,961.7L896,962.6C895.2,963.8 893.9,964.5 892.1,964.5C889.2,964.5 887.3,962.5 887.3,959.8C887.3,957.2 889.2,955.1 892,955.1C894.5,955.2 896.4,957.3 896.4,959.9ZM894.4,959.1C894.1,957.6 893,956.9 891.9,956.9C890.5,956.9 889.5,957.7 889.2,959.1L894.4,959.1ZM899.9,956.9L899.9,955.4L898,955.4L898,964.3L899.9,964.3L899.9,959.8C899.9,957.8 901.4,957.2 902.6,957.3L902.6,955.2C901.6,955.3 900.5,955.7 899.9,956.9ZM913.8,955.2C912.6,955.2 911.7,955.7 911.1,956.6C910.6,955.7 909.7,955.2 908.6,955.2C907.5,955.2 906.6,955.6 906.1,956.5L906.1,955.4L904.2,955.4L904.2,964.3L906.1,964.3L906.1,959.3C906.1,957.7 907,957 908.1,957C909.1,957 909.8,957.7 909.8,958.9L909.8,964.3L911.7,964.3L911.7,959.3C911.7,957.7 912.5,957 913.6,957C914.6,957 915.3,957.7 915.3,958.9L915.3,964.3L917.2,964.3L917.2,958.8C917.1,956.6 915.8,955.2 913.8,955.2ZM926.2,955.4L928.1,955.4L928.1,964.3L926.2,964.3L926.2,963C925.5,963.9 924.5,964.5 923.1,964.5C920.7,964.5 918.7,962.5 918.7,959.8C918.7,957.2 920.7,955.1 923.1,955.1C924.5,955.1 925.5,955.7 926.2,956.6L926.2,955.4ZM926.2,959.9C926.2,958.3 925,957.1 923.4,957.1C921.8,957.1 920.6,958.3 920.6,959.9C920.6,961.5 921.8,962.7 923.4,962.7C925,962.7 926.2,961.5 926.2,959.9ZM931.5,961.9C930.8,961.9 930.2,962.5 930.2,963.2C930.2,963.9 930.8,964.5 931.5,964.5C932.2,964.5 932.8,963.9 932.8,963.2C932.8,962.4 932.2,961.9 931.5,961.9ZM938.3,962.6C936.7,962.6 935.6,961.4 935.6,959.8C935.6,958.2 936.8,957 938.3,957C939.4,957 940.2,957.5 940.6,958.4L942.2,957.4C941.5,956 940,955.1 938.3,955.1C935.6,955.1 933.6,957.1 933.6,959.8C933.6,962.4 935.6,964.5 938.3,964.5C940,964.5 941.5,963.6 942.3,962.2L940.7,961.3C940.2,962.1 939.3,962.6 938.3,962.6ZM952.4,959.9C952.4,962.5 950.3,964.6 947.7,964.6C945.1,964.6 943,962.6 943,959.9C943,957.3 945.1,955.2 947.7,955.2C950.3,955.2 952.4,957.2 952.4,959.9ZM950.5,959.9C950.5,958.3 949.3,957.1 947.7,957.1C946.1,957.1 944.9,958.3 944.9,959.9C944.9,961.5 946.1,962.7 947.7,962.7C949.3,962.7 950.5,961.5 950.5,959.9Z" style="fill:rgb(238,242,244);fill-rule:nonzero;"/>
            </g>
        </g>
        <g id="XMLID_226_" transform="matrix(1.97802,0,0,1.97802,-338.004,-604.558)">
            <path d="M265.8,506.3L238.6,506.3C224.2,506.3 212.6,494.7 212.6,480.3C212.6,465.9 224.2,454.3 238.6,454.3L265.8,454.3C280.2,454.3 291.8,465.9 291.8,480.3C291.8,494.6 280.2,506.3 265.8,506.3Z" style="fill:rgb(130,93,126);fill-opacity:0.5;fill-rule:nonzero;"/>
        </g>
        <g id="XMLID_82_" transform="matrix(1.97802,0,0,1.97802,-338.004,-604.558)">
            <path d="M384.2,451.7L272.5,451.7C258.1,451.7 246.5,440.1 246.5,425.7C246.5,411.3 258.1,399.7 272.5,399.7L384.2,399.7C398.6,399.7 410.2,411.3 410.2,425.7C410.2,440.1 398.6,451.7 384.2,451.7Z" style="fill:rgb(104,68,99);fill-rule:nonzero;"/>
        </g>
        <g id="XMLID_35_" transform="matrix(1.22626,0,0,1.48675,-114.376,-259.232)">
            <path d="M888.2,713.5L111.8,713.5C104.6,713.5 98.8,707.7 98.8,700.5C98.8,693.3 104.6,687.5 111.8,687.5L888.1,687.5C895.3,687.5 901.1,693.3 901.1,700.5C901.2,707.7 895.3,713.5 888.2,713.5Z" style="fill:rgb(45,70,89);fill-opacity:0.56;fill-rule:nonzero;"/>
        </g>
        <g id="XMLID_1_" transform="matrix(1.97802,0,0,1.97802,-338.004,-604.558)">
            <rect x="435.7" y="599.5" width="20" height="100" style="fill:rgb(139,191,152);"/>
        </g>
        <g id="XMLID_17_" transform="matrix(1.97802,0,0,1.97802,-338.004,-604.558)">
            <rect x="455.7" y="599.5" width="12" height="100" style="fill:rgb(99,145,110);"/>
        </g>
        <g id="XMLID_21_" transform="matrix(1.97802,0,0,1.97802,-338.004,-604.558)">
            <rect x="547.7" y="599.5" width="20" height="100" style="fill:rgb(139,191,152);"/>
        </g>
        <g id="XMLID_16_" transform="matrix(1.97802,0,0,1.97802,-338.004,-604.558)">
            <rect x="567.7" y="599.5" width="12" height="100" style="fill:rgb(99,145,110);"/>
        </g>
        <g id="XMLID_26_" transform="matrix(1.97802,0,0,1.97802,-338.004,-604.558)">
            <rect x="631.7" y="599.5" width="20" height="100" style="fill:rgb(139,191,152);"/>
        </g>
        <g id="XMLID_19_" transform="matrix(1.97802,0,0,1.97802,-338.004,-604.558)">
            <rect x="651.7" y="599.5" width="12" height="100" style="fill:rgb(99,145,110);"/>
        </g>
        <g id="XMLID_5_" transform="matrix(1.97802,0,0,1.97802,-338.004,-604.558)">
            <path d="M431.1,547.5L407.5,547.5L407.5,375.5L431.1,375.5C434.4,375.5 437.1,378.2 437.1,381.5L437.1,541.5C437.1,544.8 434.5,547.5 431.1,547.5Z" style="fill:rgb(239,101,98);fill-rule:nonzero;"/>
        </g>
        <g id="XMLID_3_" transform="matrix(1.97802,0,0,1.97802,-338.004,-604.558)">
            <path d="M423.6,547.5L179.6,547.5C176.3,547.5 173.6,544.8 173.6,541.5L173.6,381.5C173.6,378.2 176.3,375.5 179.6,375.5L423.6,375.5C426.9,375.5 429.6,378.2 429.6,381.5L429.6,541.5C429.6,544.8 426.9,547.5 423.6,547.5Z" style="fill:rgb(236,149,139);fill-rule:nonzero;"/>
        </g>
        <g id="XMLID_14_" transform="matrix(-3.63357e-16,1.97802,-1.97802,-3.63357e-16,1171.11,-288.395)">
            <rect x="227.6" y="345.4" width="148" height="232" style="fill:rgb(52,81,91);"/>
        </g>
        <g id="XMLID_12_" transform="matrix(-3.63357e-16,1.97802,-1.97802,-3.63357e-16,944.626,-61.9112)">
            <rect x="113.1" y="459.9" width="148" height="3" style="fill:rgb(216,78,78);"/>
        </g>
        <g id="XMLID_18_" transform="matrix(1.97802,0,0,1.97802,-338.004,-604.558)">
            <rect x="413.8" y="387.4" width="3.8" height="148" style="fill:rgb(40,66,73);"/>
        </g>
        <g id="XMLID_7_" transform="matrix(1.97802,0,0,1.97802,-338.004,-604.558)">
            <rect x="304.2" y="547.5" width="18.2" height="152" style="fill:rgb(216,78,78);"/>
        </g>
        <g id="XMLID_6_" transform="matrix(1.97802,0,0,1.97802,-338.004,-604.558)">
            <rect x="296.6" y="547.5" width="18.2" height="152" style="fill:rgb(239,101,98);"/>
        </g>
        <g id="XMLID_24_" transform="matrix(1.97802,0,0,1.97802,-338.004,-603.55)">
            <rect x="296.6" y="547.5" width="18.2" height="7.4" style="fill:rgb(216,78,78);"/>
        </g>
        <g id="XMLID_10_" transform="matrix(1.97802,0,0,1.97802,-338.004,-604.558)">
            <path d="M376.6,699.5L253.9,699.5L253.9,687.5C253.9,680.9 259.3,675.5 265.9,675.5L364.6,675.5C371.2,675.5 376.6,680.9 376.6,687.5L376.6,699.5Z" style="fill:rgb(239,101,98);fill-rule:nonzero;"/>
        </g>
        <g id="XMLID_8_" transform="matrix(1.97802,0,0,1.97802,-338.004,-604.558)">
            <path d="M365.5,699.5L242.8,699.5L242.8,687.5C242.8,680.9 248.2,675.5 254.8,675.5L353.5,675.5C360.1,675.5 365.5,680.9 365.5,687.5L365.5,699.5Z" style="fill:rgb(236,149,139);fill-rule:nonzero;"/>
        </g>
        <g id="XMLID_11_" transform="matrix(1.97802,0,0,1.97802,-338.004,-603.55)">
            <rect x="435.7" y="580.4" width="132" height="19.1" style="fill:rgb(139,191,152);"/>
        </g>
        <g id="XMLID_48_" transform="matrix(1.97802,0,0,1.97802,-338.004,-603.55)">
            <rect x="567.7" y="580.4" width="96" height="19.1" style="fill:rgb(99,145,110);"/>
        </g>
        <g id="XMLID_13_" transform="matrix(1.97802,0,0,1.97802,-338.004,-603.55)">
            <rect x="428.7" y="567.1" width="129" height="13.3" style="fill:rgb(159,214,163);"/>
        </g>
        <g id="XMLID_54_" transform="matrix(1.97802,0,0,1.97802,-338.004,-603.55)">
            <rect x="435.7" y="580.4" width="132" height="4" style="fill:rgb(99,145,110);"/>
        </g>
        <g id="XMLID_56_" transform="matrix(1.97802,0,0,1.97802,-338.004,-603.55)">
            <rect x="557.7" y="567.1" width="115.6" height="13.3" style="fill:rgb(131,183,141);"/>
        </g>
        <g id="XMLID_114_" transform="matrix(1.97802,0,0,1.97802,-338.004,-603.55)">
            <rect x="567.7" y="580.4" width="96" height="4" style="fill:rgb(87,127,93);"/>
        </g>
        <g id="XMLID_44_" transform="matrix(1.97802,0,0,1.97802,-338.004,-603.55)">
            <g id="XMLID_70_" transform="matrix(0.9911,-0.1334,0.1334,0.9911,-60.7587,85.2339)">
                <rect x="601" y="453.6" width="9.4" height="84.8" style="fill:rgb(221,88,88);"/>
            </g>
            <g id="XMLID_72_" transform="matrix(0.9911,-0.1334,0.1334,0.9911,-56.9574,84.4606)">
                <rect x="596.5" y="456.2" width="10.6" height="22.3" style="fill:rgb(239,101,98);"/>
            </g>
            <g id="XMLID_123_" transform="matrix(0.9911,-0.1334,0.1334,0.9911,-56.0165,83.4062)">
                <rect x="593.4" y="459" width="2" height="1.4" style="fill:rgb(232,232,232);"/>
            </g>
            <path id="XMLID_126_" d="M596.2,476.3L595.6,476.4L593.5,460.7L594.9,460.5L596.9,475.4C597,475.7 596.7,476.2 596.2,476.3Z" style="fill:rgb(232,232,232);fill-rule:nonzero;"/>
            <g id="XMLID_125_" transform="matrix(0.9911,-0.1334,0.1334,0.9911,-58.4882,84.772)">
                <rect x="598.7" y="478.3" width="9.4" height="1.1" style="fill:rgb(211,80,80);"/>
            </g>
        </g>
        <g id="XMLID_76_" transform="matrix(1.97802,0,0,1.97802,-338.004,-603.55)">
            <path id="XMLID_60_" d="M583.7,479.6L575.6,482.1L571.9,470.2C571.4,468.6 572.3,466.9 573.9,466.4L576.3,465.7C577.9,465.2 579.6,466.1 580.1,467.7L583.7,479.6Z" style="fill:rgb(232,232,232);fill-rule:nonzero;"/>
            <g id="XMLID_69_" transform="matrix(0.9544,-0.2986,0.2986,0.9544,-120.076,196.424)">
                <rect x="576.6" y="480.4" width="12.6" height="21.8" style="fill:rgb(53,57,61);"/>
            </g>
            <path id="XMLID_129_" d="M579,500.7L588.8,488.4L586.7,481.8L576.9,494.1L579,500.7Z" style="fill:rgb(128,130,132);fill-rule:nonzero;"/>
            <g id="XMLID_62_" transform="matrix(0.9544,-0.2986,0.2986,0.9544,-128.984,200.78)">
                <rect x="587" y="500.6" width="11.4" height="43.9" style="fill:rgb(59,64,68);"/>
            </g>
            <g id="XMLID_74_" transform="matrix(0.9544,-0.2986,0.2986,0.9544,-129.236,200.266)">
                <rect x="589" y="501.2" width="3.8" height="43.9" style="fill:rgb(109,111,112);fill-opacity:0.66;"/>
            </g>
        </g>
        <g id="XMLID_134_" transform="matrix(1.97802,0,0,1.97802,-338.004,-603.55)">
            <path id="XMLID_169_" d="M633.9,463.9L630,463.3L625.1,472.1L636.1,473.7L633.9,463.9Z" style="fill:rgb(197,225,223);fill-rule:nonzero;"/>
            <path id="XMLID_166_" d="M621.4,545.3L618.5,544.9C616.3,544.6 614.8,542.5 615.1,540.3L625.2,472.1L636.1,473.7L626,541.9C625.7,544.1 623.6,545.7 621.4,545.3Z" style="fill:rgb(179,219,173);fill-rule:nonzero;"/>
            <path id="XMLID_163_" d="M617.3,544.7L616.5,544.6C615.4,544.4 614.6,543.4 614.7,542.2L625.1,472L627.9,472.4L617.3,544.7Z" style="fill:rgb(104,165,117);fill-rule:nonzero;"/>
            <path id="XMLID_156_" d="M623.3,545.6L622.5,545.5L633.2,473.3L636,473.7L625.6,543.9C625.5,545 624.5,545.8 623.3,545.6Z" style="fill:rgb(104,165,117);fill-rule:nonzero;"/>
            <path id="XMLID_146_" d="M633.9,463.9L633,459.9C632.9,459.3 632.2,459.2 631.9,459.7L629.9,463.3L633.9,463.9Z" style="fill:rgb(111,90,102);fill-rule:nonzero;"/>
            <path id="XMLID_141_" d="M633.9,463.9L632,463.6L633.2,473.3L636.1,473.7L633.9,463.9Z" style="fill:rgb(165,206,202);fill-rule:nonzero;"/>
        </g>
        <g id="XMLID_22_" transform="matrix(1.97802,0,0,1.97802,-338.004,-603.55)">
            <path d="M633.9,567.1L577.9,567.1L577.9,509.5C577.9,508.4 578.8,507.5 579.9,507.5L631.9,507.5C633,507.5 633.9,508.4 633.9,509.5L633.9,567.1Z" style="fill:rgb(242,224,124);fill-rule:nonzero;"/>
        </g>
        <g id="XMLID_150_" transform="matrix(1.97802,0,0,1.97802,-338.004,-603.55)">
            <path d="M625.9,507.5L625.9,567.1L633.9,567.1L633.9,509.5C633.9,508.4 633,507.5 631.9,507.5L625.9,507.5Z" style="fill:rgb(223,187,77);fill-rule:nonzero;"/>
        </g>
        <g id="XMLID_144_" transform="matrix(1.97802,0,0,1.97802,-338.004,-603.55)">
            <rect x="564.3" y="537.3" width="31.1" height="29.8" style="fill:rgb(110,126,224);"/>
        </g>
        <g id="XMLID_140_" transform="matrix(1.97802,0,0,1.97802,-338.004,-603.55)">
            <rect x="564.3" y="537.3" width="3.4" height="29.8" style="fill:rgb(122,140,226);"/>
        </g>
        <g id="XMLID_147_" transform="matrix(-1.97802,-2.42238e-16,2.42238e-16,-1.97802,2008.44,1580.83)">
            <rect x="590.9" y="537.3" width="4.5" height="29.8" style="fill:rgb(99,115,193);"/>
        </g>
        <g id="XMLID_155_" transform="matrix(-1.97802,-2.42238e-16,2.42238e-16,-1.97802,2022.93,1580.83)">
            <rect x="595.4" y="537.3" width="2.8" height="29.8" style="fill:rgb(223,187,77);"/>
        </g>
        <g id="XMLID_142_" transform="matrix(1.97802,0,0,1.97802,-338.004,-603.55)">
            <rect x="471.5" y="543.6" width="23.4" height="23.4" style="fill:rgb(236,149,139);"/>
        </g>
        <g id="XMLID_154_" transform="matrix(1.97802,0,0,1.97802,-338.004,-603.55)">
            <rect x="471.5" y="543.6" width="23.4" height="1.1" style="fill:rgb(239,101,98);"/>
        </g>
        <g id="XMLID_152_" transform="matrix(1.97802,0,0,1.97802,-338.004,-603.55)">
            <rect x="494.9" y="543.6" width="12.4" height="23.4" style="fill:rgb(239,101,98);"/>
        </g>
        <g id="XMLID_148_" transform="matrix(1.97802,0,0,1.97802,-338.004,-603.55)">
            <path d="M485.7,558.7L481.8,558.7L481.2,560.6L479.1,560.6L482.6,550.8L484.9,550.8L488.4,560.6L486.3,560.6L485.7,558.7ZM483.7,553.1L482.3,557.2L485.1,557.2L483.7,553.1Z" style="fill:white;fill-rule:nonzero;"/>
        </g>
        <g id="XMLID_186_" transform="matrix(1.97802,0,0,1.97802,-338.004,-603.55)">
            <rect x="504.7" y="543.6" width="23.4" height="23.4" style="fill:rgb(232,181,139);"/>
        </g>
        <g id="XMLID_158_" transform="matrix(1.97802,0,0,1.97802,-338.004,-603.55)">
            <rect x="528.1" y="543.6" width="12.4" height="23.4" style="fill:rgb(224,157,108);"/>
        </g>
        <g id="XMLID_157_" transform="matrix(1.97802,0,0,1.97802,-338.004,-603.55)">
            <path d="M516.5,550.8C518.9,550.8 520,552.2 520,553.8C520,555 519.3,556.2 517.8,556.6L520.1,560.6L517.8,560.6L515.6,556.8L514.7,556.8L514.7,560.6L512.7,560.6L512.7,550.8L516.5,550.8ZM516.5,552.4L514.9,552.4L514.9,555.3L516.5,555.3C517.6,555.3 518.1,554.7 518.1,553.8C518,553 517.5,552.4 516.5,552.4Z" style="fill:white;fill-rule:nonzero;"/>
        </g>
        <g id="XMLID_193_" transform="matrix(1.97802,0,0,1.97802,-338.004,-603.55)">
            <rect x="465.3" y="520.2" width="23.4" height="23.4" style="fill:rgb(27,177,178);"/>
        </g>
        <g id="XMLID_181_" transform="matrix(1.97802,0,0,1.97802,-338.004,-603.55)">
            <rect x="488.7" y="520.2" width="12.4" height="23.4" style="fill:rgb(25,165,161);"/>
        </g>
        <g id="XMLID_159_" transform="matrix(1.97802,0,0,1.97802,-338.004,-603.55)">
            <path d="M480.2,527.4L482.3,527.4L478.7,537.2L476.3,537.2L472.7,527.4L474.8,527.4L477.5,535.2L480.2,527.4Z" style="fill:white;fill-rule:nonzero;"/>
        </g>
        <g transform="matrix(1.69959,0,0,1.69959,-318.266,-491.23)">
            <text x="220.2px" y="484.253px" style="font-family:'ArialMT', 'Arial', sans-serif;font-size:53.767px;fill:white;">Examples</text>
        </g>
        <g id="XMLID_231_" transform="matrix(1.97802,0,0,1.97802,-338.004,-603.55)">
            <path d="M281.5,687.5L258.5,687.5C256.8,687.5 255.5,686.2 255.5,684.5C255.5,682.8 256.8,681.5 258.5,681.5L281.5,681.5C283.2,681.5 284.5,682.8 284.5,684.5C284.5,686.1 283.2,687.5 281.5,687.5Z" style="fill:rgb(239,101,98);fill-opacity:0.23;fill-rule:nonzero;"/>
        </g>
        <g id="XMLID_232_" transform="matrix(1.97802,0,0,1.97802,-338.004,-603.55)">
            <path d="M304.2,687.5L297.5,687.5C295.8,687.5 294.5,686.2 294.5,684.5C294.5,682.8 295.8,681.5 297.5,681.5L304.2,681.5C305.9,681.5 307.2,682.8 307.2,684.5C307.2,686.1 305.9,687.5 304.2,687.5Z" style="fill:rgb(239,101,98);fill-opacity:0.23;fill-rule:nonzero;"/>
        </g>
        <g id="XMLID_234_" transform="matrix(1.97802,0,0,1.97802,-338.004,-603.55)">
            <path d="M354,695L327.2,695C325.5,695 324.2,693.7 324.2,692C324.2,690.3 325.5,689 327.2,689L354,689C355.7,689 357,690.3 357,692C357,693.6 355.7,695 354,695Z" style="fill:rgb(239,101,98);fill-opacity:0.23;fill-rule:nonzero;"/>
        </g>
        <g id="XMLID_28_" transform="matrix(1.97802,0,0,1.97802,-338.004,-603.55)">
            <path d="M343.2,695L338,695C336.3,695 335,693.7 335,692C335,690.3 336.3,689 338,689L343.2,689C344.9,689 346.2,690.3 346.2,692C346.2,693.6 344.9,695 343.2,695Z" style="fill:rgb(239,101,98);fill-opacity:0.23;fill-rule:nonzero;"/>
        </g>
        <g id="XMLID_248_" transform="matrix(1.97802,0,0,1.97802,-338.004,-603.55)">
            <path d="M472.1,589.9L451.3,589.9C450.4,589.9 449.6,589.2 449.6,588.2C449.6,587.3 450.3,586.5 451.3,586.5L472.1,586.5C473,586.5 473.8,587.2 473.8,588.2C473.7,589.2 473,589.9 472.1,589.9Z" style="fill:rgb(99,145,110);fill-opacity:0.18;fill-rule:nonzero;"/>
        </g>
        <g id="XMLID_254_" transform="matrix(1.97802,0,0,1.97802,-338.004,-603.55)">
            <path d="M488,589.9L478.5,589.9C477.6,589.9 476.8,589.2 476.8,588.2C476.8,587.3 477.5,586.5 478.5,586.5L488,586.5C488.9,586.5 489.7,587.2 489.7,588.2C489.6,589.2 488.9,589.9 488,589.9Z" style="fill:rgb(99,145,110);fill-opacity:0.18;fill-rule:nonzero;"/>
        </g>
        <g id="XMLID_255_" transform="matrix(1.97802,0,0,1.97802,-338.004,-603.55)">
            <path d="M500.9,595.7L480.4,595.7C479.5,595.7 478.7,595 478.7,594C478.7,593.1 479.4,592.3 480.4,592.3L500.9,592.3C501.8,592.3 502.6,593 502.6,594C502.5,594.9 501.8,595.7 500.9,595.7Z" style="fill:rgb(99,145,110);fill-opacity:0.18;fill-rule:nonzero;"/>
        </g>
        <g id="XMLID_268_" transform="matrix(1.97802,0,0,1.97802,-338.004,-603.55)">
            <path d="M537.4,595.7L531.3,595.7C530.4,595.7 529.6,595 529.6,594C529.6,593.1 530.3,592.3 531.3,592.3L537.4,592.3C538.3,592.3 539.1,593 539.1,594C539,594.9 538.3,595.7 537.4,595.7Z" style="fill:rgb(99,145,110);fill-opacity:0.18;fill-rule:nonzero;"/>
        </g>
        <g id="XMLID_256_" transform="matrix(1.97802,0,0,1.97802,-338.004,-603.55)">
            <path d="M543.5,590.9L537.4,590.9C536.5,590.9 535.7,590.2 535.7,589.2C535.7,588.3 536.4,587.5 537.4,587.5L543.5,587.5C544.4,587.5 545.2,588.2 545.2,589.2C545.2,590.1 544.5,590.9 543.5,590.9Z" style="fill:rgb(99,145,110);fill-opacity:0.18;fill-rule:nonzero;"/>
        </g>
        <g id="XMLID_282_" transform="matrix(1.97802,0,0,1.97802,-338.004,-603.55)">
            <path d="M607.6,595.7L584.1,595.7C583.2,595.7 582.4,595 582.4,594C582.4,593.1 583.1,592.3 584.1,592.3L607.6,592.3C608.5,592.3 609.3,593 609.3,594C609.2,594.9 608.5,595.7 607.6,595.7Z" style="fill:rgb(139,191,152);fill-opacity:0.26;fill-rule:nonzero;"/>
        </g>
        <g id="XMLID_279_" transform="matrix(1.97802,0,0,1.97802,-338.004,-603.55)">
            <path d="M641.1,595.7L635,595.7C634.1,595.7 633.3,595 633.3,594C633.3,593.1 634,592.3 635,592.3L641.1,592.3C642,592.3 642.8,593 642.8,594C642.7,594.9 642,595.7 641.1,595.7Z" style="fill:rgb(139,191,152);fill-opacity:0.26;fill-rule:nonzero;"/>
        </g>
        <g id="XMLID_271_" transform="matrix(1.97802,0,0,1.97802,-338.004,-603.55)">
            <path d="M614,590L600.8,590C599.9,590 599.1,589.3 599.1,588.3C599.1,587.4 599.8,586.6 600.8,586.6L614,586.6C614.9,586.6 615.7,587.3 615.7,588.3C615.7,589.3 615,590 614,590Z" style="fill:rgb(139,191,152);fill-opacity:0.26;fill-rule:nonzero;"/>
        </g>
    </g>
</svg>
