<?xml version="1.0" encoding="UTF-8" standalone="no"?>
<!-- Created with Inkscape (http://www.inkscape.org/) -->

<svg
   xmlns:dc="http://purl.org/dc/elements/1.1/"
   xmlns:cc="http://creativecommons.org/ns#"
   xmlns:rdf="http://www.w3.org/1999/02/22-rdf-syntax-ns#"
   xmlns:svg="http://www.w3.org/2000/svg"
   xmlns="http://www.w3.org/2000/svg"
   xmlns:sodipodi="http://sodipodi.sourceforge.net/DTD/sodipodi-0.dtd"
   xmlns:inkscape="http://www.inkscape.org/namespaces/inkscape"
   width="860"
   height="435"
   viewBox="0 0 227.54167 115.09376"
   version="1.1"
   id="svg1982"
   inkscape:version="0.92.4 (5da689c313, 2019-01-14)"
   sodipodi:docname="feature-intuitive-api.svg">
  <defs
     id="defs1976" />
  <sodipodi:namedview
     id="base"
     pagecolor="#ffffff"
     bordercolor="#666666"
     borderopacity="1.0"
     inkscape:pageopacity="0.0"
     inkscape:pageshadow="2"
     inkscape:zoom="0.98994949"
     inkscape:cx="496.68506"
     inkscape:cy="128.38054"
     inkscape:document-units="px"
     inkscape:current-layer="XMLID_19_-0"
     showgrid="false"
     units="px"
     inkscape:window-width="1920"
     inkscape:window-height="1017"
     inkscape:window-x="1358"
     inkscape:window-y="-8"
     inkscape:window-maximized="1" />
  <metadata
     id="metadata1979">
    <rdf:RDF>
      <cc:Work
         rdf:about="">
        <dc:format>image/svg+xml</dc:format>
        <dc:type
           rdf:resource="http://purl.org/dc/dcmitype/StillImage" />
        <dc:title></dc:title>
      </cc:Work>
    </rdf:RDF>
  </metadata>
  <g
     inkscape:label="Layer 1"
     inkscape:groupmode="layer"
     id="layer1"
     transform="translate(0,-181.90623)">
    <g
       id="g2593"
       transform="matrix(0.26458333,0,0,0.26458333,36.663692,-5.3809508)">
      <g
         id="XMLID_34_"
         transform="matrix(1.0026633,0,0,1.0026633,-299.19808,474.56224)">
        <g
           id="XMLID_19_"
           transform="translate(235.74784,-2.0149388)">
          <g
             id="XMLID_160_">
            <g
               id="g3787"
               transform="matrix(0.99734384,0,0,0.99734384,-296.38828,-12.508711)">
              <g
                 id="XMLID_34_-8"
                 transform="matrix(1.3473288,0,0,1.3473288,5.5865117,-214.97653)">
	<path
   d="M 789.5,666.3 H 169.2 c -5,0 -9,-4 -9,-9 v 0 c 0,-5 4,-9 9,-9 h 620.3 c 5,0 9,4 9,9 v 0 c 0,5 -4,9 -9,9 z"
   class="st2"
   id="XMLID_223_"
   inkscape:connector-curvature="0"
   style="fill:#c9c9c9" />

	<g
   id="XMLID_19_-0">
		<g
   id="XMLID_163_">
			<path
   d="m 285.9,573.3 c -9.6,0 -17.3,-7.8 -17.3,-17.3 0,-9.5 7.8,-17.3 17.3,-17.3 h 98 v 34.7 h -98 z"
   class="st3"
   id="XMLID_178_"
   inkscape:connector-curvature="0"
   style="fill:#cecece" />

			<path
   d="M 389.6,579.3 H 285.9 c -12.9,0 -23.3,-10.5 -23.3,-23.3 v 0 c 0,-12.9 10.5,-23.3 23.3,-23.3 h 103.7 z"
   class="st4"
   id="XMLID_162_"
   inkscape:connector-curvature="0"
   style="fill:#ffffff" />

			<line
   y2="550.59998"
   x2="383.89999"
   y1="550.59998"
   x1="279.5"
   class="st5"
   id="XMLID_164_"
   style="fill:none;stroke:#1f3969;stroke-width:4;stroke-linecap:round;stroke-linejoin:round;stroke-miterlimit:10" />

			<line
   y2="561.20001"
   x2="383.89999"
   y1="561.20001"
   x1="279.5"
   class="st5"
   id="XMLID_173_"
   style="fill:none;stroke:#1f3969;stroke-width:4;stroke-linecap:round;stroke-linejoin:round;stroke-miterlimit:10" />

			<path
   d="m 285.9,573.3 c -9.6,0 -17.3,-7.8 -17.3,-17.3 0,-9.5 7.8,-17.3 17.3,-17.3 h 98 v 34.7 h -98 z"
   class="st5"
   id="XMLID_179_"
   inkscape:connector-curvature="0"
   style="fill:none;stroke:#1f3969;stroke-width:4;stroke-linecap:round;stroke-linejoin:round;stroke-miterlimit:10" />

			<path
   d="m 285.9,573.3 c -9.6,0 -17.3,-7.8 -17.3,-17.3 0,-9.5 7.8,-17.3 17.3,-17.3 h 99.7 l 4,-6 H 285.9 c -12.9,0 -23.3,10.5 -23.3,23.3 v 0 c 0,12.9 10.5,23.3 23.3,23.3 h 103.7 l -4,-6 z"
   class="st6"
   id="XMLID_161_"
   inkscape:connector-curvature="0"
   style="fill:#ff3e3e" />

			<path
   d="m 285.9,573.3 c -9.6,0 -17.3,-7.8 -17.3,-17.3 0,-9.5 7.8,-17.3 17.3,-17.3 h 99.7 l 4,-6 H 285.9 c -12.9,0 -23.3,10.5 -23.3,23.3 v 0 c 0,12.9 10.5,23.3 23.3,23.3 h 103.7 l -4,-6 z"
   class="st5"
   id="XMLID_182_"
   inkscape:connector-curvature="0"
   style="fill:none;stroke:#1f3969;stroke-width:4;stroke-linecap:round;stroke-linejoin:round;stroke-miterlimit:10" />

			<rect
   height="46.700001"
   width="18.4"
   class="st7"
   y="532.59998"
   x="348.89999"
   id="XMLID_224_"
   style="opacity:0.28000004;fill:#1f3969;stroke:#1f3969;stroke-width:4;stroke-linecap:round;stroke-linejoin:round;stroke-miterlimit:10" />

		</g>

		<g
   id="XMLID_160_-6">
			<path
   d="M 378.9,617.8 H 189 c -3.7,0 -6.8,-3 -6.8,-6.8 v -25 c 0,-3.7 3,-6.8 6.8,-6.8 h 189.9 c 3.7,0 6.8,3 6.8,6.8 v 25 c 0,3.8 -3,6.8 -6.8,6.8 z"
   class="st8"
   id="XMLID_157_"
   inkscape:connector-curvature="0"
   style="fill:#50b56f" />

			
			<path
   d="M 378.9,617.8 H 189 c -3.7,0 -6.8,-3 -6.8,-6.8 v -25 c 0,-3.7 3,-6.8 6.8,-6.8 h 189.9 c 3.7,0 6.8,3 6.8,6.8 v 25 c 0,3.8 -3,6.8 -6.8,6.8 z"
   class="st5"
   id="XMLID_146_"
   inkscape:connector-curvature="0"
   style="fill:none;stroke:#1f3969;stroke-width:4;stroke-linecap:round;stroke-linejoin:round;stroke-miterlimit:10" />

		</g>

		<path
   d="m 378.9,579.3 h -30 v 15 c 0,9.4 7.6,17.1 17.1,17.1 h 19.7 c 0,-0.1 0,-0.2 0,-0.3 v -25 c 0,-3.8 -3,-6.8 -6.8,-6.8 z"
   class="st7"
   id="XMLID_246_"
   inkscape:connector-curvature="0"
   style="opacity:0.28000004;fill:#1f3969;stroke:#1f3969;stroke-width:4;stroke-linecap:round;stroke-linejoin:round;stroke-miterlimit:10" />

		<path
   d="m 432.4,625.6 h -220 c 1.3,3.2 2,7.2 2,11.4 0,4.2 -0.7,8.1 -2,11.4 h 219.9 c -1.3,-3.2 -2,-7.2 -2,-11.4 0.1,-4.3 0.8,-8.2 2.1,-11.4 z"
   class="st3"
   id="XMLID_35_"
   inkscape:connector-curvature="0"
   style="fill:#cecece" />

		<rect
   height="6"
   width="231.89999"
   class="st9"
   y="619.5"
   x="206.5"
   id="XMLID_156_"
   style="fill:#5f5aff" />

		<rect
   height="6"
   width="231.89999"
   class="st5"
   y="619.5"
   x="206.5"
   id="XMLID_32_"
   style="fill:none;stroke:#1f3969;stroke-width:4;stroke-linecap:round;stroke-linejoin:round;stroke-miterlimit:10" />

		<rect
   height="6"
   width="231.89999"
   class="st10"
   y="648.29999"
   x="206.5"
   id="XMLID_147_"
   style="fill:#f6f9fd" />

		<rect
   height="6"
   width="231.89999"
   class="st9"
   y="648.29999"
   x="206.5"
   id="XMLID_39_"
   style="fill:#5f5aff" />

		<rect
   height="6"
   width="231.89999"
   class="st5"
   y="648.29999"
   x="206.5"
   id="XMLID_37_"
   style="fill:none;stroke:#1f3969;stroke-width:4;stroke-linecap:round;stroke-linejoin:round;stroke-miterlimit:10" />

		<path
   d="m 553.6,633 -3,-33.7 h -49.4 l -3,33.7 c -0.7,7.8 -5.4,15.3 -12.8,21.3 v 0.1 h 81 v -0.1 c -7.4,-6 -12.1,-13.5 -12.8,-21.3 z"
   class="st11"
   id="XMLID_69_"
   inkscape:connector-curvature="0"
   style="fill:#bfcfe2" />

		<polygon
   points="499.4,619.5 552.4,619.5 550.6,599.3 501.2,599.3 "
   class="st7"
   id="XMLID_33_"
   style="opacity:0.28000004;fill:#1f3969;stroke:#1f3969;stroke-width:4;stroke-linecap:round;stroke-linejoin:round;stroke-miterlimit:10" />

		<path
   d="m 553.6,633 -3,-33.7 h -49.4 l -3,33.7 c -0.7,7.8 -5.4,15.3 -12.8,21.3 v 0.1 h 81 v -0.1 c -7.4,-6 -12.1,-13.5 -12.8,-21.3 z"
   class="st5"
   id="XMLID_10_"
   inkscape:connector-curvature="0"
   style="fill:none;stroke:#1f3969;stroke-width:4;stroke-linecap:round;stroke-linejoin:round;stroke-miterlimit:10" />

		<path
   d="m 683.9,604.3 h -316 c -6.6,0 -12,-5.4 -12,-12 v -206 c 0,-6.6 5.4,-12 12,-12 h 316 c 6.6,0 12,5.4 12,12 v 206 c 0,6.7 -5.4,12 -12,12 z"
   class="st4"
   id="XMLID_13_"
   inkscape:connector-curvature="0"
   style="fill:#ffffff" />

		<path
   d="m 683.9,604.3 h -316 c -6.6,0 -12,-5.4 -12,-12 v -206 c 0,-6.6 5.4,-12 12,-12 h 316 c 6.6,0 12,5.4 12,12 v 206 c 0,6.7 -5.4,12 -12,12 z"
   class="st11"
   id="XMLID_63_"
   inkscape:connector-curvature="0"
   style="fill:#bfcfe2" />

		<path
   d="m 683.9,604.3 h -316 c -6.6,0 -12,-5.4 -12,-12 v -206 c 0,-6.6 5.4,-12 12,-12 h 316 c 6.6,0 12,5.4 12,12 v 206 c 0,6.7 -5.4,12 -12,12 z"
   class="st5"
   id="XMLID_4_"
   inkscape:connector-curvature="0"
   style="fill:none;stroke:#1f3969;stroke-width:4;stroke-linecap:round;stroke-linejoin:round;stroke-miterlimit:10" />

		
			<rect
   height="306"
   width="174.60001"
   class="st10"
   transform="rotate(90,525.91375,478.64185)"
   y="325.60001"
   x="438.60001"
   id="XMLID_68_"
   style="fill:#f6f9fd" />

		<path
   d="m 383.9,374.3 v 138.6 c 0,4.4 3.6,8 8,8 H 581 c 4.4,0 8,-3.6 8,-8 V 374.3 Z"
   class="st7"
   id="XMLID_197_"
   inkscape:connector-curvature="0"
   style="opacity:0.28000004;fill:#1f3969;stroke:#1f3969;stroke-width:4;stroke-linecap:round;stroke-linejoin:round;stroke-miterlimit:10" />

		
			<rect
   height="306"
   width="174.60001"
   class="st5"
   transform="rotate(90,525.91375,478.64185)"
   y="325.60001"
   x="438.60001"
   id="XMLID_11_"
   style="fill:none;stroke:#1f3969;stroke-width:4;stroke-linecap:round;stroke-linejoin:round;stroke-miterlimit:10" />

		<line
   y2="585"
   x2="539.40002"
   y1="585"
   x1="512.5"
   class="st5"
   id="XMLID_9_"
   style="fill:none;stroke:#1f3969;stroke-width:4;stroke-linecap:round;stroke-linejoin:round;stroke-miterlimit:10" />

		<path
   d="M 590,509.9 H 400.9 c -4.4,0 -8,-3.6 -8,-8 V 353.7 c 0,-4.4 3.6,-8 8,-8 H 590 c 4.4,0 8,3.6 8,8 V 502 c 0,4.4 -3.6,7.9 -8,7.9 z"
   class="st1"
   id="XMLID_15_"
   inkscape:connector-curvature="0"
   style="fill:#2d425e" />

		<path
   d="M 598,365.1 H 392.9 v -11.5 c 0,-4.4 3.6,-8 8,-8 H 590 c 4.4,0 8,3.6 8,8 z"
   class="st5"
   id="XMLID_17_"
   inkscape:connector-curvature="0"
   style="fill:none;stroke:#1f3969;stroke-width:4;stroke-linecap:round;stroke-linejoin:round;stroke-miterlimit:10" />

		<path
   d="M 598,368.9 H 392.9 v -15.3 c 0,-4.4 3.6,-8 8,-8 H 590 c 4.4,0 8,3.6 8,8 z"
   class="st12"
   id="XMLID_23_"
   inkscape:connector-curvature="0"
   style="fill:#d0ddf0" />

		<path
   d="M 598,368.9 H 392.9 v -15.3 c 0,-4.4 3.6,-8 8,-8 H 590 c 4.4,0 8,3.6 8,8 z"
   class="st5"
   id="XMLID_18_"
   inkscape:connector-curvature="0"
   style="fill:none;stroke:#1f3969;stroke-width:4;stroke-linecap:round;stroke-linejoin:round;stroke-miterlimit:10" />

		<path
   d="M 598,368.9 H 392.9 v -15.3 c 0,-4.4 3.6,-8 8,-8 H 590 c 4.4,0 8,3.6 8,8 z"
   class="st5"
   id="XMLID_20_"
   inkscape:connector-curvature="0"
   style="fill:none;stroke:#1f3969;stroke-width:4;stroke-linecap:round;stroke-linejoin:round;stroke-miterlimit:10" />

		<path
   d="M 590,509.9 H 400.9 c -4.4,0 -8,-3.6 -8,-8 V 353.7 c 0,-4.4 3.6,-8 8,-8 H 590 c 4.4,0 8,3.6 8,8 V 502 c 0,4.4 -3.6,7.9 -8,7.9 z"
   class="st5"
   id="XMLID_12_"
   inkscape:connector-curvature="0"
   style="fill:none;stroke:#1f3969;stroke-width:4;stroke-linecap:round;stroke-linejoin:round;stroke-miterlimit:10" />

		<g
   id="XMLID_72_">
			<path
   d="m 688.7,545.3 h -116 c -4.4,0 -8,-3.6 -8,-8 V 414.4 c 0,-4.4 3.6,-8 8,-8 h 116 c 4.4,0 8,3.6 8,8 v 122.9 c 0,4.5 -3.6,8 -8,8 z"
   class="st7"
   id="XMLID_7_"
   inkscape:connector-curvature="0"
   style="opacity:0.28000004;fill:#1f3969;stroke:#1f3969;stroke-width:4;stroke-linecap:round;stroke-linejoin:round;stroke-miterlimit:10" />

			<path
   d="m 696.7,538.3 h -116 c -4.4,0 -8,-3.6 -8,-8 V 407.4 c 0,-4.4 3.6,-8 8,-8 h 116 c 4.4,0 8,3.6 8,8 v 122.9 c 0,4.5 -3.6,8 -8,8 z"
   class="st13"
   id="XMLID_16_"
   inkscape:connector-curvature="0"
   style="fill:#2aa1ff" />

			<path
   d="m 696.7,538.3 h -116 c -4.4,0 -8,-3.6 -8,-8 V 407.4 c 0,-4.4 3.6,-8 8,-8 h 116 c 4.4,0 8,3.6 8,8 v 122.9 c 0,4.5 -3.6,8 -8,8 z"
   class="st5"
   id="XMLID_14_"
   inkscape:connector-curvature="0"
   style="fill:none;stroke:#1f3969;stroke-width:4;stroke-linecap:round;stroke-linejoin:round;stroke-miterlimit:10" />

			<path
   d="m 679.4,437.5 h -81.6 c -2.9,0 -5.2,-2.3 -5.2,-5.2 v -7.8 c 0,-2.9 2.3,-5.2 5.2,-5.2 h 81.6 c 2.9,0 5.2,2.3 5.2,5.2 v 7.8 c 0,2.9 -2.3,5.2 -5.2,5.2 z"
   class="st14"
   id="XMLID_75_"
   inkscape:connector-curvature="0"
   style="opacity:0.34000017;fill:none;stroke:#ffffff;stroke-width:2;stroke-linecap:round;stroke-linejoin:round;stroke-miterlimit:10" />

			<g
   class="st15"
   id="XMLID_143_"
   style="opacity:0.34000017">
				<path
   d="M 643.6,466.8 H 598 c -2.9,0 -5.2,-2.3 -5.2,-5.2 v -7.8 c 0,-2.9 2.3,-5.2 5.2,-5.2 h 45.6 c 2.9,0 5.2,2.3 5.2,5.2 v 7.8 c -0.1,2.9 -2.4,5.2 -5.2,5.2 z"
   class="st16"
   id="XMLID_78_"
   inkscape:connector-curvature="0"
   style="fill:none;stroke:#ffffff;stroke-width:2;stroke-linecap:round;stroke-linejoin:round;stroke-miterlimit:10" />

				<path
   d="m 679.5,466.8 h -17.7 c -2.9,0 -5.2,-2.3 -5.2,-5.2 v -7.8 c 0,-2.9 2.3,-5.2 5.2,-5.2 h 17.7 c 2.9,0 5.2,2.3 5.2,5.2 v 7.8 c 0,2.9 -2.3,5.2 -5.2,5.2 z"
   class="st16"
   id="XMLID_79_"
   inkscape:connector-curvature="0"
   style="fill:none;stroke:#ffffff;stroke-width:2;stroke-linecap:round;stroke-linejoin:round;stroke-miterlimit:10" />

			</g>

			<g
   id="XMLID_76_">
				<line
   y2="497.20001"
   x2="684.59998"
   y1="497.20001"
   x1="592.70001"
   class="st16"
   id="XMLID_135_"
   style="fill:none;stroke:#ffffff;stroke-width:2;stroke-linecap:round;stroke-linejoin:round;stroke-miterlimit:10" />

				<line
   y2="508"
   x2="684.59998"
   y1="508"
   x1="592.70001"
   class="st16"
   id="XMLID_136_"
   style="fill:none;stroke:#ffffff;stroke-width:2;stroke-linecap:round;stroke-linejoin:round;stroke-miterlimit:10" />

				<line
   y2="518.79999"
   x2="648.70001"
   y1="518.79999"
   x1="592.70001"
   class="st16"
   id="XMLID_138_"
   style="fill:none;stroke:#ffffff;stroke-width:2;stroke-linecap:round;stroke-linejoin:round;stroke-miterlimit:10" />

			</g>

		</g>

		<circle
   r="4"
   cy="357.29999"
   cx="413"
   class="st17"
   id="XMLID_24_"
   style="fill:#1f3969" />

		<circle
   r="4"
   cy="357.29999"
   cx="426.89999"
   class="st17"
   id="XMLID_28_"
   style="fill:#1f3969" />

		<circle
   r="4"
   cy="357.29999"
   cx="440.79999"
   class="st17"
   id="XMLID_38_"
   style="fill:#1f3969" />

		<g
   id="XMLID_61_">
			<line
   y2="387.39999"
   x2="523.70001"
   y1="387.39999"
   x1="510.70001"
   class="st18"
   id="XMLID_54_"
   style="fill:none;stroke:#ffffff;stroke-width:4;stroke-linecap:round;stroke-linejoin:round;stroke-miterlimit:10" />

			<line
   y2="387.39999"
   x2="501.10001"
   y1="387.39999"
   x1="444.79999"
   class="st19"
   id="XMLID_66_"
   style="fill:none;stroke:#7bffa0;stroke-width:4;stroke-linecap:round;stroke-linejoin:round;stroke-miterlimit:10" />

			<line
   y2="387.39999"
   x2="436.79999"
   y1="387.39999"
   x1="417"
   class="st20"
   id="XMLID_29_"
   style="fill:none;stroke:#9169ff;stroke-width:4;stroke-linecap:round;stroke-linejoin:round;stroke-miterlimit:10" />

		</g>

		<g
   id="XMLID_42_">
			<line
   y2="485.89999"
   x2="485.79999"
   y1="485.89999"
   x1="442.79999"
   class="st20"
   id="XMLID_62_"
   style="fill:none;stroke:#9169ff;stroke-width:4;stroke-linecap:round;stroke-linejoin:round;stroke-miterlimit:10" />

			<line
   y2="485.89999"
   x2="430.89999"
   y1="485.89999"
   x1="417"
   class="st19"
   id="XMLID_30_"
   style="fill:none;stroke:#7bffa0;stroke-width:4;stroke-linecap:round;stroke-linejoin:round;stroke-miterlimit:10" />

		</g>

		<g
   id="XMLID_27_">
			<line
   y2="399.70001"
   x2="509.20001"
   y1="399.70001"
   x1="501.10001"
   class="st18"
   id="XMLID_60_"
   style="fill:none;stroke:#ffffff;stroke-width:4;stroke-linecap:round;stroke-linejoin:round;stroke-miterlimit:10" />

			<line
   y2="399.70001"
   x2="491.5"
   y1="399.70001"
   x1="464.29999"
   class="st20"
   id="XMLID_45_"
   style="fill:none;stroke:#9169ff;stroke-width:4;stroke-linecap:round;stroke-linejoin:round;stroke-miterlimit:10" />

			<line
   y2="399.70001"
   x2="454.60001"
   y1="399.70001"
   x1="426.89999"
   class="st21"
   id="XMLID_47_"
   style="fill:none;stroke:#ffc47d;stroke-width:4;stroke-linecap:round;stroke-linejoin:round;stroke-miterlimit:10" />

		</g>

		<g
   id="XMLID_49_">
			<line
   y2="412"
   x2="493.70001"
   y1="412"
   x1="469.79999"
   class="st18"
   id="XMLID_59_"
   style="fill:none;stroke:#ffffff;stroke-width:4;stroke-linecap:round;stroke-linejoin:round;stroke-miterlimit:10" />

			<line
   y2="412"
   x2="462.29999"
   y1="412"
   x1="439.79999"
   class="st22"
   id="XMLID_50_"
   style="fill:none;stroke:#ff5757;stroke-width:4;stroke-linecap:round;stroke-linejoin:round;stroke-miterlimit:10" />

		</g>

		<g
   id="XMLID_65_">
			<line
   y2="424.29999"
   x2="477.89999"
   y1="424.29999"
   x1="473"
   class="st18"
   id="XMLID_58_"
   style="fill:none;stroke:#ffffff;stroke-width:4;stroke-linecap:round;stroke-linejoin:round;stroke-miterlimit:10" />

			<line
   y2="424.29999"
   x2="464.29999"
   y1="424.29999"
   x1="453.20001"
   class="st20"
   id="XMLID_70_"
   style="fill:none;stroke:#9169ff;stroke-width:4;stroke-linecap:round;stroke-linejoin:round;stroke-miterlimit:10" />

			<line
   y2="424.29999"
   x2="444.79999"
   y1="424.29999"
   x1="426.89999"
   class="st19"
   id="XMLID_67_"
   style="fill:none;stroke:#7bffa0;stroke-width:4;stroke-linecap:round;stroke-linejoin:round;stroke-miterlimit:10" />

		</g>

		<g
   id="XMLID_73_">
			<line
   y2="436.70001"
   x2="497.20001"
   y1="436.70001"
   x1="465.29999"
   class="st21"
   id="XMLID_77_"
   style="fill:none;stroke:#ffc47d;stroke-width:4;stroke-linecap:round;stroke-linejoin:round;stroke-miterlimit:10" />

			<line
   y2="436.70001"
   x2="455.5"
   y1="436.70001"
   x1="426.89999"
   class="st22"
   id="XMLID_74_"
   style="fill:none;stroke:#ff5757;stroke-width:4;stroke-linecap:round;stroke-linejoin:round;stroke-miterlimit:10" />

		</g>

		<g
   id="XMLID_80_">
			<line
   y2="449"
   x2="519.5"
   y1="449"
   x1="502.20001"
   class="st20"
   id="XMLID_64_"
   style="fill:none;stroke:#9169ff;stroke-width:4;stroke-linecap:round;stroke-linejoin:round;stroke-miterlimit:10" />

			<line
   y2="449"
   x2="493"
   y1="449"
   x1="465.29999"
   class="st22"
   id="XMLID_84_"
   style="fill:none;stroke:#ff5757;stroke-width:4;stroke-linecap:round;stroke-linejoin:round;stroke-miterlimit:10" />

			<line
   y2="449"
   x2="455.5"
   y1="449"
   x1="439.79999"
   class="st19"
   id="XMLID_81_"
   style="fill:none;stroke:#7bffa0;stroke-width:4;stroke-linecap:round;stroke-linejoin:round;stroke-miterlimit:10" />

		</g>

		<g
   id="XMLID_87_">
			<line
   y2="461.29999"
   x2="493"
   y1="461.29999"
   x1="477.89999"
   class="st18"
   id="XMLID_95_"
   style="fill:none;stroke:#ffffff;stroke-width:4;stroke-linecap:round;stroke-linejoin:round;stroke-miterlimit:10" />

			<line
   y2="461.29999"
   x2="467.5"
   y1="461.29999"
   x1="439.79999"
   class="st20"
   id="XMLID_90_"
   style="fill:none;stroke:#9169ff;stroke-width:4;stroke-linecap:round;stroke-linejoin:round;stroke-miterlimit:10" />

		</g>

		<g
   id="XMLID_98_">
			<line
   y2="473.60001"
   x2="534.5"
   y1="473.60001"
   x1="517.20001"
   class="st18"
   id="XMLID_71_"
   style="fill:none;stroke:#ffffff;stroke-width:4;stroke-linecap:round;stroke-linejoin:round;stroke-miterlimit:10" />

			<line
   y2="473.60001"
   x2="507.79999"
   y1="473.60001"
   x1="464.29999"
   class="st21"
   id="XMLID_102_"
   style="fill:none;stroke:#ffc47d;stroke-width:4;stroke-linecap:round;stroke-linejoin:round;stroke-miterlimit:10" />

			<line
   y2="473.60001"
   x2="454.60001"
   y1="473.60001"
   x1="426.89999"
   class="st18"
   id="XMLID_99_"
   style="fill:none;stroke:#ffffff;stroke-width:4;stroke-linecap:round;stroke-linejoin:round;stroke-miterlimit:10" />

		</g>

		<line
   y2="632.5"
   x2="430.39999"
   y1="632.5"
   x1="214.89999"
   class="st5"
   id="XMLID_145_"
   style="fill:none;stroke:#1f3969;stroke-width:4;stroke-linecap:round;stroke-linejoin:round;stroke-miterlimit:10" />

		<line
   y2="640.5"
   x2="430.39999"
   y1="640.5"
   x1="214.89999"
   class="st5"
   id="XMLID_151_"
   style="fill:none;stroke:#1f3969;stroke-width:4;stroke-linecap:round;stroke-linejoin:round;stroke-miterlimit:10" />

		<path
   d="m 432.4,625.6 h -220 c 1.3,3.2 2,7.2 2,11.4 0,4.2 -0.7,8.1 -2,11.4 h 219.9 c -1.3,-3.2 -2,-7.2 -2,-11.4 0.1,-4.3 0.8,-8.2 2.1,-11.4 z"
   class="st5"
   id="XMLID_158_"
   inkscape:connector-curvature="0"
   style="fill:none;stroke:#1f3969;stroke-width:4;stroke-linecap:round;stroke-linejoin:round;stroke-miterlimit:10" />

	</g>

	<g
   id="XMLID_222_">
		<g
   id="XMLID_174_">
			
				<rect
   height="72.599998"
   width="9.8000002"
   class="st23"
   transform="matrix(0.9932,-0.1166,0.1166,0.9932,-62.746,88.7942)"
   y="544.40002"
   x="722.79999"
   id="XMLID_177_"
   style="fill:#ffa364" />

			
				<rect
   height="7.4000001"
   width="9.8000002"
   class="st13"
   transform="matrix(0.9932,-0.1166,0.1166,0.9932,-58.9937,88.1297)"
   y="544.70001"
   x="719"
   id="XMLID_31_"
   style="fill:#2aa1ff" />

			
				<rect
   height="7.4000001"
   width="9.8000002"
   class="st5"
   transform="matrix(0.9932,-0.1166,0.1166,0.9932,-58.9937,88.1297)"
   y="544.70001"
   x="719"
   id="XMLID_217_"
   style="fill:none;stroke:#1f3969;stroke-width:4;stroke-linecap:round;stroke-linejoin:round;stroke-miterlimit:10" />

			
				<rect
   height="72.599998"
   width="9.8000002"
   class="st5"
   transform="matrix(0.9932,-0.1166,0.1166,0.9932,-62.746,88.7942)"
   y="544.40002"
   x="722.79999"
   id="XMLID_22_"
   style="fill:none;stroke:#1f3969;stroke-width:4;stroke-linecap:round;stroke-linejoin:round;stroke-miterlimit:10" />

		</g>

		<g
   id="XMLID_189_">
			
				<rect
   height="72.599998"
   width="9.8000002"
   class="st24"
   transform="matrix(0.9941,0.1081,-0.1081,0.9941,68.6015,-77.1711)"
   y="558.09998"
   x="741.40002"
   id="XMLID_218_"
   style="fill:#ff5252" />

			
				<rect
   height="72.599998"
   width="9.8000002"
   class="st5"
   transform="matrix(0.9941,0.1081,-0.1081,0.9941,68.6015,-77.1711)"
   y="558.09998"
   x="741.40002"
   id="XMLID_214_"
   style="fill:none;stroke:#1f3969;stroke-width:4;stroke-linecap:round;stroke-linejoin:round;stroke-miterlimit:10" />

			
				<rect
   height="7.4000001"
   width="9.8000002"
   class="st1"
   transform="matrix(0.9941,0.1081,-0.1081,0.9941,65.1167,-77.742)"
   y="558.29999"
   x="745"
   id="XMLID_220_"
   style="fill:#2d425e" />

			
				<rect
   height="7.4000001"
   width="9.8000002"
   class="st5"
   transform="matrix(0.9941,0.1081,-0.1081,0.9941,65.1167,-77.742)"
   y="558.29999"
   x="745"
   id="XMLID_211_"
   style="fill:none;stroke:#1f3969;stroke-width:4;stroke-linecap:round;stroke-linejoin:round;stroke-miterlimit:10" />

		</g>

		<polygon
   points="715.4,594.4 767.5,594.4 761.1,654.6 721.8,654.6 "
   class="st25"
   id="XMLID_26_"
   style="fill:#6567c3" />

		<polygon
   points="761.1,654.6 767.5,594.4 715.4,594.4 715.5,595.5 755.2,595.5 748.9,654.6 "
   class="st25"
   id="XMLID_233_"
   style="fill:#6567c3" />

		<polygon
   points="715.4,594.4 767.5,594.4 761.1,654.6 721.8,654.6 "
   class="st5"
   id="XMLID_21_"
   style="fill:none;stroke:#1f3969;stroke-width:4;stroke-linecap:round;stroke-linejoin:round;stroke-miterlimit:10" />

	</g>

</g>
              <g
                 id="g3547">
	
</g>
            </g>
            <text
               xml:space="preserve"
               style="font-style:normal;font-weight:normal;font-size:24.77888489px;line-height:1.25;font-family:sans-serif;letter-spacing:0px;word-spacing:0px;fill:#ffffff;fill-opacity:1;stroke:none;stroke-width:1.32744014"
               x="1.3245738"
               y="536.77777"
               id="text2597"
               transform="scale(0.9113533,1.0972693)"><tspan
                 sodipodi:role="line"
                 id="tspan2595"
                 x="1.3245738"
                 y="536.77777"
                 style="font-style:normal;font-variant:normal;font-weight:bold;font-stretch:normal;font-size:29.25541878px;line-height:146.82896423px;font-family:sans-serif;-inkscape-font-specification:'sans-serif Bold';letter-spacing:6.37302732px;fill:#ffffff;stroke-width:1.32744014">ARDUINO</tspan></text>
          </g>
        </g>
      </g>
    </g>
  </g>
  <style
     id="style1995"
     type="text/css">
	.st0{fill:#EAECEF;}
	.st1{fill:#2D425E;}
	.st2{fill:#C9C9C9;}
	.st3{fill:#CECECE;}
	.st4{fill:#FFFFFF;}
	.st5{fill:none;stroke:#1F3969;stroke-width:4;stroke-linecap:round;stroke-linejoin:round;stroke-miterlimit:10;}
	.st6{fill:#FF3E3E;}
	.st7{opacity:0.28;fill:#1F3969;stroke:#1F3969;stroke-width:4;stroke-linecap:round;stroke-linejoin:round;stroke-miterlimit:10;}
	.st8{fill:#50B56F;}
	.st9{fill:#5F5AFF;}
	.st10{fill:#F6F9FD;}
	.st11{fill:#BFCFE2;}
	.st12{fill:#D0DDF0;}
	.st13{fill:#2AA1FF;}
	.st14{opacity:0.34;fill:none;stroke:#FFFFFF;stroke-width:2;stroke-linecap:round;stroke-linejoin:round;stroke-miterlimit:10;}
	.st15{opacity:0.34;}
	.st16{fill:none;stroke:#FFFFFF;stroke-width:2;stroke-linecap:round;stroke-linejoin:round;stroke-miterlimit:10;}
	.st17{fill:#1F3969;}
	.st18{fill:none;stroke:#FFFFFF;stroke-width:4;stroke-linecap:round;stroke-linejoin:round;stroke-miterlimit:10;}
	.st19{fill:none;stroke:#7BFFA0;stroke-width:4;stroke-linecap:round;stroke-linejoin:round;stroke-miterlimit:10;}
	.st20{fill:none;stroke:#9169FF;stroke-width:4;stroke-linecap:round;stroke-linejoin:round;stroke-miterlimit:10;}
	.st21{fill:none;stroke:#FFC47D;stroke-width:4;stroke-linecap:round;stroke-linejoin:round;stroke-miterlimit:10;}
	.st22{fill:none;stroke:#FF5757;stroke-width:4;stroke-linecap:round;stroke-linejoin:round;stroke-miterlimit:10;}
	.st23{fill:#FFA364;}
	.st24{fill:#FF5252;}
	.st25{fill:#6567C3;}
</style>
  <style
     id="style1037"
     type="text/css">
	.st0{fill:#EAECEF;}
	.st1{fill:#2D425E;}
	.st2{fill:#C9C9C9;}
	.st3{fill:#CECECE;}
	.st4{fill:#FFFFFF;}
	.st5{fill:none;stroke:#1F3969;stroke-width:4;stroke-linecap:round;stroke-linejoin:round;stroke-miterlimit:10;}
	.st6{fill:#FF3E3E;}
	.st7{opacity:0.28;fill:#1F3969;stroke:#1F3969;stroke-width:4;stroke-linecap:round;stroke-linejoin:round;stroke-miterlimit:10;}
	.st8{fill:#50B56F;}
	.st9{fill:#5F5AFF;}
	.st10{fill:#F6F9FD;}
	.st11{fill:#BFCFE2;}
	.st12{fill:#D0DDF0;}
	.st13{fill:#2AA1FF;}
	.st14{opacity:0.34;fill:none;stroke:#FFFFFF;stroke-width:2;stroke-linecap:round;stroke-linejoin:round;stroke-miterlimit:10;}
	.st15{opacity:0.34;}
	.st16{fill:none;stroke:#FFFFFF;stroke-width:2;stroke-linecap:round;stroke-linejoin:round;stroke-miterlimit:10;}
	.st17{fill:#1F3969;}
	.st18{fill:none;stroke:#FFFFFF;stroke-width:4;stroke-linecap:round;stroke-linejoin:round;stroke-miterlimit:10;}
	.st19{fill:none;stroke:#7BFFA0;stroke-width:4;stroke-linecap:round;stroke-linejoin:round;stroke-miterlimit:10;}
	.st20{fill:none;stroke:#9169FF;stroke-width:4;stroke-linecap:round;stroke-linejoin:round;stroke-miterlimit:10;}
	.st21{fill:none;stroke:#FFC47D;stroke-width:4;stroke-linecap:round;stroke-linejoin:round;stroke-miterlimit:10;}
	.st22{fill:none;stroke:#FF5757;stroke-width:4;stroke-linecap:round;stroke-linejoin:round;stroke-miterlimit:10;}
	.st23{fill:#FFA364;}
	.st24{fill:#FF5252;}
	.st25{fill:#6567C3;}
</style>
  <style
     id="style3189"
     type="text/css">
	.st0{fill:#EAECEF;}
	.st1{fill:#2D425E;}
	.st2{fill:#C9C9C9;}
	.st3{fill:#CECECE;}
	.st4{fill:#FFFFFF;}
	.st5{fill:none;stroke:#1F3969;stroke-width:4;stroke-linecap:round;stroke-linejoin:round;stroke-miterlimit:10;}
	.st6{fill:#FF3E3E;}
	.st7{opacity:0.28;fill:#1F3969;stroke:#1F3969;stroke-width:4;stroke-linecap:round;stroke-linejoin:round;stroke-miterlimit:10;}
	.st8{fill:#50B56F;}
	.st9{fill:#5F5AFF;}
	.st10{fill:#F6F9FD;}
	.st11{fill:#BFCFE2;}
	.st12{fill:#D0DDF0;}
	.st13{fill:#2AA1FF;}
	.st14{opacity:0.34;fill:none;stroke:#FFFFFF;stroke-width:2;stroke-linecap:round;stroke-linejoin:round;stroke-miterlimit:10;}
	.st15{opacity:0.34;}
	.st16{fill:none;stroke:#FFFFFF;stroke-width:2;stroke-linecap:round;stroke-linejoin:round;stroke-miterlimit:10;}
	.st17{fill:#1F3969;}
	.st18{fill:none;stroke:#FFFFFF;stroke-width:4;stroke-linecap:round;stroke-linejoin:round;stroke-miterlimit:10;}
	.st19{fill:none;stroke:#7BFFA0;stroke-width:4;stroke-linecap:round;stroke-linejoin:round;stroke-miterlimit:10;}
	.st20{fill:none;stroke:#9169FF;stroke-width:4;stroke-linecap:round;stroke-linejoin:round;stroke-miterlimit:10;}
	.st21{fill:none;stroke:#FFC47D;stroke-width:4;stroke-linecap:round;stroke-linejoin:round;stroke-miterlimit:10;}
	.st22{fill:none;stroke:#FF5757;stroke-width:4;stroke-linecap:round;stroke-linejoin:round;stroke-miterlimit:10;}
	.st23{fill:#FFA364;}
	.st24{fill:#FF5252;}
	.st25{fill:#6567C3;}
</style>
</svg>
