<?xml version="1.0" encoding="UTF-8" standalone="no"?>
<!DOCTYPE svg PUBLIC "-//W3C//DTD SVG 1.1//EN" "http://www.w3.org/Graphics/SVG/1.1/DTD/svg11.dtd">
<svg width="100%" height="100%" viewBox="0 0 1000 1000" version="1.1" xmlns="http://www.w3.org/2000/svg" xmlns:xlink="http://www.w3.org/1999/xlink" xml:space="preserve" xmlns:serif="http://www.serif.com/" style="fill-rule:evenodd;clip-rule:evenodd;stroke-linejoin:round;stroke-miterlimit:2;">
    <g id="Layer_1">
        <g id="XMLID_226_" transform="matrix(1.97802,0,0,1.97802,-338.004,-604.558)">
            <path d="M265.8,506.3L238.6,506.3C224.2,506.3 212.6,494.7 212.6,480.3C212.6,465.9 224.2,454.3 238.6,454.3L265.8,454.3C280.2,454.3 291.8,465.9 291.8,480.3C291.8,494.6 280.2,506.3 265.8,506.3Z" style="fill:rgb(130,93,126);fill-opacity:0.5;fill-rule:nonzero;"/>
        </g>
        <g id="XMLID_82_" transform="matrix(1.97802,0,0,1.97802,-338.004,-604.558)">
            <path d="M384.2,451.7L272.5,451.7C258.1,451.7 246.5,440.1 246.5,425.7C246.5,411.3 258.1,399.7 272.5,399.7L384.2,399.7C398.6,399.7 410.2,411.3 410.2,425.7C410.2,440.1 398.6,451.7 384.2,451.7Z" style="fill:rgb(104,68,99);fill-rule:nonzero;"/>
        </g>
        <g id="XMLID_35_" transform="matrix(1.22626,0,0,1.48675,-114.376,-259.232)">
            <path d="M888.2,713.5L111.8,713.5C104.6,713.5 98.8,707.7 98.8,700.5C98.8,693.3 104.6,687.5 111.8,687.5L888.1,687.5C895.3,687.5 901.1,693.3 901.1,700.5C901.2,707.7 895.3,713.5 888.2,713.5Z" style="fill:rgb(45,70,89);fill-opacity:0.56;fill-rule:nonzero;"/>
        </g>
        <g id="XMLID_1_" transform="matrix(1.97802,0,0,1.97802,-338.004,-604.558)">
            <rect x="435.7" y="599.5" width="20" height="100" style="fill:rgb(139,191,152);"/>
        </g>
        <g id="XMLID_17_" transform="matrix(1.97802,0,0,1.97802,-338.004,-604.558)">
            <rect x="455.7" y="599.5" width="12" height="100" style="fill:rgb(99,145,110);"/>
        </g>
        <g id="XMLID_21_" transform="matrix(1.97802,0,0,1.97802,-338.004,-604.558)">
            <rect x="547.7" y="599.5" width="20" height="100" style="fill:rgb(139,191,152);"/>
        </g>
        <g id="XMLID_16_" transform="matrix(1.97802,0,0,1.97802,-338.004,-604.558)">
            <rect x="567.7" y="599.5" width="12" height="100" style="fill:rgb(99,145,110);"/>
        </g>
        <g id="XMLID_26_" transform="matrix(1.97802,0,0,1.97802,-338.004,-604.558)">
            <rect x="631.7" y="599.5" width="20" height="100" style="fill:rgb(139,191,152);"/>
        </g>
        <g id="XMLID_19_" transform="matrix(1.97802,0,0,1.97802,-338.004,-604.558)">
            <rect x="651.7" y="599.5" width="12" height="100" style="fill:rgb(99,145,110);"/>
        </g>
        <g id="XMLID_5_" transform="matrix(1.97802,0,0,1.97802,-338.004,-604.558)">
            <path d="M431.1,547.5L407.5,547.5L407.5,375.5L431.1,375.5C434.4,375.5 437.1,378.2 437.1,381.5L437.1,541.5C437.1,544.8 434.5,547.5 431.1,547.5Z" style="fill:rgb(239,101,98);fill-rule:nonzero;"/>
        </g>
        <g id="XMLID_3_" transform="matrix(1.97802,0,0,1.97802,-338.004,-604.558)">
            <path d="M423.6,547.5L179.6,547.5C176.3,547.5 173.6,544.8 173.6,541.5L173.6,381.5C173.6,378.2 176.3,375.5 179.6,375.5L423.6,375.5C426.9,375.5 429.6,378.2 429.6,381.5L429.6,541.5C429.6,544.8 426.9,547.5 423.6,547.5Z" style="fill:rgb(236,149,139);fill-rule:nonzero;"/>
        </g>
        <g id="XMLID_14_" transform="matrix(-3.63357e-16,1.97802,-1.97802,-3.63357e-16,1171.11,-288.395)">
            <rect x="227.6" y="345.4" width="148" height="232" style="fill:rgb(52,81,91);"/>
        </g>
        <g id="XMLID_12_" transform="matrix(-3.63357e-16,1.97802,-1.97802,-3.63357e-16,944.626,-61.9112)">
            <rect x="113.1" y="459.9" width="148" height="3" style="fill:rgb(216,78,78);"/>
        </g>
        <g id="XMLID_18_" transform="matrix(1.97802,0,0,1.97802,-338.004,-604.558)">
            <rect x="413.8" y="387.4" width="3.8" height="148" style="fill:rgb(40,66,73);"/>
        </g>
        <g id="XMLID_7_" transform="matrix(1.97802,0,0,1.97802,-338.004,-604.558)">
            <rect x="304.2" y="547.5" width="18.2" height="152" style="fill:rgb(216,78,78);"/>
        </g>
        <g id="XMLID_6_" transform="matrix(1.97802,0,0,1.97802,-338.004,-604.558)">
            <rect x="296.6" y="547.5" width="18.2" height="152" style="fill:rgb(239,101,98);"/>
        </g>
        <g id="XMLID_24_" transform="matrix(1.97802,0,0,1.97802,-338.004,-603.55)">
            <rect x="296.6" y="547.5" width="18.2" height="7.4" style="fill:rgb(216,78,78);"/>
        </g>
        <g id="XMLID_10_" transform="matrix(1.97802,0,0,1.97802,-338.004,-604.558)">
            <path d="M376.6,699.5L253.9,699.5L253.9,687.5C253.9,680.9 259.3,675.5 265.9,675.5L364.6,675.5C371.2,675.5 376.6,680.9 376.6,687.5L376.6,699.5Z" style="fill:rgb(239,101,98);fill-rule:nonzero;"/>
        </g>
        <g id="XMLID_8_" transform="matrix(1.97802,0,0,1.97802,-338.004,-604.558)">
            <path d="M365.5,699.5L242.8,699.5L242.8,687.5C242.8,680.9 248.2,675.5 254.8,675.5L353.5,675.5C360.1,675.5 365.5,680.9 365.5,687.5L365.5,699.5Z" style="fill:rgb(236,149,139);fill-rule:nonzero;"/>
        </g>
        <g id="XMLID_11_" transform="matrix(1.97802,0,0,1.97802,-338.004,-603.55)">
            <rect x="435.7" y="580.4" width="132" height="19.1" style="fill:rgb(139,191,152);"/>
        </g>
        <g id="XMLID_48_" transform="matrix(1.97802,0,0,1.97802,-338.004,-603.55)">
            <rect x="567.7" y="580.4" width="96" height="19.1" style="fill:rgb(99,145,110);"/>
        </g>
        <g id="XMLID_13_" transform="matrix(1.97802,0,0,1.97802,-338.004,-603.55)">
            <rect x="428.7" y="567.1" width="129" height="13.3" style="fill:rgb(159,214,163);"/>
        </g>
        <g id="XMLID_54_" transform="matrix(1.97802,0,0,1.97802,-338.004,-603.55)">
            <rect x="435.7" y="580.4" width="132" height="4" style="fill:rgb(99,145,110);"/>
        </g>
        <g id="XMLID_56_" transform="matrix(1.97802,0,0,1.97802,-338.004,-603.55)">
            <rect x="557.7" y="567.1" width="115.6" height="13.3" style="fill:rgb(131,183,141);"/>
        </g>
        <g id="XMLID_114_" transform="matrix(1.97802,0,0,1.97802,-338.004,-603.55)">
            <rect x="567.7" y="580.4" width="96" height="4" style="fill:rgb(87,127,93);"/>
        </g>
        <g id="XMLID_44_" transform="matrix(1.97802,0,0,1.97802,-338.004,-603.55)">
            <g id="XMLID_70_" transform="matrix(0.9911,-0.1334,0.1334,0.9911,-60.7587,85.2339)">
                <rect x="601" y="453.6" width="9.4" height="84.8" style="fill:rgb(221,88,88);"/>
            </g>
            <g id="XMLID_72_" transform="matrix(0.9911,-0.1334,0.1334,0.9911,-56.9574,84.4606)">
                <rect x="596.5" y="456.2" width="10.6" height="22.3" style="fill:rgb(239,101,98);"/>
            </g>
            <g id="XMLID_123_" transform="matrix(0.9911,-0.1334,0.1334,0.9911,-56.0165,83.4062)">
                <rect x="593.4" y="459" width="2" height="1.4" style="fill:rgb(232,232,232);"/>
            </g>
            <path id="XMLID_126_" d="M596.2,476.3L595.6,476.4L593.5,460.7L594.9,460.5L596.9,475.4C597,475.7 596.7,476.2 596.2,476.3Z" style="fill:rgb(232,232,232);fill-rule:nonzero;"/>
            <g id="XMLID_125_" transform="matrix(0.9911,-0.1334,0.1334,0.9911,-58.4882,84.772)">
                <rect x="598.7" y="478.3" width="9.4" height="1.1" style="fill:rgb(211,80,80);"/>
            </g>
        </g>
        <g id="XMLID_76_" transform="matrix(1.97802,0,0,1.97802,-338.004,-603.55)">
            <path id="XMLID_60_" d="M583.7,479.6L575.6,482.1L571.9,470.2C571.4,468.6 572.3,466.9 573.9,466.4L576.3,465.7C577.9,465.2 579.6,466.1 580.1,467.7L583.7,479.6Z" style="fill:rgb(232,232,232);fill-rule:nonzero;"/>
            <g id="XMLID_69_" transform="matrix(0.9544,-0.2986,0.2986,0.9544,-120.076,196.424)">
                <rect x="576.6" y="480.4" width="12.6" height="21.8" style="fill:rgb(53,57,61);"/>
            </g>
            <path id="XMLID_129_" d="M579,500.7L588.8,488.4L586.7,481.8L576.9,494.1L579,500.7Z" style="fill:rgb(128,130,132);fill-rule:nonzero;"/>
            <g id="XMLID_62_" transform="matrix(0.9544,-0.2986,0.2986,0.9544,-128.984,200.78)">
                <rect x="587" y="500.6" width="11.4" height="43.9" style="fill:rgb(59,64,68);"/>
            </g>
            <g id="XMLID_74_" transform="matrix(0.9544,-0.2986,0.2986,0.9544,-129.236,200.266)">
                <rect x="589" y="501.2" width="3.8" height="43.9" style="fill:rgb(109,111,112);fill-opacity:0.66;"/>
            </g>
        </g>
        <g id="XMLID_134_" transform="matrix(1.97802,0,0,1.97802,-338.004,-603.55)">
            <path id="XMLID_169_" d="M633.9,463.9L630,463.3L625.1,472.1L636.1,473.7L633.9,463.9Z" style="fill:rgb(197,225,223);fill-rule:nonzero;"/>
            <path id="XMLID_166_" d="M621.4,545.3L618.5,544.9C616.3,544.6 614.8,542.5 615.1,540.3L625.2,472.1L636.1,473.7L626,541.9C625.7,544.1 623.6,545.7 621.4,545.3Z" style="fill:rgb(179,219,173);fill-rule:nonzero;"/>
            <path id="XMLID_163_" d="M617.3,544.7L616.5,544.6C615.4,544.4 614.6,543.4 614.7,542.2L625.1,472L627.9,472.4L617.3,544.7Z" style="fill:rgb(104,165,117);fill-rule:nonzero;"/>
            <path id="XMLID_156_" d="M623.3,545.6L622.5,545.5L633.2,473.3L636,473.7L625.6,543.9C625.5,545 624.5,545.8 623.3,545.6Z" style="fill:rgb(104,165,117);fill-rule:nonzero;"/>
            <path id="XMLID_146_" d="M633.9,463.9L633,459.9C632.9,459.3 632.2,459.2 631.9,459.7L629.9,463.3L633.9,463.9Z" style="fill:rgb(111,90,102);fill-rule:nonzero;"/>
            <path id="XMLID_141_" d="M633.9,463.9L632,463.6L633.2,473.3L636.1,473.7L633.9,463.9Z" style="fill:rgb(165,206,202);fill-rule:nonzero;"/>
        </g>
        <g id="XMLID_22_" transform="matrix(1.97802,0,0,1.97802,-338.004,-603.55)">
            <path d="M633.9,567.1L577.9,567.1L577.9,509.5C577.9,508.4 578.8,507.5 579.9,507.5L631.9,507.5C633,507.5 633.9,508.4 633.9,509.5L633.9,567.1Z" style="fill:rgb(242,224,124);fill-rule:nonzero;"/>
        </g>
        <g id="XMLID_150_" transform="matrix(1.97802,0,0,1.97802,-338.004,-603.55)">
            <path d="M625.9,507.5L625.9,567.1L633.9,567.1L633.9,509.5C633.9,508.4 633,507.5 631.9,507.5L625.9,507.5Z" style="fill:rgb(223,187,77);fill-rule:nonzero;"/>
        </g>
        <g id="XMLID_144_" transform="matrix(1.97802,0,0,1.97802,-338.004,-603.55)">
            <rect x="564.3" y="537.3" width="31.1" height="29.8" style="fill:rgb(110,126,224);"/>
        </g>
        <g id="XMLID_140_" transform="matrix(1.97802,0,0,1.97802,-338.004,-603.55)">
            <rect x="564.3" y="537.3" width="3.4" height="29.8" style="fill:rgb(122,140,226);"/>
        </g>
        <g id="XMLID_147_" transform="matrix(-1.97802,-2.42238e-16,2.42238e-16,-1.97802,2008.44,1580.83)">
            <rect x="590.9" y="537.3" width="4.5" height="29.8" style="fill:rgb(99,115,193);"/>
        </g>
        <g id="XMLID_155_" transform="matrix(-1.97802,-2.42238e-16,2.42238e-16,-1.97802,2022.93,1580.83)">
            <rect x="595.4" y="537.3" width="2.8" height="29.8" style="fill:rgb(223,187,77);"/>
        </g>
        <g id="XMLID_142_" transform="matrix(1.97802,0,0,1.97802,-338.004,-603.55)">
            <rect x="471.5" y="543.6" width="23.4" height="23.4" style="fill:rgb(236,149,139);"/>
        </g>
        <g id="XMLID_154_" transform="matrix(1.97802,0,0,1.97802,-338.004,-603.55)">
            <rect x="471.5" y="543.6" width="23.4" height="1.1" style="fill:rgb(239,101,98);"/>
        </g>
        <g id="XMLID_152_" transform="matrix(1.97802,0,0,1.97802,-338.004,-603.55)">
            <rect x="494.9" y="543.6" width="12.4" height="23.4" style="fill:rgb(239,101,98);"/>
        </g>
        <g id="XMLID_148_" transform="matrix(1.97802,0,0,1.97802,-338.004,-603.55)">
            <path d="M485.7,558.7L481.8,558.7L481.2,560.6L479.1,560.6L482.6,550.8L484.9,550.8L488.4,560.6L486.3,560.6L485.7,558.7ZM483.7,553.1L482.3,557.2L485.1,557.2L483.7,553.1Z" style="fill:white;fill-rule:nonzero;"/>
        </g>
        <g id="XMLID_186_" transform="matrix(1.97802,0,0,1.97802,-338.004,-603.55)">
            <rect x="504.7" y="543.6" width="23.4" height="23.4" style="fill:rgb(232,181,139);"/>
        </g>
        <g id="XMLID_158_" transform="matrix(1.97802,0,0,1.97802,-338.004,-603.55)">
            <rect x="528.1" y="543.6" width="12.4" height="23.4" style="fill:rgb(224,157,108);"/>
        </g>
        <g id="XMLID_157_" transform="matrix(1.97802,0,0,1.97802,-338.004,-603.55)">
            <path d="M516.5,550.8C518.9,550.8 520,552.2 520,553.8C520,555 519.3,556.2 517.8,556.6L520.1,560.6L517.8,560.6L515.6,556.8L514.7,556.8L514.7,560.6L512.7,560.6L512.7,550.8L516.5,550.8ZM516.5,552.4L514.9,552.4L514.9,555.3L516.5,555.3C517.6,555.3 518.1,554.7 518.1,553.8C518,553 517.5,552.4 516.5,552.4Z" style="fill:white;fill-rule:nonzero;"/>
        </g>
        <g id="XMLID_193_" transform="matrix(1.97802,0,0,1.97802,-338.004,-603.55)">
            <rect x="465.3" y="520.2" width="23.4" height="23.4" style="fill:rgb(27,177,178);"/>
        </g>
        <g id="XMLID_181_" transform="matrix(1.97802,0,0,1.97802,-338.004,-603.55)">
            <rect x="488.7" y="520.2" width="12.4" height="23.4" style="fill:rgb(25,165,161);"/>
        </g>
        <g id="XMLID_159_" transform="matrix(1.97802,0,0,1.97802,-338.004,-603.55)">
            <path d="M480.2,527.4L482.3,527.4L478.7,537.2L476.3,537.2L472.7,527.4L474.8,527.4L477.5,535.2L480.2,527.4Z" style="fill:white;fill-rule:nonzero;"/>
        </g>
        <g transform="matrix(1.69959,0,0,1.69959,55.9837,331.802)">
            <text x="0px" y="0px" style="font-family:'ArialMT', 'Arial', sans-serif;font-size:53.767px;fill:white;">Examples</text>
        </g>
        <g id="XMLID_231_" transform="matrix(1.97802,0,0,1.97802,-338.004,-603.55)">
            <path d="M281.5,687.5L258.5,687.5C256.8,687.5 255.5,686.2 255.5,684.5C255.5,682.8 256.8,681.5 258.5,681.5L281.5,681.5C283.2,681.5 284.5,682.8 284.5,684.5C284.5,686.1 283.2,687.5 281.5,687.5Z" style="fill:rgb(239,101,98);fill-opacity:0.23;fill-rule:nonzero;"/>
        </g>
        <g id="XMLID_232_" transform="matrix(1.97802,0,0,1.97802,-338.004,-603.55)">
            <path d="M304.2,687.5L297.5,687.5C295.8,687.5 294.5,686.2 294.5,684.5C294.5,682.8 295.8,681.5 297.5,681.5L304.2,681.5C305.9,681.5 307.2,682.8 307.2,684.5C307.2,686.1 305.9,687.5 304.2,687.5Z" style="fill:rgb(239,101,98);fill-opacity:0.23;fill-rule:nonzero;"/>
        </g>
        <g id="XMLID_234_" transform="matrix(1.97802,0,0,1.97802,-338.004,-603.55)">
            <path d="M354,695L327.2,695C325.5,695 324.2,693.7 324.2,692C324.2,690.3 325.5,689 327.2,689L354,689C355.7,689 357,690.3 357,692C357,693.6 355.7,695 354,695Z" style="fill:rgb(239,101,98);fill-opacity:0.23;fill-rule:nonzero;"/>
        </g>
        <g id="XMLID_28_" transform="matrix(1.97802,0,0,1.97802,-338.004,-603.55)">
            <path d="M343.2,695L338,695C336.3,695 335,693.7 335,692C335,690.3 336.3,689 338,689L343.2,689C344.9,689 346.2,690.3 346.2,692C346.2,693.6 344.9,695 343.2,695Z" style="fill:rgb(239,101,98);fill-opacity:0.23;fill-rule:nonzero;"/>
        </g>
        <g id="XMLID_248_" transform="matrix(1.97802,0,0,1.97802,-338.004,-603.55)">
            <path d="M472.1,589.9L451.3,589.9C450.4,589.9 449.6,589.2 449.6,588.2C449.6,587.3 450.3,586.5 451.3,586.5L472.1,586.5C473,586.5 473.8,587.2 473.8,588.2C473.7,589.2 473,589.9 472.1,589.9Z" style="fill:rgb(99,145,110);fill-opacity:0.18;fill-rule:nonzero;"/>
        </g>
        <g id="XMLID_254_" transform="matrix(1.97802,0,0,1.97802,-338.004,-603.55)">
            <path d="M488,589.9L478.5,589.9C477.6,589.9 476.8,589.2 476.8,588.2C476.8,587.3 477.5,586.5 478.5,586.5L488,586.5C488.9,586.5 489.7,587.2 489.7,588.2C489.6,589.2 488.9,589.9 488,589.9Z" style="fill:rgb(99,145,110);fill-opacity:0.18;fill-rule:nonzero;"/>
        </g>
        <g id="XMLID_255_" transform="matrix(1.97802,0,0,1.97802,-338.004,-603.55)">
            <path d="M500.9,595.7L480.4,595.7C479.5,595.7 478.7,595 478.7,594C478.7,593.1 479.4,592.3 480.4,592.3L500.9,592.3C501.8,592.3 502.6,593 502.6,594C502.5,594.9 501.8,595.7 500.9,595.7Z" style="fill:rgb(99,145,110);fill-opacity:0.18;fill-rule:nonzero;"/>
        </g>
        <g id="XMLID_268_" transform="matrix(1.97802,0,0,1.97802,-338.004,-603.55)">
            <path d="M537.4,595.7L531.3,595.7C530.4,595.7 529.6,595 529.6,594C529.6,593.1 530.3,592.3 531.3,592.3L537.4,592.3C538.3,592.3 539.1,593 539.1,594C539,594.9 538.3,595.7 537.4,595.7Z" style="fill:rgb(99,145,110);fill-opacity:0.18;fill-rule:nonzero;"/>
        </g>
        <g id="XMLID_256_" transform="matrix(1.97802,0,0,1.97802,-338.004,-603.55)">
            <path d="M543.5,590.9L537.4,590.9C536.5,590.9 535.7,590.2 535.7,589.2C535.7,588.3 536.4,587.5 537.4,587.5L543.5,587.5C544.4,587.5 545.2,588.2 545.2,589.2C545.2,590.1 544.5,590.9 543.5,590.9Z" style="fill:rgb(99,145,110);fill-opacity:0.18;fill-rule:nonzero;"/>
        </g>
        <g id="XMLID_282_" transform="matrix(1.97802,0,0,1.97802,-338.004,-603.55)">
            <path d="M607.6,595.7L584.1,595.7C583.2,595.7 582.4,595 582.4,594C582.4,593.1 583.1,592.3 584.1,592.3L607.6,592.3C608.5,592.3 609.3,593 609.3,594C609.2,594.9 608.5,595.7 607.6,595.7Z" style="fill:rgb(139,191,152);fill-opacity:0.26;fill-rule:nonzero;"/>
        </g>
        <g id="XMLID_279_" transform="matrix(1.97802,0,0,1.97802,-338.004,-603.55)">
            <path d="M641.1,595.7L635,595.7C634.1,595.7 633.3,595 633.3,594C633.3,593.1 634,592.3 635,592.3L641.1,592.3C642,592.3 642.8,593 642.8,594C642.7,594.9 642,595.7 641.1,595.7Z" style="fill:rgb(139,191,152);fill-opacity:0.26;fill-rule:nonzero;"/>
        </g>
        <g id="XMLID_271_" transform="matrix(1.97802,0,0,1.97802,-338.004,-603.55)">
            <path d="M614,590L600.8,590C599.9,590 599.1,589.3 599.1,588.3C599.1,587.4 599.8,586.6 600.8,586.6L614,586.6C614.9,586.6 615.7,587.3 615.7,588.3C615.7,589.3 615,590 614,590Z" style="fill:rgb(139,191,152);fill-opacity:0.26;fill-rule:nonzero;"/>
        </g>
    </g>
</svg>
