<?xml version="1.0" encoding="UTF-8" standalone="no"?><!DOCTYPE svg PUBLIC "-//W3C//DTD SVG 1.1//EN" "http://www.w3.org/Graphics/SVG/1.1/DTD/svg11.dtd"><svg width="100%" height="100%" viewBox="0 0 417 417" version="1.1" xmlns="http://www.w3.org/2000/svg" xmlns:xlink="http://www.w3.org/1999/xlink" xml:space="preserve" xmlns:serif="http://www.serif.com/" style="fill-rule:evenodd;clip-rule:evenodd;stroke-linejoin:round;stroke-miterlimit:2;"><path d="M352.295,216.729l0,9.459c0.046,2.948 -2.266,5.444 -5.208,5.625c-7.375,0.583 -14.584,1 -22,1.583c-2.546,0.2 -4.664,2.08 -5.167,4.583c-1.147,5.486 -2.621,10.899 -4.417,16.208c-0.846,2.372 0.077,5.035 2.209,6.375c6,4.209 12.208,8.209 18.166,12.375c2.497,1.563 3.315,4.871 1.834,7.417c-3.625,6.167 -6.209,10.583 -9.625,16.583c-1.544,2.478 -4.724,3.43 -7.375,2.209c-6.584,-3.209 -13.209,-6.417 -19.792,-9.625c-2.255,-1.073 -4.97,-0.489 -6.583,1.416c-3.612,4.237 -7.555,8.18 -11.792,11.792c-1.989,1.562 -2.572,4.355 -1.375,6.583c3.167,6.584 6.375,13.209 9.583,19.792c1.39,2.632 0.4,5.94 -2.208,7.375c-6.209,3.625 -10.583,6.208 -16.583,9.583c-2.539,1.391 -5.758,0.609 -7.375,-1.791c-4.209,-6 -8.209,-12.167 -12.417,-18.167c-1.34,-2.132 -4.004,-3.054 -6.375,-2.208c-5.28,1.891 -10.699,3.368 -16.208,4.416c-2.508,0.495 -4.391,2.618 -4.584,5.167c-0.583,7.417 -1,14.583 -1.583,22c-0.181,2.943 -2.677,5.254 -5.625,5.208l-18.958,0c-2.945,0.058 -5.437,-2.267 -5.584,-5.208c-0.625,-7.417 -1,-14.583 -1.625,-22c-0.185,-2.552 -2.072,-4.678 -4.583,-5.167c-5.473,-1.146 -10.871,-2.621 -16.167,-4.416c-2.384,-0.846 -5.058,0.074 -6.416,2.208c-4.209,6 -8.209,12.167 -12.375,18.167c-1.56,2.504 -4.886,3.308 -7.417,1.791c-6.167,-3.583 -10.583,-6.166 -16.583,-9.583c-2.485,-1.539 -3.425,-4.737 -2.167,-7.375c3.167,-6.583 6.375,-13.208 9.583,-19.792c1.077,-2.254 0.492,-4.972 -1.416,-6.583c-4.217,-3.634 -8.159,-7.575 -11.792,-11.792c-1.565,-1.981 -4.342,-2.578 -6.583,-1.416c-6.584,3.208 -13.181,6.416 -19.792,9.625c-2.632,1.39 -5.94,0.399 -7.375,-2.209c-3.583,-6.208 -6.209,-10.583 -9.583,-16.583c-1.386,-2.553 -0.607,-5.778 1.791,-7.417c6,-4.166 12.167,-8.166 18.167,-12.375c2.132,-1.34 3.054,-4.003 2.208,-6.375c-1.896,-5.275 -3.36,-10.695 -4.375,-16.208c-0.526,-2.506 -2.655,-4.38 -5.208,-4.583c-7.417,-0.584 -14.583,-1 -22,-1.583c-2.935,-0.185 -5.232,-2.686 -5.167,-5.625l0,-9.459l70.459,0c0.492,8.245 2.38,16.346 5.583,23.959c0.042,0.083 0.042,0.125 0.083,0.208c10.236,28.736 37.606,48.041 68.111,48.041c34.162,0 63.89,-24.211 70.806,-57.666l0,-0.125c0.042,-0.084 0.042,-0.209 0.083,-0.292c0.931,-4.652 1.419,-9.381 1.459,-14.125l71.333,0Z" style="fill:#2b687f;fill-rule:nonzero;"/><path d="M335.712,200.896l-53.834,0c-0.349,-22.778 -11.257,-44.148 -29.5,-57.792l10.125,-22.333c0.33,-0.735 0.5,-1.531 0.5,-2.336c0,-3.131 -2.577,-5.709 -5.709,-5.709c-1.96,0 -3.789,1.01 -4.832,2.67l-12.542,20.167c-9.87,-4.691 -20.661,-7.126 -31.589,-7.126c-39.942,0 -72.965,32.521 -73.578,72.459l-53.833,0c-0.024,0 -0.047,0 -0.071,0c-9.029,0 -16.458,-7.429 -16.458,-16.458c0,-0.64 0.038,-1.281 0.112,-1.917c2.189,-17.33 7.512,-34.117 15.709,-49.542l14.916,8.625c0.957,0.532 2.031,0.818 3.125,0.834c0.002,0 0.003,0 0.004,0c3.429,0 6.251,-2.822 6.251,-6.251c0,-2.233 -1.196,-4.302 -3.13,-5.416l-14.833,-8.584c11.677,-18.021 27.203,-33.233 45.458,-44.541l8.25,14.292c1.11,1.938 3.183,3.135 5.417,3.125c1.094,-0.016 2.168,-0.302 3.125,-0.834c2.953,-1.731 3.967,-5.58 2.25,-8.541l-8.167,-14.167c19.009,-9.664 39.934,-14.974 61.25,-15.542l0,15.5c0,3.429 2.822,6.25 6.25,6.25c3.429,0 6.25,-2.821 6.25,-6.25l0,-15.333c21.102,1.167 41.689,6.972 60.292,17l-7.25,12.542c-1.702,2.973 -0.67,6.819 2.292,8.541c0.954,0.537 2.029,0.823 3.125,0.834c2.231,-0.001 4.299,-1.194 5.416,-3.125l7.125,-12.375c17.569,11.447 32.429,26.592 43.542,44.374l-11.833,6.834c-1.934,1.114 -3.13,3.183 -3.13,5.416c0,3.429 2.822,6.251 6.251,6.251c0.001,0 0.002,0 0.004,0c1.095,-0.011 2.17,-0.297 3.125,-0.834l11.791,-6.833c7.699,14.923 12.707,31.088 14.792,47.75c0.072,0.626 0.108,1.256 0.108,1.887c0,9.045 -7.443,16.488 -16.488,16.488c-0.026,0 -0.052,0 -0.078,0Z" style="fill:#2cb7e1;fill-rule:nonzero;"/><path d="M261.087,202.063l0,10.208c0,28.949 -23.822,52.771 -52.771,52.771c-28.95,0 -52.771,-23.822 -52.771,-52.771l0,-10.209c-0.007,-0.389 0.007,-0.778 0.042,-1.166c0.617,-28.51 24.238,-51.625 52.755,-51.625c7.024,0 13.978,1.402 20.453,4.125l-29.583,47.5l-1.917,3.083c-0.275,0.459 -0.525,0.932 -0.75,1.417c-0.742,1.629 -1.125,3.398 -1.125,5.187c0,6.869 5.652,12.521 12.521,12.521c4.898,0 9.366,-2.875 11.396,-7.333l6.75,-14.875l17.375,-38.167c10.914,9.715 17.291,23.558 17.583,38.167c0.035,0.388 0.048,0.777 0.042,1.166Z" style="fill:#fff;fill-rule:nonzero;"/><path d="M262.503,120.771l-10.125,22.333l-4.458,9.708l-4.458,9.917l-17.375,38.167l-6.75,14.875c-2.03,4.458 -6.497,7.333 -11.396,7.333c-6.869,0 -12.521,-5.652 -12.521,-12.521c0,-1.789 0.383,-3.558 1.125,-5.187c0.225,-0.485 0.475,-0.958 0.75,-1.417l1.917,-3.083l29.583,-47.5l5.542,-8.917l5.583,-8.917l12.542,-20.166c1.043,-1.66 2.872,-2.67 4.832,-2.67c3.132,0 5.709,2.578 5.709,5.709c0,0.805 -0.17,1.601 -0.5,2.336Z" style="fill:#2b687f;fill-rule:nonzero;"/></svg>