<?xml version="1.0" encoding="UTF-8" standalone="no"?>
<!-- Created with Inkscape (http://www.inkscape.org/) -->

<svg
   xmlns:dc="http://purl.org/dc/elements/1.1/"
   xmlns:cc="http://creativecommons.org/ns#"
   xmlns:rdf="http://www.w3.org/1999/02/22-rdf-syntax-ns#"
   xmlns:svg="http://www.w3.org/2000/svg"
   xmlns="http://www.w3.org/2000/svg"
   xmlns:sodipodi="http://sodipodi.sourceforge.net/DTD/sodipodi-0.dtd"
   xmlns:inkscape="http://www.inkscape.org/namespaces/inkscape"
   width="300"
   height="284"
   viewBox="0 0 79.374995 75.141669"
   version="1.1"
   id="svg1539"
   inkscape:version="0.92.4 (5da689c313, 2019-01-14)"
   sodipodi:docname="day36-abacus.svg">
  <defs
     id="defs1533" />
  <sodipodi:namedview
     id="base"
     pagecolor="#ffffff"
     bordercolor="#666666"
     borderopacity="1.0"
     inkscape:pageopacity="0.0"
     inkscape:pageshadow="2"
     inkscape:zoom="0.98994949"
     inkscape:cx="298.73016"
     inkscape:cy="155.07896"
     inkscape:document-units="px"
     inkscape:current-layer="g1804"
     showgrid="false"
     units="px"
     inkscape:window-width="1920"
     inkscape:window-height="1017"
     inkscape:window-x="1358"
     inkscape:window-y="-8"
     inkscape:window-maximized="1" />
  <metadata
     id="metadata1536">
    <rdf:RDF>
      <cc:Work
         rdf:about="">
        <dc:format>image/svg+xml</dc:format>
        <dc:type
           rdf:resource="http://purl.org/dc/dcmitype/StillImage" />
        <dc:title></dc:title>
      </cc:Work>
    </rdf:RDF>
  </metadata>
  <g
     inkscape:label="Layer 1"
     inkscape:groupmode="layer"
     id="layer1"
     transform="translate(0,-221.8583)">
    <g
       id="g1974"
       transform="matrix(0.26458333,0,0,0.26458333,-123.97619,-9.1607122)">
      <g
         id="g1804"
         transform="matrix(0.76142133,0,0,0.76142133,232.30239,634.43207)">
	<rect
   height="8.6771154"
   width="344.91534"
   class="st2"
   y="413.53238"
   x="334.84232"
   id="XMLID_6_"
   style="fill:#202b52;stroke-width:1.08463943" />

	<rect
   height="8.6771154"
   width="344.91534"
   class="st3"
   y="404.85526"
   x="334.84232"
   id="XMLID_9_"
   style="fill:#3a4775;stroke-width:1.08463943" />

	<rect
   height="8.6771154"
   width="344.91534"
   class="st2"
   y="498.67657"
   x="334.84232"
   id="XMLID_47_"
   style="fill:#202b52;stroke-width:1.08463943" />

	<rect
   height="8.6771154"
   width="344.91534"
   class="st3"
   y="489.99945"
   x="334.84232"
   id="XMLID_15_"
   style="fill:#3a4775;stroke-width:1.08463943" />

	
	
	<rect
   height="8.6771154"
   width="344.91534"
   class="st2"
   y="586.46759"
   x="334.84232"
   id="XMLID_110_"
   style="fill:#202b52;stroke-width:1.08463943" />

	<rect
   height="8.6771154"
   width="344.91534"
   class="st3"
   y="577.79047"
   x="334.84232"
   id="XMLID_18_"
   style="fill:#3a4775;stroke-width:1.08463943" />

	<circle
   r="29.285265"
   cy="413.53238"
   cx="401.76459"
   class="st4"
   id="XMLID_21_"
   style="fill:#3bceff;stroke-width:1.08463943" />

	<path
   d="m 407.18783,434.14043 c -16.16112,0 -29.28526,-13.12414 -29.28526,-29.28527 0,-3.9047 0.75925,-7.59248 2.16928,-10.95486 -4.66395,5.20627 -7.59248,12.0395 -7.59248,19.63198 0,16.16112 13.12414,29.28526 29.28527,29.28526 12.25642,0 22.77742,-7.59248 27.11598,-18.33041 -5.31473,5.96552 -13.01567,9.6533 -21.69279,9.6533 z"
   class="st5"
   id="XMLID_74_"
   inkscape:connector-curvature="0"
   style="fill:#2fafdc;stroke-width:1.08463943" />

	<circle
   r="29.285265"
   cy="413.53238"
   cx="401.76459"
   class="st6"
   id="XMLID_8_"
   style="fill:none;stroke:#202b52;stroke-width:6.50783682;stroke-linecap:round;stroke-linejoin:round;stroke-miterlimit:10" />

	
	
	
	
	
	
	<circle
   r="29.285265"
   cy="498.67657"
   cx="507.30011"
   class="st11"
   id="XMLID_25_"
   style="fill:#f8d96b;stroke-width:1.08463943" />

	<path
   d="m 513.80789,520.36926 c -16.16113,0 -29.28526,-13.12414 -29.28526,-29.28526 0,-5.4232 1.51849,-10.62947 4.12163,-14.96803 -6.50784,5.4232 -10.62947,13.44953 -10.62947,22.5605 0,16.16113 13.12414,29.28527 29.28527,29.28527 10.73793,0 20.06583,-5.74859 25.16363,-14.31724 -4.98934,4.23009 -11.49718,6.72476 -18.6558,6.72476 z"
   class="st12"
   id="XMLID_87_"
   inkscape:connector-curvature="0"
   style="fill:#f2b955;stroke-width:1.08463943" />

	<circle
   r="29.285265"
   cy="498.67657"
   cx="507.30011"
   class="st6"
   id="XMLID_16_"
   style="fill:none;stroke:#202b52;stroke-width:6.50783682;stroke-linecap:round;stroke-linejoin:round;stroke-miterlimit:10" />

	
	
	
	
	
	
	
	
	
	
	
	
	<circle
   r="29.285265"
   cy="586.46759"
   cx="446.56018"
   class="st20"
   id="XMLID_32_"
   style="fill:#e17555;stroke-width:1.08463943" />

	<path
   d="m 453.06808,608.15985 c -16.16113,0 -29.28526,-13.12414 -29.28526,-29.28527 0,-5.42319 1.51849,-10.62946 4.12163,-14.96802 -6.50784,5.4232 -10.62947,13.44953 -10.62947,22.5605 0,16.16113 13.12414,29.28527 29.28527,29.28527 10.73793,0 20.06583,-5.74859 25.16363,-14.31724 -4.98934,4.23009 -11.49718,6.72476 -18.6558,6.72476 z"
   class="st21"
   id="XMLID_116_"
   inkscape:connector-curvature="0"
   style="fill:#e45e5b;stroke-width:1.08463943" />

	<path
   d="m 464.99912,586.46706 c 0,-10.19561 -8.24326,-18.43887 -18.43887,-18.43887"
   class="st17"
   id="XMLID_122_"
   inkscape:connector-curvature="0"
   style="fill:none;stroke:#ffffff;stroke-width:3.25391841;stroke-linecap:round;stroke-linejoin:round;stroke-miterlimit:10" />

	<circle
   r="29.285265"
   cy="586.46759"
   cx="446.56018"
   class="st6"
   id="XMLID_20_"
   style="fill:none;stroke:#202b52;stroke-width:6.50783682;stroke-linecap:round;stroke-linejoin:round;stroke-miterlimit:10" />

	
	
	
	
	
	
	
	
	
	
	
	
	
	
	<path
   d="m 420.20351,413.53228 c 0,-10.19562 -8.24326,-18.43888 -18.43887,-18.43888"
   class="st17"
   id="XMLID_111_"
   inkscape:connector-curvature="0"
   style="fill:none;stroke:#ffffff;stroke-width:3.25391841;stroke-linecap:round;stroke-linejoin:round;stroke-miterlimit:10" />

	
	
	<path
   d="M 541.68313,392.92413"
   class="st17"
   id="XMLID_38_"
   inkscape:connector-curvature="0"
   style="fill:none;stroke:#ffffff;stroke-width:3.25391841;stroke-linecap:round;stroke-linejoin:round;stroke-miterlimit:10" />

	<path
   d="m 525.73893,498.67647 c 0,-10.19561 -8.24326,-18.43887 -18.43887,-18.43887"
   class="st17"
   id="XMLID_115_"
   inkscape:connector-curvature="0"
   style="fill:none;stroke:#ffffff;stroke-width:3.25391841;stroke-linecap:round;stroke-linejoin:round;stroke-miterlimit:10" />

	
</g>
    </g>
  </g>
  <style
     id="style1541"
     type="text/css">
	.st0{fill:#FAE791;}
	.st1{fill:#53325A;}
	.st2{fill:#202B52;}
	.st3{fill:#3A4775;}
	.st4{fill:#3BCEFF;}
	.st5{fill:#2FAFDC;}
	.st6{fill:none;stroke:#202B52;stroke-width:6;stroke-linecap:round;stroke-linejoin:round;stroke-miterlimit:10;}
	.st7{fill:#12B0FF;}
	.st8{fill:#129BE5;}
	.st9{fill:#5392FF;}
	.st10{fill:#487FDF;}
	.st11{fill:#F8D96B;}
	.st12{fill:#F2B955;}
	.st13{fill:#FC3A4D;}
	.st14{fill:#E82E4A;}
	.st15{fill:#87D14B;}
	.st16{fill:#79BA3A;}
	.st17{fill:none;stroke:#FFFFFF;stroke-width:3;stroke-linecap:round;stroke-linejoin:round;stroke-miterlimit:10;}
	.st18{fill:#78D698;}
	.st19{fill:#5BC47B;}
	.st20{fill:#E17555;}
	.st21{fill:#E45E5B;}
	.st22{fill:#9E3B53;}
	.st23{fill:#883042;}
	.st24{fill:#4A2D51;}
	.st25{fill:#FDBA4F;}
	.st26{fill:#E89D3A;}
</style>
</svg>
