<?xml version="1.0" encoding="UTF-8" standalone="no"?>
<!-- Created with Inkscape (http://www.inkscape.org/) -->

<svg
   xmlns:dc="http://purl.org/dc/elements/1.1/"
   xmlns:cc="http://creativecommons.org/ns#"
   xmlns:rdf="http://www.w3.org/1999/02/22-rdf-syntax-ns#"
   xmlns:svg="http://www.w3.org/2000/svg"
   xmlns="http://www.w3.org/2000/svg"
   xmlns:sodipodi="http://sodipodi.sourceforge.net/DTD/sodipodi-0.dtd"
   xmlns:inkscape="http://www.inkscape.org/namespaces/inkscape"
   width="793.70081"
   height="1122.5197"
   viewBox="0 0 210 297"
   version="1.1"
   id="svg1446"
   inkscape:version="0.92.4 (5da689c313, 2019-01-14)"
   sodipodi:docname="easybutton-push-button.svg"
   inkscape:export-filename="C:\Users\evert\bitmap.png"
   inkscape:export-xdpi="95.879204"
   inkscape:export-ydpi="95.879204">
  <defs
     id="defs1440">
    <linearGradient
       gradientUnits="userSpaceOnUse"
       gradientTransform="matrix(0.10523,0,0,0.10523,-4.3122,-5.2194)"
       y2="142.84"
       y1="70.549004"
       x2="133.7"
       x1="61.903999"
       id="a">
      <stop
         id="stop2"
         offset="0"
         stop-color="#ff2a2a" />
      <stop
         id="stop4"
         offset=".5004"
         stop-color="#c62020" />
      <stop
         id="stop6"
         offset=".74611"
         stop-color="#9b1616" />
      <stop
         id="stop8"
         offset="1" />
    </linearGradient>
  </defs>
  <sodipodi:namedview
     id="base"
     pagecolor="#ffffff"
     bordercolor="#666666"
     borderopacity="1.0"
     inkscape:pageopacity="0.0"
     inkscape:pageshadow="2"
     inkscape:zoom="1.4"
     inkscape:cx="-213.38247"
     inkscape:cy="707.39112"
     inkscape:document-units="mm"
     inkscape:current-layer="g39"
     showgrid="false"
     units="px"
     showborder="false"
     inkscape:window-width="1920"
     inkscape:window-height="1017"
     inkscape:window-x="1358"
     inkscape:window-y="-8"
     inkscape:window-maximized="1" />
  <metadata
     id="metadata1443">
    <rdf:RDF>
      <cc:Work
         rdf:about="">
        <dc:format>image/svg+xml</dc:format>
        <dc:type
           rdf:resource="http://purl.org/dc/dcmitype/StillImage" />
        <dc:title></dc:title>
      </cc:Work>
    </rdf:RDF>
  </metadata>
  <g
     inkscape:label="Layer 1"
     inkscape:groupmode="layer"
     id="layer1">
    <g
       transform="translate(-17.339386,92.940259)"
       id="g39">
      <rect
         style="fill:#6c5353;stroke-width:9.23058224"
         id="rect13"
         ry="3.8854289"
         rx="3.8854289"
         height="110.7393"
         width="110.7393"
         y="-35.518555"
         x="-80.493324" />
      <rect
         style="fill:#ffe6d5;stroke-width:9.23058224"
         id="rect15"
         ry="1.9427608"
         rx="1.9427608"
         height="97.133423"
         width="97.133423"
         y="-28.733053"
         x="-74.092407" />
      <circle
         style="fill:#ffd5d5;fill-opacity:1;stroke:none;stroke-width:9.23058224;stroke-opacity:0.47320999"
         id="circle17"
         r="35.322666"
         cy="19.863932"
         cx="-25.395266" />
      <circle
         style="fill:#1b1b1b;stroke-width:9.23058224"
         id="circle19"
         r="3.2584879"
         cy="-18.99682"
         cx="-64.155411" />
      <circle
         style="fill:#1b1b1b;stroke-width:9.23058224"
         id="circle21"
         r="3.2584879"
         cy="-18.973743"
         cx="13.267027" />
      <circle
         style="fill:#1b1b1b;stroke-width:9.23058224"
         id="circle25"
         r="3.2584879"
         cy="58.589912"
         cx="13.294705" />
      <circle
         style="fill:#1b1b1b;stroke-width:9.23058224"
         id="circle27"
         r="3.2584879"
         cy="58.571445"
         cx="-64.214485" />
      <g
         style="fill:#eaeaea"
         id="g35"
         transform="matrix(9.2305822,0,0,9.2305822,-80.524924,-35.534332)">
        <path
           style="fill:#eaeaea"
           inkscape:connector-curvature="0"
           id="path23"
           d="m -0.3538,1.4672 c -0.058299,0 -0.10523,0.0469 -0.10523,0.10522 V 1.9594 h -2.1504 c -0.1166,0 -0.21045,0.0938 -0.21045,0.21045 v 0.50721 c 0,0.1166 0.093855,0.21045 0.21045,0.21045 h 2.1504 v 0.40101 c 0,0.0583 0.046928,0.10528 0.10523,0.10528 H 0.00343 V 1.4672 Z" />
        <path
           inkscape:connector-curvature="0"
           id="path29"
           d="m -0.35376,8.6067 c -0.058299,0 -0.10523,0.0469 -0.10523,0.10523 V 9.0989 h -2.1504 c -0.1166,0 -0.21045,0.0939 -0.21045,0.21045 v 0.50721 c 0,0.1166 0.093855,0.21046 0.21045,0.21046 h 2.1504 v 0.401 c 0,0.0583 0.046928,0.10528 0.10523,0.10528 H 0.00347 V 8.6067 Z" />
        <path
           inkscape:connector-curvature="0"
           id="path31"
           d="m 12.354,1.4672 c 0.0583,0 0.10522,0.0469 0.10523,0.10522 V 1.9594 h 2.1504 c 0.1166,0 0.21045,0.0938 0.21045,0.21045 v 0.50721 c 0,0.1166 -0.09385,0.21045 -0.21045,0.21045 h -2.1504 v 0.40101 c 0,0.0583 -0.04693,0.10528 -0.10523,0.10528 H 11.99677 V 1.4672 Z" />
        <path
           inkscape:connector-curvature="0"
           id="path33"
           d="m 12.354,8.6067 c 0.0583,0 0.10523,0.0469 0.10523,0.10522 V 9.0989 h 2.1504 c 0.1166,0 0.21045,0.0938 0.21045,0.21045 v 0.50721 c 0,0.1166 -0.09386,0.21045 -0.21045,0.21045 h -2.1504 v 0.40101 c 0,0.0583 -0.04693,0.10528 -0.10523,0.10528 H 11.99677 V 8.6067 Z" />
      </g>
      <circle
         style="fill:#ff8080;stroke:#2f2f2f;stroke-width:0.70871496;stroke-opacity:0.47320999"
         id="circle37"
         r="26.786228"
         cy="19.956232"
         cx="-25.302963" />
    </g>
  </g>
</svg>
