<?xml version="1.0" encoding="UTF-8" standalone="no"?>
<!-- Created with Inkscape (http://www.inkscape.org/) -->

<svg
   xmlns:dc="http://purl.org/dc/elements/1.1/"
   xmlns:cc="http://creativecommons.org/ns#"
   xmlns:rdf="http://www.w3.org/1999/02/22-rdf-syntax-ns#"
   xmlns:svg="http://www.w3.org/2000/svg"
   xmlns="http://www.w3.org/2000/svg"
   xmlns:sodipodi="http://sodipodi.sourceforge.net/DTD/sodipodi-0.dtd"
   xmlns:inkscape="http://www.inkscape.org/namespaces/inkscape"
   width="793.70081"
   height="1122.5197"
   viewBox="0 0 210 297"
   version="1.1"
   id="svg3297"
   inkscape:export-filename="C:\Users\evert\bitmap3.png"
   inkscape:export-xdpi="95.879204"
   inkscape:export-ydpi="95.879204"
   inkscape:version="0.92.4 (5da689c313, 2019-01-14)"
   sodipodi:docname="easybutton-push-button-with-background.svg">
  <defs
     id="defs3291" />
  <sodipodi:namedview
     id="base"
     pagecolor="#ffffff"
     bordercolor="#666666"
     borderopacity="1.0"
     inkscape:pageopacity="0.0"
     inkscape:pageshadow="2"
     inkscape:zoom="0.49497475"
     inkscape:cx="-77.217664"
     inkscape:cy="555.31294"
     inkscape:document-units="mm"
     inkscape:current-layer="layer1"
     showgrid="false"
     units="px"
     showborder="false"
     inkscape:window-width="1920"
     inkscape:window-height="1017"
     inkscape:window-x="1358"
     inkscape:window-y="-8"
     inkscape:window-maximized="1" />
  <metadata
     id="metadata3294">
    <rdf:RDF>
      <cc:Work
         rdf:about="">
        <dc:format>image/svg+xml</dc:format>
        <dc:type
           rdf:resource="http://purl.org/dc/dcmitype/StillImage" />
        <dc:title></dc:title>
      </cc:Work>
    </rdf:RDF>
  </metadata>
  <g
     inkscape:label="Layer 1"
     inkscape:groupmode="layer"
     id="layer1">
    <g
       id="g3886"
       transform="matrix(0.26458333,0,0,0.26458333,-366.08844,-20.929471)">
	
	
	
	
	
	
	
</g>
    <path
       id="path3854"
       d="m 54.90023,245.62366 h -198.02077 c -20.4995,0 -37.27181,-16.77232 -37.27181,-37.27182 V 10.328784 c -0.003,-20.499501 16.77004,-37.27182 37.27181,-37.27182 H 54.90023 c 20.499533,0 37.271845,16.772319 37.271845,37.27182 V 208.34956 c 0,20.50178 -16.772312,37.2741 -37.271845,37.2741 z"
       class="st0"
       inkscape:connector-curvature="0"
       style="fill:#eaecf2;stroke-width:0.22754468" />
    <path
       d="m -41.637841,60.98482 c -25.58582,0 -46.35107,20.765195 -46.35107,46.35091 0,25.58573 20.76525,46.35102 46.35107,46.35102 25.585687,0 46.3509598,-20.76529 46.3509598,-46.35102 0,-25.585715 -20.7652728,-46.35091 -46.3509598,-46.35091 0,0 0,0 0,0 m -5.1913,34.114284 c 2.039398,1.946753 3.708049,4.078879 5.1913,6.303736 1.483224,-2.224857 3.151861,-4.356983 5.191353,-6.303736 3.61534,-3.244545 8.435813,-5.654799 14.461458,-5.654799 10.289879,0 18.7257554,8.157731 18.7257554,18.169535 0,10.01183 -8.4358764,18.07691 -18.7257554,18.07691 -5.747513,0.27802 -10.382636,-1.94678 -13.812588,-5.09862 -2.317549,-2.13215 -4.17159,-4.6351 -5.840223,-7.23078 -1.668628,2.59568 -3.522679,5.09863 -5.840207,7.23078 -3.429989,3.15184 -8.065143,5.37671 -13.812653,5.09862 -10.28999,0 -18.72585,-8.06508 -18.72585,-18.07691 0,-10.011804 8.43586,-18.169535 18.72585,-18.169535 6.02563,0 10.846191,2.410254 14.46156,5.654799 0,0 0,0 0,0 m -26.79096,12.514736 c 0,6.39642 5.37668,11.68046 12.3294,11.68046 0,0 0,0 0,0 0,0 0.0928,0 0.0928,0 4.26431,0.18556 6.86002,-1.01974 9.36296,-3.33727 2.317505,-2.13216 4.356973,-5.19131 6.396394,-8.6213 -1.761271,-2.87376 -3.615332,-5.56208 -5.74751,-7.508817 -2.688374,-2.502947 -5.562134,-3.986183 -10.104524,-3.986183 -6.95272,0 -12.32944,5.28399 -12.32944,11.77311 0,0 0,0 0,0 m 41.530554,-7.786927 c -2.132074,1.946737 -3.986141,4.635057 -5.747476,7.508817 2.039442,3.42999 4.078847,6.48914 6.396421,8.6213 2.502974,2.31753 5.098593,3.52268 9.362915,3.33727 0,0 0.09282,0 0.09282,0 0,0 0,0 0,0 6.952609,0 12.3293714,-5.28404 12.3293714,-11.68046 0,-6.48912 -5.3767624,-11.77311 -12.3293714,-11.77311 -4.542404,0 -7.416155,1.483236 -10.104505,3.986183 0,0 0,0 0,0 m 11.03152,1.946737 c 0,0 0,3.52263 0,3.52263 0,0 3.430001,0 3.430001,0 0,0 0,3.52266 0,3.52266 0,0 -3.430001,0 -3.430001,0 0,0 0,3.52269 0,3.52269 0,0 -2.595644,0 -2.595644,0 0,0 -1.019733,0 -1.019733,0 0,0 0,-3.52269 0,-3.52269 0,0 -3.522671,0 -3.522671,0 0,0 0,-3.52266 0,-3.52266 0,0 3.522671,0 3.522671,0 0,0 0,-3.52263 0,-3.52263 0,0 3.615377,0 3.615377,0 m -33.372739,3.89346 c 0,0 0,2.78103 0,2.78103 0,0 -10.84615,0 -10.84615,0 0,0 -1.94675,0 -1.94675,0 0,0 0,-2.78103 0,-2.78103 0,0 12.7929,0 12.7929,0"
       style="opacity:1;vector-effect:none;fill:#008080;fill-opacity:1;stroke-width:0.0927019"
       id="path"
       inkscape:connector-curvature="0"
       inkscape:label="button-inner" />
    <path
       style="fill:#5cddad;fill-opacity:1;stroke:none;stroke-width:0.32831717px;stroke-linecap:butt;stroke-linejoin:miter;stroke-opacity:1"
       d="m -113.82272,169.54732 c 1.24858,6.30156 4.90763,9.05555 10.46303,9.72514 l 94.5085509,0.11726 -17.8987439,-17.97454 c -10.511576,2.65303 -21.134742,2.86765 -31.549035,-0.34466 -12.39583,-3.60735 -21.6574,-11.28024 -29.60431,-21.76826 -7.83146,-11.93199 -12.296242,-25.16945 -9.32983,-41.288375 3.06059,-15.423919 10.44859,-27.297152 22.13209,-35.645862 14.18017,-11.325416 29.636311,-12.390193 44.913378,-10.332782 13.590221,2.71452 23.3831399,10.146314 31.4832819,19.009733 10.3953181,12.683622 13.2492021,25.688152 13.3043961,38.811776 4.351991,-3.55335 9.391198,-5.93841 15.946841,-5.74555 L 30.224485,44.398507 C 29.180491,40.310604 27.517334,36.672819 20.741794,35.476992 L -103.68214,35.281851 c -5.55606,0.744554 -8.68613,4.16413 -10.0254,8.823522 -0.0383,62.792297 -0.0768,83.627917 -0.11516,125.441947 z"
       id="path847"
       inkscape:connector-curvature="0"
       sodipodi:nodetypes="ccccccccccccccccc"
       inkscape:label="button-outer" />
    <path
       style="fill:#f4e3d7;stroke:none;stroke-width:0.32831717px;stroke-linecap:butt;stroke-linejoin:miter;stroke-opacity:1"
       d="m 107.10436,79.642176 38.80301,38.637274 10.69572,11.60775 12.14669,15.54615 9.94952,15.33888 16.08332,30.01663 7.26987,12.78093 9.26322,12.5464 3.04866,4.22122 c 0.8344,1.72923 0.0524,2.99663 -1.28982,4.10397 l -77.74072,77.5063 c -2.50244,1.31122 -3.88761,0.52754 -5.15923,-0.46902 l -32.010908,-31.3074 c -3.950679,-3.35289 -8.204851,-5.87121 -12.780908,-7.50439 l -42.563981,-10.6703 -47.95777,-11.66699 c -13.164478,-5.25624 -20.090123,-12.74524 -18.40921,-23.62711 0.82489,-5.52178 4.462802,-9.48078 9.497739,-12.66366 5.7833639,-2.78015 12.1279161,-3.31553 18.5264713,-3.63494 l 20.7543397,0.58629 -77.271796,-77.50638 c -3.26105,-6.23465 -4.55122,-12.86346 -0.11727,-20.63709 7.473811,-9.987198 16.333361,-9.754457 25.561839,-6.800844 13.426922,10.869574 25.69626207,25.215514 38.694529,37.639204 -1.012077,-9.28425 2.615411,-14.87449 8.149294,-19.17136 7.551862,-3.94753 15.059226,-4.50938 22.923587,0.29313 -0.571365,-6.65958 0.647407,-12.99366 6.91811,-18.409209 8.47924,-5.837402 17.12171,-5.145027 25.913608,1.524332 -0.463098,-10.072068 3.721782,-16.102421 10.435795,-19.933544 6.185073,-2.146297 12.628447,-3.302276 20.666281,1.653777 z"
       id="path863"
       inkscape:connector-curvature="0"
       sodipodi:nodetypes="cccccccccccccccccccccccccccccc"
       inkscape:label="hand" />
  </g>
  <style
     id="style3852"
     type="text/css">
	.st0{fill:#EAECF2;}
	.st1{fill:#194F80;}
	.st2{fill:#00E3C1;}
</style>
</svg>
