<?xml version="1.0" encoding="UTF-8" standalone="no"?>
<!-- Created with Inkscape (http://www.inkscape.org/) -->

<svg
   xmlns:dc="http://purl.org/dc/elements/1.1/"
   xmlns:cc="http://creativecommons.org/ns#"
   xmlns:rdf="http://www.w3.org/1999/02/22-rdf-syntax-ns#"
   xmlns:svg="http://www.w3.org/2000/svg"
   xmlns="http://www.w3.org/2000/svg"
   xmlns:sodipodi="http://sodipodi.sourceforge.net/DTD/sodipodi-0.dtd"
   xmlns:inkscape="http://www.inkscape.org/namespaces/inkscape"
   width="793.70081"
   height="1122.5197"
   viewBox="0 0 210 297"
   version="1.1"
   id="svg8"
   inkscape:version="0.92.4 (5da689c313, 2019-01-14)"
   sodipodi:docname="easybutton.svg"
   inkscape:export-filename="C:\Users\evert\bitmap1.png"
   inkscape:export-xdpi="95.879204"
   inkscape:export-ydpi="95.879204">
  <defs
     id="defs2" />
  <sodipodi:namedview
     id="base"
     pagecolor="#ffffff"
     bordercolor="#666666"
     borderopacity="1.0"
     inkscape:pageopacity="0.0"
     inkscape:pageshadow="2"
     inkscape:zoom="0.49497475"
     inkscape:cx="189.3505"
     inkscape:cy="594.27842"
     inkscape:document-units="mm"
     inkscape:current-layer="layer1"
     showgrid="false"
     units="px"
     showborder="false"
     inkscape:window-width="1920"
     inkscape:window-height="1017"
     inkscape:window-x="1358"
     inkscape:window-y="-8"
     inkscape:window-maximized="1" />
  <metadata
     id="metadata5">
    <rdf:RDF>
      <cc:Work
         rdf:about="">
        <dc:format>image/svg+xml</dc:format>
        <dc:type
           rdf:resource="http://purl.org/dc/dcmitype/StillImage" />
        <dc:title />
      </cc:Work>
    </rdf:RDF>
  </metadata>
  <g
     inkscape:label="easybutton-logo"
     inkscape:groupmode="layer"
     id="layer1">
    <path
       d="m 80.252653,63.153694 c -20.618959,0 -37.353193,16.734199 -37.353193,37.353146 0,20.61896 16.734234,37.35318 37.353193,37.35318 20.618917,0 37.353177,-16.73422 37.353177,-37.35318 0,-20.618947 -16.73426,-37.353146 -37.353177,-37.353146 0,0 0,0 0,0 M 76.069105,90.64562 c 1.643493,1.568844 2.98823,3.287079 4.183548,5.080044 1.195292,-1.792965 2.540002,-3.5112 4.183589,-5.080044 2.913514,-2.614705 6.798226,-4.557074 11.654163,-4.557074 8.292375,0 15.090655,6.574132 15.090655,14.642414 0,8.0683 -6.79828,14.56776 -15.090655,14.56776 -4.63179,0.22405 -8.367137,-1.56886 -11.13126,-4.10886 -1.867653,-1.71825 -3.361782,-3.73531 -4.706492,-5.82711 -1.34471,2.0918 -2.838851,4.10886 -4.706492,5.82711 -2.764149,2.54 -6.499497,4.33297 -11.131259,4.10886 -8.292435,0 -15.090701,-6.49946 -15.090701,-14.56776 0,-8.068282 6.798266,-14.642414 15.090701,-14.642414 4.855883,0 8.740649,1.942369 11.654203,4.557074 0,0 0,0 0,0 m -21.590144,10.08534 c 0,5.15473 4.332926,9.41301 9.935941,9.41301 0,0 0,0 0,0 0,0 0.07476,0 0.07476,0 3.436484,0.14954 5.528299,-0.82178 7.545344,-2.68942 1.86764,-1.71826 3.5112,-4.18356 5.154719,-6.94771 -1.419372,-2.315898 -2.913513,-4.482353 -4.631789,-6.051184 -2.16649,-2.017072 -4.482372,-3.212377 -8.142963,-3.212377 -5.603015,0 -9.935968,4.258251 -9.935968,9.487681 0,0 0,0 0,0 m 33.468441,-6.275304 c -1.718195,1.568831 -3.21235,3.735286 -4.631762,6.051184 1.643533,2.76415 3.287052,5.22945 5.154733,6.94771 2.017085,1.86764 4.108832,2.83884 7.545357,2.68942 0,0 0.07476,0 0.07476,0 0,0 0,0 0,0 5.602946,0 9.935956,-4.25828 9.935956,-9.41301 0,-5.22943 -4.33301,-9.487681 -9.935956,-9.487681 -3.660618,0 -5.976513,1.195305 -8.142989,3.212377 0,0 0,0 0,0 m 8.890043,1.568831 c 0,0 0,2.838802 0,2.838802 0,0 2.764165,0 2.764165,0 0,0 0,2.838841 0,2.838841 0,0 -2.764165,0 -2.764165,0 0,0 0,2.83885 0,2.83885 0,0 -2.091764,0 -2.091764,0 0,0 -0.82178,0 -0.82178,0 0,0 0,-2.83885 0,-2.83885 0,0 -2.838838,0 -2.838838,0 0,0 0,-2.838841 0,-2.838841 0,0 2.838838,0 2.838838,0 0,0 0,-2.838802 0,-2.838802 0,0 2.913544,0 2.913544,0 m -26.894312,3.137649 c 0,0 0,2.241174 0,2.241174 0,0 -8.740622,0 -8.740622,0 0,0 -1.568831,0 -1.568831,0 0,0 0,-2.241174 0,-2.241174 0,0 10.309453,0 10.309453,0"
       style="opacity:1;vector-effect:none;fill:#008080;fill-opacity:1;stroke-width:0.07470635"
       id="path"
       inkscape:connector-curvature="0"
       inkscape:label="button-inner" />
    <path
       style="fill:#5cddad;stroke:none;stroke-width:0.26458332px;stroke-linecap:butt;stroke-linejoin:miter;stroke-opacity:1;fill-opacity:1"
       d="m 22.429841,149.97299 c 1.006202,5.07829 3.954954,7.29766 8.431916,7.83727 l 76.162203,0.0945 -14.424184,-14.48527 c -8.471044,2.13801 -17.032019,2.31097 -25.424628,-0.27776 -9.98946,-2.90708 -17.453145,-9.09046 -23.857375,-17.54248 -6.311206,-9.61573 -9.909263,-20.28349 -7.518705,-33.273368 2.466466,-12.429784 8.420282,-21.998152 17.835754,-28.726188 11.427426,-9.12689 23.883142,-9.984961 36.194577,-8.326941 10.952051,2.187564 18.843941,8.176679 25.371661,15.3195 8.37734,10.221441 10.67723,20.701497 10.72171,31.277527 3.50717,-2.863562 7.56815,-4.785632 12.85119,-4.630207 L 138.5141,49.11848 c -0.84132,-3.294348 -2.18163,-6.225963 -7.64187,-7.189653 L 30.601898,41.771568 c -4.4775,0.600018 -6.999951,3.355776 -8.079241,7.110676 -0.03094,50.602884 -0.06188,67.393826 -0.09282,101.090746 z"
       id="path847"
       inkscape:connector-curvature="0"
       sodipodi:nodetypes="ccccccccccccccccc"
       inkscape:label="button-outer" />
    <path
       style="fill:#f4e3d7;stroke:none;stroke-width:0.26458332px;stroke-linecap:butt;stroke-linejoin:miter;stroke-opacity:1"
       d="m 199.78397,77.972612 31.27053,31.136898 8.61945,9.35443 9.78875,12.52827 8.01808,12.36121 12.96119,24.18972 5.85862,10.29986 7.46503,10.11086 2.45684,3.40178 c 0.67242,1.39355 0.0422,2.41492 -1.03944,3.3073 l -62.64954,62.46056 c -2.01667,1.05668 -3.13295,0.42513 -4.15774,-0.37797 l -25.79687,-25.22992 c -3.18377,-2.70202 -6.61212,-4.73148 -10.29985,-6.04762 l -34.30134,-8.59895 -38.64807,-9.40216 c -10.608951,-4.23589 -16.190166,-10.2711 -14.835563,-19.04055 0.664763,-4.44988 3.596471,-7.64035 7.654013,-10.20536 4.66068,-2.24046 9.77361,-2.67191 14.93006,-2.92931 l 16.72545,0.47247 -62.271578,-62.46057 C 68.904,108.27921 67.864289,102.9372 71.437502,96.672608 c 6.022963,-8.048462 13.162675,-7.860902 20.599701,-5.480653 10.820447,8.759551 20.708027,20.320605 31.183037,30.332585 -0.81561,-7.48198 2.1077,-11.98702 6.56733,-15.44977 6.08587,-3.18122 12.13588,-3.634 18.47359,0.23623 -0.46046,-5.3668 0.52173,-10.471291 5.57515,-14.835563 6.83322,-4.704232 13.79799,-4.146263 20.88318,1.228421 -0.37319,-8.116848 2.99931,-12.976574 8.40997,-16.063987 4.9844,-1.729653 10.17699,-2.66123 16.65451,1.332741 z"
       id="path863"
       inkscape:connector-curvature="0"
       sodipodi:nodetypes="cccccccccccccccccccccccccccccc"
       inkscape:label="hand" />
  </g>
</svg>
